<?xml version="1.0" encoding="utf-8" standalone="no"?>
<!DOCTYPE svg PUBLIC "-//W3C//DTD SVG 1.1//EN"
  "http://www.w3.org/Graphics/SVG/1.1/DTD/svg11.dtd">
<svg height="310.86825pt" version="1.1" viewBox="0 0 414.46375 310.86825" width="414.46375pt" xmlns="http://www.w3.org/2000/svg" xmlns:xlink="http://www.w3.org/1999/xlink">
 <metadata>
  <rdf:RDF xmlns:cc="http://creativecommons.org/ns#" xmlns:dc="http://purl.org/dc/elements/1.1/" xmlns:rdf="http://www.w3.org/1999/02/22-rdf-syntax-ns#">
   <cc:Work>
    <dc:type rdf:resource="http://purl.org/dc/dcmitype/StillImage"/>
    <dc:date>2021-07-11T01:26:50.299271</dc:date>
    <dc:format>image/svg+xml</dc:format>
    <dc:creator>
     <cc:Agent>
      <dc:title>Matplotlib v3.4.2, https://matplotlib.org/</dc:title>
     </cc:Agent>
    </dc:creator>
   </cc:Work>
  </rdf:RDF>
 </metadata>
 <defs>
  <style type="text/css">*{stroke-linecap:butt;stroke-linejoin:round;}</style>
 </defs>
 <g id="figure_1">
  <g id="patch_1">
   <path d="M 0 310.86825 
L 414.46375 310.86825 
L 414.46375 0 
L 0 0 
z
" style="fill:#ffffff;"/>
  </g>
  <g id="axes_1">
   <g id="patch_2">
    <path d="M 50.14375 273.312 
L 407.26375 273.312 
L 407.26375 7.2 
L 50.14375 7.2 
z
" style="fill:#ffffff;"/>
   </g>
   <g id="patch_3">
    <path clip-path="url(#pddca98899c)" d="M 67.941147 273.312 
L 69.556578 273.312 
L 69.556578 270.833369 
L 67.941147 270.833369 
z
" style="fill:#1f77b4;"/>
   </g>
   <g id="patch_4">
    <path clip-path="url(#pddca98899c)" d="M 69.556578 273.312 
L 71.172009 273.312 
L 71.172009 271.453027 
L 69.556578 271.453027 
z
" style="fill:#1f77b4;"/>
   </g>
   <g id="patch_5">
    <path clip-path="url(#pddca98899c)" d="M 71.172009 273.312 
L 72.78744 273.312 
L 72.78744 268.354738 
L 71.172009 268.354738 
z
" style="fill:#1f77b4;"/>
   </g>
   <g id="patch_6">
    <path clip-path="url(#pddca98899c)" d="M 72.78744 273.312 
L 74.402871 273.312 
L 74.402871 268.974396 
L 72.78744 268.974396 
z
" style="fill:#1f77b4;"/>
   </g>
   <g id="patch_7">
    <path clip-path="url(#pddca98899c)" d="M 74.402871 273.312 
L 76.018301 273.312 
L 76.018301 268.974396 
L 74.402871 268.974396 
z
" style="fill:#1f77b4;"/>
   </g>
   <g id="patch_8">
    <path clip-path="url(#pddca98899c)" d="M 76.018301 273.312 
L 77.633732 273.312 
L 77.633732 262.158161 
L 76.018301 262.158161 
z
" style="fill:#1f77b4;"/>
   </g>
   <g id="patch_9">
    <path clip-path="url(#pddca98899c)" d="M 77.633732 273.312 
L 79.249163 273.312 
L 79.249163 265.876108 
L 77.633732 265.876108 
z
" style="fill:#1f77b4;"/>
   </g>
   <g id="patch_10">
    <path clip-path="url(#pddca98899c)" d="M 79.249163 273.312 
L 80.864594 273.312 
L 80.864594 266.495765 
L 79.249163 266.495765 
z
" style="fill:#1f77b4;"/>
   </g>
   <g id="patch_11">
    <path clip-path="url(#pddca98899c)" d="M 80.864594 273.312 
L 82.480025 273.312 
L 82.480025 261.538504 
L 80.864594 261.538504 
z
" style="fill:#1f77b4;"/>
   </g>
   <g id="patch_12">
    <path clip-path="url(#pddca98899c)" d="M 82.480025 273.312 
L 84.095455 273.312 
L 84.095455 255.341927 
L 82.480025 255.341927 
z
" style="fill:#1f77b4;"/>
   </g>
   <g id="patch_13">
    <path clip-path="url(#pddca98899c)" d="M 84.095455 273.312 
L 85.710886 273.312 
L 85.710886 256.581242 
L 84.095455 256.581242 
z
" style="fill:#1f77b4;"/>
   </g>
   <g id="patch_14">
    <path clip-path="url(#pddca98899c)" d="M 85.710886 273.312 
L 87.326317 273.312 
L 87.326317 260.918846 
L 85.710886 260.918846 
z
" style="fill:#1f77b4;"/>
   </g>
   <g id="patch_15">
    <path clip-path="url(#pddca98899c)" d="M 87.326317 273.312 
L 88.941748 273.312 
L 88.941748 257.820557 
L 87.326317 257.820557 
z
" style="fill:#1f77b4;"/>
   </g>
   <g id="patch_16">
    <path clip-path="url(#pddca98899c)" d="M 88.941748 273.312 
L 90.557179 273.312 
L 90.557179 259.059873 
L 88.941748 259.059873 
z
" style="fill:#1f77b4;"/>
   </g>
   <g id="patch_17">
    <path clip-path="url(#pddca98899c)" d="M 90.557179 273.312 
L 92.172609 273.312 
L 92.172609 252.243638 
L 90.557179 252.243638 
z
" style="fill:#1f77b4;"/>
   </g>
   <g id="patch_18">
    <path clip-path="url(#pddca98899c)" d="M 92.172609 273.312 
L 93.78804 273.312 
L 93.78804 255.961584 
L 92.172609 255.961584 
z
" style="fill:#1f77b4;"/>
   </g>
   <g id="patch_19">
    <path clip-path="url(#pddca98899c)" d="M 93.78804 273.312 
L 95.403471 273.312 
L 95.403471 252.243638 
L 93.78804 252.243638 
z
" style="fill:#1f77b4;"/>
   </g>
   <g id="patch_20">
    <path clip-path="url(#pddca98899c)" d="M 95.403471 273.312 
L 97.018902 273.312 
L 97.018902 249.765007 
L 95.403471 249.765007 
z
" style="fill:#1f77b4;"/>
   </g>
   <g id="patch_21">
    <path clip-path="url(#pddca98899c)" d="M 97.018902 273.312 
L 98.634333 273.312 
L 98.634333 254.722269 
L 97.018902 254.722269 
z
" style="fill:#1f77b4;"/>
   </g>
   <g id="patch_22">
    <path clip-path="url(#pddca98899c)" d="M 98.634333 273.312 
L 100.249763 273.312 
L 100.249763 248.525692 
L 98.634333 248.525692 
z
" style="fill:#1f77b4;"/>
   </g>
   <g id="patch_23">
    <path clip-path="url(#pddca98899c)" d="M 100.249763 273.312 
L 101.865194 273.312 
L 101.865194 242.948773 
L 100.249763 242.948773 
z
" style="fill:#1f77b4;"/>
   </g>
   <g id="patch_24">
    <path clip-path="url(#pddca98899c)" d="M 101.865194 273.312 
L 103.480625 273.312 
L 103.480625 240.470142 
L 101.865194 240.470142 
z
" style="fill:#1f77b4;"/>
   </g>
   <g id="patch_25">
    <path clip-path="url(#pddca98899c)" d="M 103.480625 273.312 
L 105.096056 273.312 
L 105.096056 235.51288 
L 103.480625 235.51288 
z
" style="fill:#1f77b4;"/>
   </g>
   <g id="patch_26">
    <path clip-path="url(#pddca98899c)" d="M 105.096056 273.312 
L 106.711487 273.312 
L 106.711487 241.0898 
L 105.096056 241.0898 
z
" style="fill:#1f77b4;"/>
   </g>
   <g id="patch_27">
    <path clip-path="url(#pddca98899c)" d="M 106.711487 273.312 
L 108.326917 273.312 
L 108.326917 238.611169 
L 106.711487 238.611169 
z
" style="fill:#1f77b4;"/>
   </g>
   <g id="patch_28">
    <path clip-path="url(#pddca98899c)" d="M 108.326917 273.312 
L 109.942348 273.312 
L 109.942348 237.991511 
L 108.326917 237.991511 
z
" style="fill:#1f77b4;"/>
   </g>
   <g id="patch_29">
    <path clip-path="url(#pddca98899c)" d="M 109.942348 273.312 
L 111.557779 273.312 
L 111.557779 243.56843 
L 109.942348 243.56843 
z
" style="fill:#1f77b4;"/>
   </g>
   <g id="patch_30">
    <path clip-path="url(#pddca98899c)" d="M 111.557779 273.312 
L 113.17321 273.312 
L 113.17321 233.653907 
L 111.557779 233.653907 
z
" style="fill:#1f77b4;"/>
   </g>
   <g id="patch_31">
    <path clip-path="url(#pddca98899c)" d="M 113.17321 273.312 
L 114.788641 273.312 
L 114.788641 241.709457 
L 113.17321 241.709457 
z
" style="fill:#1f77b4;"/>
   </g>
   <g id="patch_32">
    <path clip-path="url(#pddca98899c)" d="M 114.788641 273.312 
L 116.404071 273.312 
L 116.404071 240.470142 
L 114.788641 240.470142 
z
" style="fill:#1f77b4;"/>
   </g>
   <g id="patch_33">
    <path clip-path="url(#pddca98899c)" d="M 116.404071 273.312 
L 118.019502 273.312 
L 118.019502 226.837672 
L 116.404071 226.837672 
z
" style="fill:#1f77b4;"/>
   </g>
   <g id="patch_34">
    <path clip-path="url(#pddca98899c)" d="M 118.019502 273.312 
L 119.634933 273.312 
L 119.634933 234.273565 
L 118.019502 234.273565 
z
" style="fill:#1f77b4;"/>
   </g>
   <g id="patch_35">
    <path clip-path="url(#pddca98899c)" d="M 119.634933 273.312 
L 121.250364 273.312 
L 121.250364 224.978699 
L 119.634933 224.978699 
z
" style="fill:#1f77b4;"/>
   </g>
   <g id="patch_36">
    <path clip-path="url(#pddca98899c)" d="M 121.250364 273.312 
L 122.865794 273.312 
L 122.865794 224.978699 
L 121.250364 224.978699 
z
" style="fill:#1f77b4;"/>
   </g>
   <g id="patch_37">
    <path clip-path="url(#pddca98899c)" d="M 122.865794 273.312 
L 124.481225 273.312 
L 124.481225 234.893222 
L 122.865794 234.893222 
z
" style="fill:#1f77b4;"/>
   </g>
   <g id="patch_38">
    <path clip-path="url(#pddca98899c)" d="M 124.481225 273.312 
L 126.096656 273.312 
L 126.096656 235.51288 
L 124.481225 235.51288 
z
" style="fill:#1f77b4;"/>
   </g>
   <g id="patch_39">
    <path clip-path="url(#pddca98899c)" d="M 126.096656 273.312 
L 127.712087 273.312 
L 127.712087 229.935961 
L 126.096656 229.935961 
z
" style="fill:#1f77b4;"/>
   </g>
   <g id="patch_40">
    <path clip-path="url(#pddca98899c)" d="M 127.712087 273.312 
L 129.327518 273.312 
L 129.327518 220.641095 
L 127.712087 220.641095 
z
" style="fill:#1f77b4;"/>
   </g>
   <g id="patch_41">
    <path clip-path="url(#pddca98899c)" d="M 129.327518 273.312 
L 130.942948 273.312 
L 130.942948 228.076988 
L 129.327518 228.076988 
z
" style="fill:#1f77b4;"/>
   </g>
   <g id="patch_42">
    <path clip-path="url(#pddca98899c)" d="M 130.942948 273.312 
L 132.558379 273.312 
L 132.558379 231.794934 
L 130.942948 231.794934 
z
" style="fill:#1f77b4;"/>
   </g>
   <g id="patch_43">
    <path clip-path="url(#pddca98899c)" d="M 132.558379 273.312 
L 134.17381 273.312 
L 134.17381 224.359042 
L 132.558379 224.359042 
z
" style="fill:#1f77b4;"/>
   </g>
   <g id="patch_44">
    <path clip-path="url(#pddca98899c)" d="M 134.17381 273.312 
L 135.789241 273.312 
L 135.789241 218.162465 
L 134.17381 218.162465 
z
" style="fill:#1f77b4;"/>
   </g>
   <g id="patch_45">
    <path clip-path="url(#pddca98899c)" d="M 135.789241 273.312 
L 137.404672 273.312 
L 137.404672 231.794934 
L 135.789241 231.794934 
z
" style="fill:#1f77b4;"/>
   </g>
   <g id="patch_46">
    <path clip-path="url(#pddca98899c)" d="M 137.404672 273.312 
L 139.020102 273.312 
L 139.020102 221.880411 
L 137.404672 221.880411 
z
" style="fill:#1f77b4;"/>
   </g>
   <g id="patch_47">
    <path clip-path="url(#pddca98899c)" d="M 139.020102 273.312 
L 140.635533 273.312 
L 140.635533 218.782122 
L 139.020102 218.782122 
z
" style="fill:#1f77b4;"/>
   </g>
   <g id="patch_48">
    <path clip-path="url(#pddca98899c)" d="M 140.635533 273.312 
L 142.250964 273.312 
L 142.250964 211.965888 
L 140.635533 211.965888 
z
" style="fill:#1f77b4;"/>
   </g>
   <g id="patch_49">
    <path clip-path="url(#pddca98899c)" d="M 142.250964 273.312 
L 143.866395 273.312 
L 143.866395 225.598357 
L 142.250964 225.598357 
z
" style="fill:#1f77b4;"/>
   </g>
   <g id="patch_50">
    <path clip-path="url(#pddca98899c)" d="M 143.866395 273.312 
L 145.481826 273.312 
L 145.481826 211.34623 
L 143.866395 211.34623 
z
" style="fill:#1f77b4;"/>
   </g>
   <g id="patch_51">
    <path clip-path="url(#pddca98899c)" d="M 145.481826 273.312 
L 147.097256 273.312 
L 147.097256 207.008626 
L 145.481826 207.008626 
z
" style="fill:#1f77b4;"/>
   </g>
   <g id="patch_52">
    <path clip-path="url(#pddca98899c)" d="M 147.097256 273.312 
L 148.712687 273.312 
L 148.712687 209.487257 
L 147.097256 209.487257 
z
" style="fill:#1f77b4;"/>
   </g>
   <g id="patch_53">
    <path clip-path="url(#pddca98899c)" d="M 148.712687 273.312 
L 150.328118 273.312 
L 150.328118 203.910337 
L 148.712687 203.910337 
z
" style="fill:#1f77b4;"/>
   </g>
   <g id="patch_54">
    <path clip-path="url(#pddca98899c)" d="M 150.328118 273.312 
L 151.943549 273.312 
L 151.943549 198.953076 
L 150.328118 198.953076 
z
" style="fill:#1f77b4;"/>
   </g>
   <g id="patch_55">
    <path clip-path="url(#pddca98899c)" d="M 151.943549 273.312 
L 153.55898 273.312 
L 153.55898 210.106914 
L 151.943549 210.106914 
z
" style="fill:#1f77b4;"/>
   </g>
   <g id="patch_56">
    <path clip-path="url(#pddca98899c)" d="M 153.55898 273.312 
L 155.17441 273.312 
L 155.17441 214.444518 
L 153.55898 214.444518 
z
" style="fill:#1f77b4;"/>
   </g>
   <g id="patch_57">
    <path clip-path="url(#pddca98899c)" d="M 155.17441 273.312 
L 156.789841 273.312 
L 156.789841 193.995814 
L 155.17441 193.995814 
z
" style="fill:#1f77b4;"/>
   </g>
   <g id="patch_58">
    <path clip-path="url(#pddca98899c)" d="M 156.789841 273.312 
L 158.405272 273.312 
L 158.405272 191.517183 
L 156.789841 191.517183 
z
" style="fill:#1f77b4;"/>
   </g>
   <g id="patch_59">
    <path clip-path="url(#pddca98899c)" d="M 158.405272 273.312 
L 160.020703 273.312 
L 160.020703 199.572733 
L 158.405272 199.572733 
z
" style="fill:#1f77b4;"/>
   </g>
   <g id="patch_60">
    <path clip-path="url(#pddca98899c)" d="M 160.020703 273.312 
L 161.636134 273.312 
L 161.636134 208.867599 
L 160.020703 208.867599 
z
" style="fill:#1f77b4;"/>
   </g>
   <g id="patch_61">
    <path clip-path="url(#pddca98899c)" d="M 161.636134 273.312 
L 163.251564 273.312 
L 163.251564 194.615472 
L 161.636134 194.615472 
z
" style="fill:#1f77b4;"/>
   </g>
   <g id="patch_62">
    <path clip-path="url(#pddca98899c)" d="M 163.251564 273.312 
L 164.866995 273.312 
L 164.866995 198.333418 
L 163.251564 198.333418 
z
" style="fill:#1f77b4;"/>
   </g>
   <g id="patch_63">
    <path clip-path="url(#pddca98899c)" d="M 164.866995 273.312 
L 166.482426 273.312 
L 166.482426 205.149653 
L 164.866995 205.149653 
z
" style="fill:#1f77b4;"/>
   </g>
   <g id="patch_64">
    <path clip-path="url(#pddca98899c)" d="M 166.482426 273.312 
L 168.097857 273.312 
L 168.097857 198.953076 
L 166.482426 198.953076 
z
" style="fill:#1f77b4;"/>
   </g>
   <g id="patch_65">
    <path clip-path="url(#pddca98899c)" d="M 168.097857 273.312 
L 169.713288 273.312 
L 169.713288 198.953076 
L 168.097857 198.953076 
z
" style="fill:#1f77b4;"/>
   </g>
   <g id="patch_66">
    <path clip-path="url(#pddca98899c)" d="M 169.713288 273.312 
L 171.328718 273.312 
L 171.328718 210.106914 
L 169.713288 210.106914 
z
" style="fill:#1f77b4;"/>
   </g>
   <g id="patch_67">
    <path clip-path="url(#pddca98899c)" d="M 171.328718 273.312 
L 172.944149 273.312 
L 172.944149 193.995814 
L 171.328718 193.995814 
z
" style="fill:#1f77b4;"/>
   </g>
   <g id="patch_68">
    <path clip-path="url(#pddca98899c)" d="M 172.944149 273.312 
L 174.55958 273.312 
L 174.55958 187.799237 
L 172.944149 187.799237 
z
" style="fill:#1f77b4;"/>
   </g>
   <g id="patch_69">
    <path clip-path="url(#pddca98899c)" d="M 174.55958 273.312 
L 176.175011 273.312 
L 176.175011 190.897526 
L 174.55958 190.897526 
z
" style="fill:#1f77b4;"/>
   </g>
   <g id="patch_70">
    <path clip-path="url(#pddca98899c)" d="M 176.175011 273.312 
L 177.790442 273.312 
L 177.790442 192.756499 
L 176.175011 192.756499 
z
" style="fill:#1f77b4;"/>
   </g>
   <g id="patch_71">
    <path clip-path="url(#pddca98899c)" d="M 177.790442 273.312 
L 179.405872 273.312 
L 179.405872 176.025741 
L 177.790442 176.025741 
z
" style="fill:#1f77b4;"/>
   </g>
   <g id="patch_72">
    <path clip-path="url(#pddca98899c)" d="M 179.405872 273.312 
L 181.021303 273.312 
L 181.021303 202.051364 
L 179.405872 202.051364 
z
" style="fill:#1f77b4;"/>
   </g>
   <g id="patch_73">
    <path clip-path="url(#pddca98899c)" d="M 181.021303 273.312 
L 182.636734 273.312 
L 182.636734 181.60266 
L 181.021303 181.60266 
z
" style="fill:#1f77b4;"/>
   </g>
   <g id="patch_74">
    <path clip-path="url(#pddca98899c)" d="M 182.636734 273.312 
L 184.252165 273.312 
L 184.252165 193.376156 
L 182.636734 193.376156 
z
" style="fill:#1f77b4;"/>
   </g>
   <g id="patch_75">
    <path clip-path="url(#pddca98899c)" d="M 184.252165 273.312 
L 185.867596 273.312 
L 185.867596 176.645399 
L 184.252165 176.645399 
z
" style="fill:#1f77b4;"/>
   </g>
   <g id="patch_76">
    <path clip-path="url(#pddca98899c)" d="M 185.867596 273.312 
L 187.483026 273.312 
L 187.483026 180.363345 
L 185.867596 180.363345 
z
" style="fill:#1f77b4;"/>
   </g>
   <g id="patch_77">
    <path clip-path="url(#pddca98899c)" d="M 187.483026 273.312 
L 189.098457 273.312 
L 189.098457 166.730875 
L 187.483026 166.730875 
z
" style="fill:#1f77b4;"/>
   </g>
   <g id="patch_78">
    <path clip-path="url(#pddca98899c)" d="M 189.098457 273.312 
L 190.713888 273.312 
L 190.713888 179.743687 
L 189.098457 179.743687 
z
" style="fill:#1f77b4;"/>
   </g>
   <g id="patch_79">
    <path clip-path="url(#pddca98899c)" d="M 190.713888 273.312 
L 192.329319 273.312 
L 192.329319 188.418895 
L 190.713888 188.418895 
z
" style="fill:#1f77b4;"/>
   </g>
   <g id="patch_80">
    <path clip-path="url(#pddca98899c)" d="M 192.329319 273.312 
L 193.944749 273.312 
L 193.944749 179.743687 
L 192.329319 179.743687 
z
" style="fill:#1f77b4;"/>
   </g>
   <g id="patch_81">
    <path clip-path="url(#pddca98899c)" d="M 193.944749 273.312 
L 195.56018 273.312 
L 195.56018 185.940264 
L 193.944749 185.940264 
z
" style="fill:#1f77b4;"/>
   </g>
   <g id="patch_82">
    <path clip-path="url(#pddca98899c)" d="M 195.56018 273.312 
L 197.175611 273.312 
L 197.175611 166.111218 
L 195.56018 166.111218 
z
" style="fill:#1f77b4;"/>
   </g>
   <g id="patch_83">
    <path clip-path="url(#pddca98899c)" d="M 197.175611 273.312 
L 198.791042 273.312 
L 198.791042 171.688137 
L 197.175611 171.688137 
z
" style="fill:#1f77b4;"/>
   </g>
   <g id="patch_84">
    <path clip-path="url(#pddca98899c)" d="M 198.791042 273.312 
L 200.406473 273.312 
L 200.406473 180.983002 
L 198.791042 180.983002 
z
" style="fill:#1f77b4;"/>
   </g>
   <g id="patch_85">
    <path clip-path="url(#pddca98899c)" d="M 200.406473 273.312 
L 202.021903 273.312 
L 202.021903 167.970191 
L 200.406473 167.970191 
z
" style="fill:#1f77b4;"/>
   </g>
   <g id="patch_86">
    <path clip-path="url(#pddca98899c)" d="M 202.021903 273.312 
L 203.637334 273.312 
L 203.637334 155.577037 
L 202.021903 155.577037 
z
" style="fill:#1f77b4;"/>
   </g>
   <g id="patch_87">
    <path clip-path="url(#pddca98899c)" d="M 203.637334 273.312 
L 205.252765 273.312 
L 205.252765 169.209506 
L 203.637334 169.209506 
z
" style="fill:#1f77b4;"/>
   </g>
   <g id="patch_88">
    <path clip-path="url(#pddca98899c)" d="M 205.252765 273.312 
L 206.868196 273.312 
L 206.868196 161.153956 
L 205.252765 161.153956 
z
" style="fill:#1f77b4;"/>
   </g>
   <g id="patch_89">
    <path clip-path="url(#pddca98899c)" d="M 206.868196 273.312 
L 208.483627 273.312 
L 208.483627 165.49156 
L 206.868196 165.49156 
z
" style="fill:#1f77b4;"/>
   </g>
   <g id="patch_90">
    <path clip-path="url(#pddca98899c)" d="M 208.483627 273.312 
L 210.099057 273.312 
L 210.099057 167.350533 
L 208.483627 167.350533 
z
" style="fill:#1f77b4;"/>
   </g>
   <g id="patch_91">
    <path clip-path="url(#pddca98899c)" d="M 210.099057 273.312 
L 211.714488 273.312 
L 211.714488 166.730875 
L 210.099057 166.730875 
z
" style="fill:#1f77b4;"/>
   </g>
   <g id="patch_92">
    <path clip-path="url(#pddca98899c)" d="M 211.714488 273.312 
L 213.329919 273.312 
L 213.329919 166.730875 
L 211.714488 166.730875 
z
" style="fill:#1f77b4;"/>
   </g>
   <g id="patch_93">
    <path clip-path="url(#pddca98899c)" d="M 213.329919 273.312 
L 214.94535 273.312 
L 214.94535 151.239433 
L 213.329919 151.239433 
z
" style="fill:#1f77b4;"/>
   </g>
   <g id="patch_94">
    <path clip-path="url(#pddca98899c)" d="M 214.94535 273.312 
L 216.560781 273.312 
L 216.560781 151.85909 
L 214.94535 151.85909 
z
" style="fill:#1f77b4;"/>
   </g>
   <g id="patch_95">
    <path clip-path="url(#pddca98899c)" d="M 216.560781 273.312 
L 218.176211 273.312 
L 218.176211 158.675325 
L 216.560781 158.675325 
z
" style="fill:#1f77b4;"/>
   </g>
   <g id="patch_96">
    <path clip-path="url(#pddca98899c)" d="M 218.176211 273.312 
L 219.791642 273.312 
L 219.791642 169.829164 
L 218.176211 169.829164 
z
" style="fill:#1f77b4;"/>
   </g>
   <g id="patch_97">
    <path clip-path="url(#pddca98899c)" d="M 219.791642 273.312 
L 221.407073 273.312 
L 221.407073 153.098406 
L 219.791642 153.098406 
z
" style="fill:#1f77b4;"/>
   </g>
   <g id="patch_98">
    <path clip-path="url(#pddca98899c)" d="M 221.407073 273.312 
L 223.022504 273.312 
L 223.022504 137.606963 
L 221.407073 137.606963 
z
" style="fill:#1f77b4;"/>
   </g>
   <g id="patch_99">
    <path clip-path="url(#pddca98899c)" d="M 223.022504 273.312 
L 224.637935 273.312 
L 224.637935 157.43601 
L 223.022504 157.43601 
z
" style="fill:#1f77b4;"/>
   </g>
   <g id="patch_100">
    <path clip-path="url(#pddca98899c)" d="M 224.637935 273.312 
L 226.253365 273.312 
L 226.253365 151.239433 
L 224.637935 151.239433 
z
" style="fill:#1f77b4;"/>
   </g>
   <g id="patch_101">
    <path clip-path="url(#pddca98899c)" d="M 226.253365 273.312 
L 227.868796 273.312 
L 227.868796 143.183883 
L 226.253365 143.183883 
z
" style="fill:#1f77b4;"/>
   </g>
   <g id="patch_102">
    <path clip-path="url(#pddca98899c)" d="M 227.868796 273.312 
L 229.484227 273.312 
L 229.484227 161.773614 
L 227.868796 161.773614 
z
" style="fill:#1f77b4;"/>
   </g>
   <g id="patch_103">
    <path clip-path="url(#pddca98899c)" d="M 229.484227 273.312 
L 231.099658 273.312 
L 231.099658 163.632587 
L 229.484227 163.632587 
z
" style="fill:#1f77b4;"/>
   </g>
   <g id="patch_104">
    <path clip-path="url(#pddca98899c)" d="M 231.099658 273.312 
L 232.715089 273.312 
L 232.715089 153.718064 
L 231.099658 153.718064 
z
" style="fill:#1f77b4;"/>
   </g>
   <g id="patch_105">
    <path clip-path="url(#pddca98899c)" d="M 232.715089 273.312 
L 234.330519 273.312 
L 234.330519 148.141144 
L 232.715089 148.141144 
z
" style="fill:#1f77b4;"/>
   </g>
   <g id="patch_106">
    <path clip-path="url(#pddca98899c)" d="M 234.330519 273.312 
L 235.94595 273.312 
L 235.94595 147.521487 
L 234.330519 147.521487 
z
" style="fill:#1f77b4;"/>
   </g>
   <g id="patch_107">
    <path clip-path="url(#pddca98899c)" d="M 235.94595 273.312 
L 237.561381 273.312 
L 237.561381 149.38046 
L 235.94595 149.38046 
z
" style="fill:#1f77b4;"/>
   </g>
   <g id="patch_108">
    <path clip-path="url(#pddca98899c)" d="M 237.561381 273.312 
L 239.176812 273.312 
L 239.176812 153.718064 
L 237.561381 153.718064 
z
" style="fill:#1f77b4;"/>
   </g>
   <g id="patch_109">
    <path clip-path="url(#pddca98899c)" d="M 239.176812 273.312 
L 240.792243 273.312 
L 240.792243 138.226621 
L 239.176812 138.226621 
z
" style="fill:#1f77b4;"/>
   </g>
   <g id="patch_110">
    <path clip-path="url(#pddca98899c)" d="M 240.792243 273.312 
L 242.407673 273.312 
L 242.407673 141.32491 
L 240.792243 141.32491 
z
" style="fill:#1f77b4;"/>
   </g>
   <g id="patch_111">
    <path clip-path="url(#pddca98899c)" d="M 242.407673 273.312 
L 244.023104 273.312 
L 244.023104 135.74799 
L 242.407673 135.74799 
z
" style="fill:#1f77b4;"/>
   </g>
   <g id="patch_112">
    <path clip-path="url(#pddca98899c)" d="M 244.023104 273.312 
L 245.638535 273.312 
L 245.638535 127.69244 
L 244.023104 127.69244 
z
" style="fill:#1f77b4;"/>
   </g>
   <g id="patch_113">
    <path clip-path="url(#pddca98899c)" d="M 245.638535 273.312 
L 247.253966 273.312 
L 247.253966 136.367648 
L 245.638535 136.367648 
z
" style="fill:#1f77b4;"/>
   </g>
   <g id="patch_114">
    <path clip-path="url(#pddca98899c)" d="M 247.253966 273.312 
L 248.869397 273.312 
L 248.869397 124.594152 
L 247.253966 124.594152 
z
" style="fill:#1f77b4;"/>
   </g>
   <g id="patch_115">
    <path clip-path="url(#pddca98899c)" d="M 248.869397 273.312 
L 250.484827 273.312 
L 250.484827 140.085594 
L 248.869397 140.085594 
z
" style="fill:#1f77b4;"/>
   </g>
   <g id="patch_116">
    <path clip-path="url(#pddca98899c)" d="M 250.484827 273.312 
L 252.100258 273.312 
L 252.100258 138.226621 
L 250.484827 138.226621 
z
" style="fill:#1f77b4;"/>
   </g>
   <g id="patch_117">
    <path clip-path="url(#pddca98899c)" d="M 252.100258 273.312 
L 253.715689 273.312 
L 253.715689 132.649702 
L 252.100258 132.649702 
z
" style="fill:#1f77b4;"/>
   </g>
   <g id="patch_118">
    <path clip-path="url(#pddca98899c)" d="M 253.715689 273.312 
L 255.33112 273.312 
L 255.33112 120.256548 
L 253.715689 120.256548 
z
" style="fill:#1f77b4;"/>
   </g>
   <g id="patch_119">
    <path clip-path="url(#pddca98899c)" d="M 255.33112 273.312 
L 256.946551 273.312 
L 256.946551 134.508675 
L 255.33112 134.508675 
z
" style="fill:#1f77b4;"/>
   </g>
   <g id="patch_120">
    <path clip-path="url(#pddca98899c)" d="M 256.946551 273.312 
L 258.561981 273.312 
L 258.561981 130.171071 
L 256.946551 130.171071 
z
" style="fill:#1f77b4;"/>
   </g>
   <g id="patch_121">
    <path clip-path="url(#pddca98899c)" d="M 258.561981 273.312 
L 260.177412 273.312 
L 260.177412 110.342024 
L 258.561981 110.342024 
z
" style="fill:#1f77b4;"/>
   </g>
   <g id="patch_122">
    <path clip-path="url(#pddca98899c)" d="M 260.177412 273.312 
L 261.792843 273.312 
L 261.792843 122.735178 
L 260.177412 122.735178 
z
" style="fill:#1f77b4;"/>
   </g>
   <g id="patch_123">
    <path clip-path="url(#pddca98899c)" d="M 261.792843 273.312 
L 263.408274 273.312 
L 263.408274 119.017232 
L 261.792843 119.017232 
z
" style="fill:#1f77b4;"/>
   </g>
   <g id="patch_124">
    <path clip-path="url(#pddca98899c)" d="M 263.408274 273.312 
L 265.023704 273.312 
L 265.023704 127.69244 
L 263.408274 127.69244 
z
" style="fill:#1f77b4;"/>
   </g>
   <g id="patch_125">
    <path clip-path="url(#pddca98899c)" d="M 265.023704 273.312 
L 266.639135 273.312 
L 266.639135 112.820655 
L 265.023704 112.820655 
z
" style="fill:#1f77b4;"/>
   </g>
   <g id="patch_126">
    <path clip-path="url(#pddca98899c)" d="M 266.639135 273.312 
L 268.254566 273.312 
L 268.254566 118.397575 
L 266.639135 118.397575 
z
" style="fill:#1f77b4;"/>
   </g>
   <g id="patch_127">
    <path clip-path="url(#pddca98899c)" d="M 268.254566 273.312 
L 269.869997 273.312 
L 269.869997 136.367648 
L 268.254566 136.367648 
z
" style="fill:#1f77b4;"/>
   </g>
   <g id="patch_128">
    <path clip-path="url(#pddca98899c)" d="M 269.869997 273.312 
L 271.485428 273.312 
L 271.485428 104.145447 
L 269.869997 104.145447 
z
" style="fill:#1f77b4;"/>
   </g>
   <g id="patch_129">
    <path clip-path="url(#pddca98899c)" d="M 271.485428 273.312 
L 273.100858 273.312 
L 273.100858 107.863394 
L 271.485428 107.863394 
z
" style="fill:#1f77b4;"/>
   </g>
   <g id="patch_130">
    <path clip-path="url(#pddca98899c)" d="M 273.100858 273.312 
L 274.716289 273.312 
L 274.716289 127.072782 
L 273.100858 127.072782 
z
" style="fill:#1f77b4;"/>
   </g>
   <g id="patch_131">
    <path clip-path="url(#pddca98899c)" d="M 274.716289 273.312 
L 276.33172 273.312 
L 276.33172 138.226621 
L 274.716289 138.226621 
z
" style="fill:#1f77b4;"/>
   </g>
   <g id="patch_132">
    <path clip-path="url(#pddca98899c)" d="M 276.33172 273.312 
L 277.947151 273.312 
L 277.947151 91.132636 
L 276.33172 91.132636 
z
" style="fill:#1f77b4;"/>
   </g>
   <g id="patch_133">
    <path clip-path="url(#pddca98899c)" d="M 277.947151 273.312 
L 279.562582 273.312 
L 279.562582 109.722367 
L 277.947151 109.722367 
z
" style="fill:#1f77b4;"/>
   </g>
   <g id="patch_134">
    <path clip-path="url(#pddca98899c)" d="M 279.562582 273.312 
L 281.178012 273.312 
L 281.178012 96.089897 
L 279.562582 96.089897 
z
" style="fill:#1f77b4;"/>
   </g>
   <g id="patch_135">
    <path clip-path="url(#pddca98899c)" d="M 281.178012 273.312 
L 282.793443 273.312 
L 282.793443 103.52579 
L 281.178012 103.52579 
z
" style="fill:#1f77b4;"/>
   </g>
   <g id="patch_136">
    <path clip-path="url(#pddca98899c)" d="M 282.793443 273.312 
L 284.408874 273.312 
L 284.408874 120.256548 
L 282.793443 120.256548 
z
" style="fill:#1f77b4;"/>
   </g>
   <g id="patch_137">
    <path clip-path="url(#pddca98899c)" d="M 284.408874 273.312 
L 286.024305 273.312 
L 286.024305 106.004421 
L 284.408874 106.004421 
z
" style="fill:#1f77b4;"/>
   </g>
   <g id="patch_138">
    <path clip-path="url(#pddca98899c)" d="M 286.024305 273.312 
L 287.639736 273.312 
L 287.639736 92.371951 
L 286.024305 92.371951 
z
" style="fill:#1f77b4;"/>
   </g>
   <g id="patch_139">
    <path clip-path="url(#pddca98899c)" d="M 287.639736 273.312 
L 289.255166 273.312 
L 289.255166 109.102709 
L 287.639736 109.102709 
z
" style="fill:#1f77b4;"/>
   </g>
   <g id="patch_140">
    <path clip-path="url(#pddca98899c)" d="M 289.255166 273.312 
L 290.870597 273.312 
L 290.870597 92.991609 
L 289.255166 92.991609 
z
" style="fill:#1f77b4;"/>
   </g>
   <g id="patch_141">
    <path clip-path="url(#pddca98899c)" d="M 290.870597 273.312 
L 292.486028 273.312 
L 292.486028 106.624078 
L 290.870597 106.624078 
z
" style="fill:#1f77b4;"/>
   </g>
   <g id="patch_142">
    <path clip-path="url(#pddca98899c)" d="M 292.486028 273.312 
L 294.101459 273.312 
L 294.101459 104.145447 
L 292.486028 104.145447 
z
" style="fill:#1f77b4;"/>
   </g>
   <g id="patch_143">
    <path clip-path="url(#pddca98899c)" d="M 294.101459 273.312 
L 295.71689 273.312 
L 295.71689 107.243736 
L 294.101459 107.243736 
z
" style="fill:#1f77b4;"/>
   </g>
   <g id="patch_144">
    <path clip-path="url(#pddca98899c)" d="M 295.71689 273.312 
L 297.33232 273.312 
L 297.33232 90.512978 
L 295.71689 90.512978 
z
" style="fill:#1f77b4;"/>
   </g>
   <g id="patch_145">
    <path clip-path="url(#pddca98899c)" d="M 297.33232 273.312 
L 298.947751 273.312 
L 298.947751 101.047159 
L 297.33232 101.047159 
z
" style="fill:#1f77b4;"/>
   </g>
   <g id="patch_146">
    <path clip-path="url(#pddca98899c)" d="M 298.947751 273.312 
L 300.563182 273.312 
L 300.563182 94.230924 
L 298.947751 94.230924 
z
" style="fill:#1f77b4;"/>
   </g>
   <g id="patch_147">
    <path clip-path="url(#pddca98899c)" d="M 300.563182 273.312 
L 302.178613 273.312 
L 302.178613 99.807844 
L 300.563182 99.807844 
z
" style="fill:#1f77b4;"/>
   </g>
   <g id="patch_148">
    <path clip-path="url(#pddca98899c)" d="M 302.178613 273.312 
L 303.794044 273.312 
L 303.794044 92.371951 
L 302.178613 92.371951 
z
" style="fill:#1f77b4;"/>
   </g>
   <g id="patch_149">
    <path clip-path="url(#pddca98899c)" d="M 303.794044 273.312 
L 305.409474 273.312 
L 305.409474 95.47024 
L 303.794044 95.47024 
z
" style="fill:#1f77b4;"/>
   </g>
   <g id="patch_150">
    <path clip-path="url(#pddca98899c)" d="M 305.409474 273.312 
L 307.024905 273.312 
L 307.024905 93.611267 
L 305.409474 93.611267 
z
" style="fill:#1f77b4;"/>
   </g>
   <g id="patch_151">
    <path clip-path="url(#pddca98899c)" d="M 307.024905 273.312 
L 308.640336 273.312 
L 308.640336 94.850582 
L 307.024905 94.850582 
z
" style="fill:#1f77b4;"/>
   </g>
   <g id="patch_152">
    <path clip-path="url(#pddca98899c)" d="M 308.640336 273.312 
L 310.255767 273.312 
L 310.255767 93.611267 
L 308.640336 93.611267 
z
" style="fill:#1f77b4;"/>
   </g>
   <g id="patch_153">
    <path clip-path="url(#pddca98899c)" d="M 310.255767 273.312 
L 311.871198 273.312 
L 311.871198 71.923247 
L 310.255767 71.923247 
z
" style="fill:#1f77b4;"/>
   </g>
   <g id="patch_154">
    <path clip-path="url(#pddca98899c)" d="M 311.871198 273.312 
L 313.486628 273.312 
L 313.486628 68.824958 
L 311.871198 68.824958 
z
" style="fill:#1f77b4;"/>
   </g>
   <g id="patch_155">
    <path clip-path="url(#pddca98899c)" d="M 313.486628 273.312 
L 315.102059 273.312 
L 315.102059 81.83777 
L 313.486628 81.83777 
z
" style="fill:#1f77b4;"/>
   </g>
   <g id="patch_156">
    <path clip-path="url(#pddca98899c)" d="M 315.102059 273.312 
L 316.71749 273.312 
L 316.71749 68.824958 
L 315.102059 68.824958 
z
" style="fill:#1f77b4;"/>
   </g>
   <g id="patch_157">
    <path clip-path="url(#pddca98899c)" d="M 316.71749 273.312 
L 318.332921 273.312 
L 318.332921 96.089897 
L 316.71749 96.089897 
z
" style="fill:#1f77b4;"/>
   </g>
   <g id="patch_158">
    <path clip-path="url(#pddca98899c)" d="M 318.332921 273.312 
L 319.948352 273.312 
L 319.948352 91.752293 
L 318.332921 91.752293 
z
" style="fill:#1f77b4;"/>
   </g>
   <g id="patch_159">
    <path clip-path="url(#pddca98899c)" d="M 319.948352 273.312 
L 321.563782 273.312 
L 321.563782 91.132636 
L 319.948352 91.132636 
z
" style="fill:#1f77b4;"/>
   </g>
   <g id="patch_160">
    <path clip-path="url(#pddca98899c)" d="M 321.563782 273.312 
L 323.179213 273.312 
L 323.179213 57.051462 
L 321.563782 57.051462 
z
" style="fill:#1f77b4;"/>
   </g>
   <g id="patch_161">
    <path clip-path="url(#pddca98899c)" d="M 323.179213 273.312 
L 324.794644 273.312 
L 324.794644 69.444616 
L 323.179213 69.444616 
z
" style="fill:#1f77b4;"/>
   </g>
   <g id="patch_162">
    <path clip-path="url(#pddca98899c)" d="M 324.794644 273.312 
L 326.410075 273.312 
L 326.410075 79.359139 
L 324.794644 79.359139 
z
" style="fill:#1f77b4;"/>
   </g>
   <g id="patch_163">
    <path clip-path="url(#pddca98899c)" d="M 326.410075 273.312 
L 328.025506 273.312 
L 328.025506 75.641193 
L 326.410075 75.641193 
z
" style="fill:#1f77b4;"/>
   </g>
   <g id="patch_164">
    <path clip-path="url(#pddca98899c)" d="M 328.025506 273.312 
L 329.640936 273.312 
L 329.640936 70.683932 
L 328.025506 70.683932 
z
" style="fill:#1f77b4;"/>
   </g>
   <g id="patch_165">
    <path clip-path="url(#pddca98899c)" d="M 329.640936 273.312 
L 331.256367 273.312 
L 331.256367 72.542905 
L 329.640936 72.542905 
z
" style="fill:#1f77b4;"/>
   </g>
   <g id="patch_166">
    <path clip-path="url(#pddca98899c)" d="M 331.256367 273.312 
L 332.871798 273.312 
L 332.871798 81.83777 
L 331.256367 81.83777 
z
" style="fill:#1f77b4;"/>
   </g>
   <g id="patch_167">
    <path clip-path="url(#pddca98899c)" d="M 332.871798 273.312 
L 334.487229 273.312 
L 334.487229 63.867697 
L 332.871798 63.867697 
z
" style="fill:#1f77b4;"/>
   </g>
   <g id="patch_168">
    <path clip-path="url(#pddca98899c)" d="M 334.487229 273.312 
L 336.102659 273.312 
L 336.102659 55.812147 
L 334.487229 55.812147 
z
" style="fill:#1f77b4;"/>
   </g>
   <g id="patch_169">
    <path clip-path="url(#pddca98899c)" d="M 336.102659 273.312 
L 337.71809 273.312 
L 337.71809 73.162562 
L 336.102659 73.162562 
z
" style="fill:#1f77b4;"/>
   </g>
   <g id="patch_170">
    <path clip-path="url(#pddca98899c)" d="M 337.71809 273.312 
L 339.333521 273.312 
L 339.333521 79.978797 
L 337.71809 79.978797 
z
" style="fill:#1f77b4;"/>
   </g>
   <g id="patch_171">
    <path clip-path="url(#pddca98899c)" d="M 339.333521 273.312 
L 340.948952 273.312 
L 340.948952 71.923247 
L 339.333521 71.923247 
z
" style="fill:#1f77b4;"/>
   </g>
   <g id="patch_172">
    <path clip-path="url(#pddca98899c)" d="M 340.948952 273.312 
L 342.564383 273.312 
L 342.564383 52.0942 
L 340.948952 52.0942 
z
" style="fill:#1f77b4;"/>
   </g>
   <g id="patch_173">
    <path clip-path="url(#pddca98899c)" d="M 342.564383 273.312 
L 344.179813 273.312 
L 344.179813 57.051462 
L 342.564383 57.051462 
z
" style="fill:#1f77b4;"/>
   </g>
   <g id="patch_174">
    <path clip-path="url(#pddca98899c)" d="M 344.179813 273.312 
L 345.795244 273.312 
L 345.795244 50.235227 
L 344.179813 50.235227 
z
" style="fill:#1f77b4;"/>
   </g>
   <g id="patch_175">
    <path clip-path="url(#pddca98899c)" d="M 345.795244 273.312 
L 347.410675 273.312 
L 347.410675 62.008724 
L 345.795244 62.008724 
z
" style="fill:#1f77b4;"/>
   </g>
   <g id="patch_176">
    <path clip-path="url(#pddca98899c)" d="M 347.410675 273.312 
L 349.026106 273.312 
L 349.026106 41.56002 
L 347.410675 41.56002 
z
" style="fill:#1f77b4;"/>
   </g>
   <g id="patch_177">
    <path clip-path="url(#pddca98899c)" d="M 349.026106 273.312 
L 350.641537 273.312 
L 350.641537 59.530093 
L 349.026106 59.530093 
z
" style="fill:#1f77b4;"/>
   </g>
   <g id="patch_178">
    <path clip-path="url(#pddca98899c)" d="M 350.641537 273.312 
L 352.256967 273.312 
L 352.256967 53.953174 
L 350.641537 53.953174 
z
" style="fill:#1f77b4;"/>
   </g>
   <g id="patch_179">
    <path clip-path="url(#pddca98899c)" d="M 352.256967 273.312 
L 353.872398 273.312 
L 353.872398 55.192489 
L 352.256967 55.192489 
z
" style="fill:#1f77b4;"/>
   </g>
   <g id="patch_180">
    <path clip-path="url(#pddca98899c)" d="M 353.872398 273.312 
L 355.487829 273.312 
L 355.487829 70.683932 
L 353.872398 70.683932 
z
" style="fill:#1f77b4;"/>
   </g>
   <g id="patch_181">
    <path clip-path="url(#pddca98899c)" d="M 355.487829 273.312 
L 357.10326 273.312 
L 357.10326 53.333516 
L 355.487829 53.333516 
z
" style="fill:#1f77b4;"/>
   </g>
   <g id="patch_182">
    <path clip-path="url(#pddca98899c)" d="M 357.10326 273.312 
L 358.718691 273.312 
L 358.718691 60.149751 
L 357.10326 60.149751 
z
" style="fill:#1f77b4;"/>
   </g>
   <g id="patch_183">
    <path clip-path="url(#pddca98899c)" d="M 358.718691 273.312 
L 360.334121 273.312 
L 360.334121 69.444616 
L 358.718691 69.444616 
z
" style="fill:#1f77b4;"/>
   </g>
   <g id="patch_184">
    <path clip-path="url(#pddca98899c)" d="M 360.334121 273.312 
L 361.949552 273.312 
L 361.949552 58.910435 
L 360.334121 58.910435 
z
" style="fill:#1f77b4;"/>
   </g>
   <g id="patch_185">
    <path clip-path="url(#pddca98899c)" d="M 361.949552 273.312 
L 363.564983 273.312 
L 363.564983 39.081389 
L 361.949552 39.081389 
z
" style="fill:#1f77b4;"/>
   </g>
   <g id="patch_186">
    <path clip-path="url(#pddca98899c)" d="M 363.564983 273.312 
L 365.180414 273.312 
L 365.180414 29.166866 
L 363.564983 29.166866 
z
" style="fill:#1f77b4;"/>
   </g>
   <g id="patch_187">
    <path clip-path="url(#pddca98899c)" d="M 365.180414 273.312 
L 366.795845 273.312 
L 366.795845 71.923247 
L 365.180414 71.923247 
z
" style="fill:#1f77b4;"/>
   </g>
   <g id="patch_188">
    <path clip-path="url(#pddca98899c)" d="M 366.795845 273.312 
L 368.411275 273.312 
L 368.411275 36.602758 
L 366.795845 36.602758 
z
" style="fill:#1f77b4;"/>
   </g>
   <g id="patch_189">
    <path clip-path="url(#pddca98899c)" d="M 368.411275 273.312 
L 370.026706 273.312 
L 370.026706 45.897623 
L 368.411275 45.897623 
z
" style="fill:#1f77b4;"/>
   </g>
   <g id="patch_190">
    <path clip-path="url(#pddca98899c)" d="M 370.026706 273.312 
L 371.642137 273.312 
L 371.642137 55.192489 
L 370.026706 55.192489 
z
" style="fill:#1f77b4;"/>
   </g>
   <g id="patch_191">
    <path clip-path="url(#pddca98899c)" d="M 371.642137 273.312 
L 373.257568 273.312 
L 373.257568 39.081389 
L 371.642137 39.081389 
z
" style="fill:#1f77b4;"/>
   </g>
   <g id="patch_192">
    <path clip-path="url(#pddca98899c)" d="M 373.257568 273.312 
L 374.872999 273.312 
L 374.872999 53.953174 
L 373.257568 53.953174 
z
" style="fill:#1f77b4;"/>
   </g>
   <g id="patch_193">
    <path clip-path="url(#pddca98899c)" d="M 374.872999 273.312 
L 376.488429 273.312 
L 376.488429 40.940362 
L 374.872999 40.940362 
z
" style="fill:#1f77b4;"/>
   </g>
   <g id="patch_194">
    <path clip-path="url(#pddca98899c)" d="M 376.488429 273.312 
L 378.10386 273.312 
L 378.10386 32.884812 
L 376.488429 32.884812 
z
" style="fill:#1f77b4;"/>
   </g>
   <g id="patch_195">
    <path clip-path="url(#pddca98899c)" d="M 378.10386 273.312 
L 379.719291 273.312 
L 379.719291 32.884812 
L 378.10386 32.884812 
z
" style="fill:#1f77b4;"/>
   </g>
   <g id="patch_196">
    <path clip-path="url(#pddca98899c)" d="M 379.719291 273.312 
L 381.334722 273.312 
L 381.334722 34.743785 
L 379.719291 34.743785 
z
" style="fill:#1f77b4;"/>
   </g>
   <g id="patch_197">
    <path clip-path="url(#pddca98899c)" d="M 381.334722 273.312 
L 382.950153 273.312 
L 382.950153 52.713858 
L 381.334722 52.713858 
z
" style="fill:#1f77b4;"/>
   </g>
   <g id="patch_198">
    <path clip-path="url(#pddca98899c)" d="M 382.950153 273.312 
L 384.565583 273.312 
L 384.565583 26.688235 
L 382.950153 26.688235 
z
" style="fill:#1f77b4;"/>
   </g>
   <g id="patch_199">
    <path clip-path="url(#pddca98899c)" d="M 384.565583 273.312 
L 386.181014 273.312 
L 386.181014 19.872 
L 384.565583 19.872 
z
" style="fill:#1f77b4;"/>
   </g>
   <g id="patch_200">
    <path clip-path="url(#pddca98899c)" d="M 386.181014 273.312 
L 387.796445 273.312 
L 387.796445 33.504469 
L 386.181014 33.504469 
z
" style="fill:#1f77b4;"/>
   </g>
   <g id="patch_201">
    <path clip-path="url(#pddca98899c)" d="M 387.796445 273.312 
L 389.411876 273.312 
L 389.411876 35.363443 
L 387.796445 35.363443 
z
" style="fill:#1f77b4;"/>
   </g>
   <g id="patch_202">
    <path clip-path="url(#pddca98899c)" d="M 389.411876 273.312 
L 391.027307 273.312 
L 391.027307 39.701046 
L 389.411876 39.701046 
z
" style="fill:#1f77b4;"/>
   </g>
   <g id="matplotlib.axis_1">
    <g id="xtick_1">
     <g id="line2d_1">
      <defs>
       <path d="M 0 0 
L 0 3.5 
" id="mc8648c1a4f" style="stroke:#000000;stroke-width:0.8;"/>
      </defs>
      <g>
       <use style="stroke:#000000;stroke-width:0.8;" x="66.376477" xlink:href="#mc8648c1a4f" y="273.312"/>
      </g>
     </g>
     <g id="text_1">
      <!-- 0.0 -->
      <g transform="translate(58.424915 287.910437)scale(0.1 -0.1)">
       <defs>
        <path d="M 2034 4250 
Q 1547 4250 1301 3770 
Q 1056 3291 1056 2328 
Q 1056 1369 1301 889 
Q 1547 409 2034 409 
Q 2525 409 2770 889 
Q 3016 1369 3016 2328 
Q 3016 3291 2770 3770 
Q 2525 4250 2034 4250 
z
M 2034 4750 
Q 2819 4750 3233 4129 
Q 3647 3509 3647 2328 
Q 3647 1150 3233 529 
Q 2819 -91 2034 -91 
Q 1250 -91 836 529 
Q 422 1150 422 2328 
Q 422 3509 836 4129 
Q 1250 4750 2034 4750 
z
" id="DejaVuSans-30" transform="scale(0.015625)"/>
        <path d="M 684 794 
L 1344 794 
L 1344 0 
L 684 0 
L 684 794 
z
" id="DejaVuSans-2e" transform="scale(0.015625)"/>
       </defs>
       <use xlink:href="#DejaVuSans-30"/>
       <use x="63.623047" xlink:href="#DejaVuSans-2e"/>
       <use x="95.410156" xlink:href="#DejaVuSans-30"/>
      </g>
     </g>
    </g>
    <g id="xtick_2">
     <g id="line2d_2">
      <g>
       <use style="stroke:#000000;stroke-width:0.8;" x="131.307386" xlink:href="#mc8648c1a4f" y="273.312"/>
      </g>
     </g>
     <g id="text_2">
      <!-- 0.2 -->
      <g transform="translate(123.355824 287.910437)scale(0.1 -0.1)">
       <defs>
        <path d="M 1228 531 
L 3431 531 
L 3431 0 
L 469 0 
L 469 531 
Q 828 903 1448 1529 
Q 2069 2156 2228 2338 
Q 2531 2678 2651 2914 
Q 2772 3150 2772 3378 
Q 2772 3750 2511 3984 
Q 2250 4219 1831 4219 
Q 1534 4219 1204 4116 
Q 875 4013 500 3803 
L 500 4441 
Q 881 4594 1212 4672 
Q 1544 4750 1819 4750 
Q 2544 4750 2975 4387 
Q 3406 4025 3406 3419 
Q 3406 3131 3298 2873 
Q 3191 2616 2906 2266 
Q 2828 2175 2409 1742 
Q 1991 1309 1228 531 
z
" id="DejaVuSans-32" transform="scale(0.015625)"/>
       </defs>
       <use xlink:href="#DejaVuSans-30"/>
       <use x="63.623047" xlink:href="#DejaVuSans-2e"/>
       <use x="95.410156" xlink:href="#DejaVuSans-32"/>
      </g>
     </g>
    </g>
    <g id="xtick_3">
     <g id="line2d_3">
      <g>
       <use style="stroke:#000000;stroke-width:0.8;" x="196.238295" xlink:href="#mc8648c1a4f" y="273.312"/>
      </g>
     </g>
     <g id="text_3">
      <!-- 0.4 -->
      <g transform="translate(188.286733 287.910437)scale(0.1 -0.1)">
       <defs>
        <path d="M 2419 4116 
L 825 1625 
L 2419 1625 
L 2419 4116 
z
M 2253 4666 
L 3047 4666 
L 3047 1625 
L 3713 1625 
L 3713 1100 
L 3047 1100 
L 3047 0 
L 2419 0 
L 2419 1100 
L 313 1100 
L 313 1709 
L 2253 4666 
z
" id="DejaVuSans-34" transform="scale(0.015625)"/>
       </defs>
       <use xlink:href="#DejaVuSans-30"/>
       <use x="63.623047" xlink:href="#DejaVuSans-2e"/>
       <use x="95.410156" xlink:href="#DejaVuSans-34"/>
      </g>
     </g>
    </g>
    <g id="xtick_4">
     <g id="line2d_4">
      <g>
       <use style="stroke:#000000;stroke-width:0.8;" x="261.169205" xlink:href="#mc8648c1a4f" y="273.312"/>
      </g>
     </g>
     <g id="text_4">
      <!-- 0.6 -->
      <g transform="translate(253.217642 287.910437)scale(0.1 -0.1)">
       <defs>
        <path d="M 2113 2584 
Q 1688 2584 1439 2293 
Q 1191 2003 1191 1497 
Q 1191 994 1439 701 
Q 1688 409 2113 409 
Q 2538 409 2786 701 
Q 3034 994 3034 1497 
Q 3034 2003 2786 2293 
Q 2538 2584 2113 2584 
z
M 3366 4563 
L 3366 3988 
Q 3128 4100 2886 4159 
Q 2644 4219 2406 4219 
Q 1781 4219 1451 3797 
Q 1122 3375 1075 2522 
Q 1259 2794 1537 2939 
Q 1816 3084 2150 3084 
Q 2853 3084 3261 2657 
Q 3669 2231 3669 1497 
Q 3669 778 3244 343 
Q 2819 -91 2113 -91 
Q 1303 -91 875 529 
Q 447 1150 447 2328 
Q 447 3434 972 4092 
Q 1497 4750 2381 4750 
Q 2619 4750 2861 4703 
Q 3103 4656 3366 4563 
z
" id="DejaVuSans-36" transform="scale(0.015625)"/>
       </defs>
       <use xlink:href="#DejaVuSans-30"/>
       <use x="63.623047" xlink:href="#DejaVuSans-2e"/>
       <use x="95.410156" xlink:href="#DejaVuSans-36"/>
      </g>
     </g>
    </g>
    <g id="xtick_5">
     <g id="line2d_5">
      <g>
       <use style="stroke:#000000;stroke-width:0.8;" x="326.100114" xlink:href="#mc8648c1a4f" y="273.312"/>
      </g>
     </g>
     <g id="text_5">
      <!-- 0.8 -->
      <g transform="translate(318.148551 287.910437)scale(0.1 -0.1)">
       <defs>
        <path d="M 2034 2216 
Q 1584 2216 1326 1975 
Q 1069 1734 1069 1313 
Q 1069 891 1326 650 
Q 1584 409 2034 409 
Q 2484 409 2743 651 
Q 3003 894 3003 1313 
Q 3003 1734 2745 1975 
Q 2488 2216 2034 2216 
z
M 1403 2484 
Q 997 2584 770 2862 
Q 544 3141 544 3541 
Q 544 4100 942 4425 
Q 1341 4750 2034 4750 
Q 2731 4750 3128 4425 
Q 3525 4100 3525 3541 
Q 3525 3141 3298 2862 
Q 3072 2584 2669 2484 
Q 3125 2378 3379 2068 
Q 3634 1759 3634 1313 
Q 3634 634 3220 271 
Q 2806 -91 2034 -91 
Q 1263 -91 848 271 
Q 434 634 434 1313 
Q 434 1759 690 2068 
Q 947 2378 1403 2484 
z
M 1172 3481 
Q 1172 3119 1398 2916 
Q 1625 2713 2034 2713 
Q 2441 2713 2670 2916 
Q 2900 3119 2900 3481 
Q 2900 3844 2670 4047 
Q 2441 4250 2034 4250 
Q 1625 4250 1398 4047 
Q 1172 3844 1172 3481 
z
" id="DejaVuSans-38" transform="scale(0.015625)"/>
       </defs>
       <use xlink:href="#DejaVuSans-30"/>
       <use x="63.623047" xlink:href="#DejaVuSans-2e"/>
       <use x="95.410156" xlink:href="#DejaVuSans-38"/>
      </g>
     </g>
    </g>
    <g id="xtick_6">
     <g id="line2d_6">
      <g>
       <use style="stroke:#000000;stroke-width:0.8;" x="391.031023" xlink:href="#mc8648c1a4f" y="273.312"/>
      </g>
     </g>
     <g id="text_6">
      <!-- 1.0 -->
      <g transform="translate(383.07946 287.910437)scale(0.1 -0.1)">
       <defs>
        <path d="M 794 531 
L 1825 531 
L 1825 4091 
L 703 3866 
L 703 4441 
L 1819 4666 
L 2450 4666 
L 2450 531 
L 3481 531 
L 3481 0 
L 794 0 
L 794 531 
z
" id="DejaVuSans-31" transform="scale(0.015625)"/>
       </defs>
       <use xlink:href="#DejaVuSans-31"/>
       <use x="63.623047" xlink:href="#DejaVuSans-2e"/>
       <use x="95.410156" xlink:href="#DejaVuSans-30"/>
      </g>
     </g>
    </g>
    <g id="text_7">
     <!-- Propagation direction -->
     <g transform="translate(175.221719 301.588562)scale(0.1 -0.1)">
      <defs>
       <path d="M 1259 4147 
L 1259 2394 
L 2053 2394 
Q 2494 2394 2734 2622 
Q 2975 2850 2975 3272 
Q 2975 3691 2734 3919 
Q 2494 4147 2053 4147 
L 1259 4147 
z
M 628 4666 
L 2053 4666 
Q 2838 4666 3239 4311 
Q 3641 3956 3641 3272 
Q 3641 2581 3239 2228 
Q 2838 1875 2053 1875 
L 1259 1875 
L 1259 0 
L 628 0 
L 628 4666 
z
" id="DejaVuSans-50" transform="scale(0.015625)"/>
       <path d="M 2631 2963 
Q 2534 3019 2420 3045 
Q 2306 3072 2169 3072 
Q 1681 3072 1420 2755 
Q 1159 2438 1159 1844 
L 1159 0 
L 581 0 
L 581 3500 
L 1159 3500 
L 1159 2956 
Q 1341 3275 1631 3429 
Q 1922 3584 2338 3584 
Q 2397 3584 2469 3576 
Q 2541 3569 2628 3553 
L 2631 2963 
z
" id="DejaVuSans-72" transform="scale(0.015625)"/>
       <path d="M 1959 3097 
Q 1497 3097 1228 2736 
Q 959 2375 959 1747 
Q 959 1119 1226 758 
Q 1494 397 1959 397 
Q 2419 397 2687 759 
Q 2956 1122 2956 1747 
Q 2956 2369 2687 2733 
Q 2419 3097 1959 3097 
z
M 1959 3584 
Q 2709 3584 3137 3096 
Q 3566 2609 3566 1747 
Q 3566 888 3137 398 
Q 2709 -91 1959 -91 
Q 1206 -91 779 398 
Q 353 888 353 1747 
Q 353 2609 779 3096 
Q 1206 3584 1959 3584 
z
" id="DejaVuSans-6f" transform="scale(0.015625)"/>
       <path d="M 1159 525 
L 1159 -1331 
L 581 -1331 
L 581 3500 
L 1159 3500 
L 1159 2969 
Q 1341 3281 1617 3432 
Q 1894 3584 2278 3584 
Q 2916 3584 3314 3078 
Q 3713 2572 3713 1747 
Q 3713 922 3314 415 
Q 2916 -91 2278 -91 
Q 1894 -91 1617 61 
Q 1341 213 1159 525 
z
M 3116 1747 
Q 3116 2381 2855 2742 
Q 2594 3103 2138 3103 
Q 1681 3103 1420 2742 
Q 1159 2381 1159 1747 
Q 1159 1113 1420 752 
Q 1681 391 2138 391 
Q 2594 391 2855 752 
Q 3116 1113 3116 1747 
z
" id="DejaVuSans-70" transform="scale(0.015625)"/>
       <path d="M 2194 1759 
Q 1497 1759 1228 1600 
Q 959 1441 959 1056 
Q 959 750 1161 570 
Q 1363 391 1709 391 
Q 2188 391 2477 730 
Q 2766 1069 2766 1631 
L 2766 1759 
L 2194 1759 
z
M 3341 1997 
L 3341 0 
L 2766 0 
L 2766 531 
Q 2569 213 2275 61 
Q 1981 -91 1556 -91 
Q 1019 -91 701 211 
Q 384 513 384 1019 
Q 384 1609 779 1909 
Q 1175 2209 1959 2209 
L 2766 2209 
L 2766 2266 
Q 2766 2663 2505 2880 
Q 2244 3097 1772 3097 
Q 1472 3097 1187 3025 
Q 903 2953 641 2809 
L 641 3341 
Q 956 3463 1253 3523 
Q 1550 3584 1831 3584 
Q 2591 3584 2966 3190 
Q 3341 2797 3341 1997 
z
" id="DejaVuSans-61" transform="scale(0.015625)"/>
       <path d="M 2906 1791 
Q 2906 2416 2648 2759 
Q 2391 3103 1925 3103 
Q 1463 3103 1205 2759 
Q 947 2416 947 1791 
Q 947 1169 1205 825 
Q 1463 481 1925 481 
Q 2391 481 2648 825 
Q 2906 1169 2906 1791 
z
M 3481 434 
Q 3481 -459 3084 -895 
Q 2688 -1331 1869 -1331 
Q 1566 -1331 1297 -1286 
Q 1028 -1241 775 -1147 
L 775 -588 
Q 1028 -725 1275 -790 
Q 1522 -856 1778 -856 
Q 2344 -856 2625 -561 
Q 2906 -266 2906 331 
L 2906 616 
Q 2728 306 2450 153 
Q 2172 0 1784 0 
Q 1141 0 747 490 
Q 353 981 353 1791 
Q 353 2603 747 3093 
Q 1141 3584 1784 3584 
Q 2172 3584 2450 3431 
Q 2728 3278 2906 2969 
L 2906 3500 
L 3481 3500 
L 3481 434 
z
" id="DejaVuSans-67" transform="scale(0.015625)"/>
       <path d="M 1172 4494 
L 1172 3500 
L 2356 3500 
L 2356 3053 
L 1172 3053 
L 1172 1153 
Q 1172 725 1289 603 
Q 1406 481 1766 481 
L 2356 481 
L 2356 0 
L 1766 0 
Q 1100 0 847 248 
Q 594 497 594 1153 
L 594 3053 
L 172 3053 
L 172 3500 
L 594 3500 
L 594 4494 
L 1172 4494 
z
" id="DejaVuSans-74" transform="scale(0.015625)"/>
       <path d="M 603 3500 
L 1178 3500 
L 1178 0 
L 603 0 
L 603 3500 
z
M 603 4863 
L 1178 4863 
L 1178 4134 
L 603 4134 
L 603 4863 
z
" id="DejaVuSans-69" transform="scale(0.015625)"/>
       <path d="M 3513 2113 
L 3513 0 
L 2938 0 
L 2938 2094 
Q 2938 2591 2744 2837 
Q 2550 3084 2163 3084 
Q 1697 3084 1428 2787 
Q 1159 2491 1159 1978 
L 1159 0 
L 581 0 
L 581 3500 
L 1159 3500 
L 1159 2956 
Q 1366 3272 1645 3428 
Q 1925 3584 2291 3584 
Q 2894 3584 3203 3211 
Q 3513 2838 3513 2113 
z
" id="DejaVuSans-6e" transform="scale(0.015625)"/>
       <path id="DejaVuSans-20" transform="scale(0.015625)"/>
       <path d="M 2906 2969 
L 2906 4863 
L 3481 4863 
L 3481 0 
L 2906 0 
L 2906 525 
Q 2725 213 2448 61 
Q 2172 -91 1784 -91 
Q 1150 -91 751 415 
Q 353 922 353 1747 
Q 353 2572 751 3078 
Q 1150 3584 1784 3584 
Q 2172 3584 2448 3432 
Q 2725 3281 2906 2969 
z
M 947 1747 
Q 947 1113 1208 752 
Q 1469 391 1925 391 
Q 2381 391 2643 752 
Q 2906 1113 2906 1747 
Q 2906 2381 2643 2742 
Q 2381 3103 1925 3103 
Q 1469 3103 1208 2742 
Q 947 2381 947 1747 
z
" id="DejaVuSans-64" transform="scale(0.015625)"/>
       <path d="M 3597 1894 
L 3597 1613 
L 953 1613 
Q 991 1019 1311 708 
Q 1631 397 2203 397 
Q 2534 397 2845 478 
Q 3156 559 3463 722 
L 3463 178 
Q 3153 47 2828 -22 
Q 2503 -91 2169 -91 
Q 1331 -91 842 396 
Q 353 884 353 1716 
Q 353 2575 817 3079 
Q 1281 3584 2069 3584 
Q 2775 3584 3186 3129 
Q 3597 2675 3597 1894 
z
M 3022 2063 
Q 3016 2534 2758 2815 
Q 2500 3097 2075 3097 
Q 1594 3097 1305 2825 
Q 1016 2553 972 2059 
L 3022 2063 
z
" id="DejaVuSans-65" transform="scale(0.015625)"/>
       <path d="M 3122 3366 
L 3122 2828 
Q 2878 2963 2633 3030 
Q 2388 3097 2138 3097 
Q 1578 3097 1268 2742 
Q 959 2388 959 1747 
Q 959 1106 1268 751 
Q 1578 397 2138 397 
Q 2388 397 2633 464 
Q 2878 531 3122 666 
L 3122 134 
Q 2881 22 2623 -34 
Q 2366 -91 2075 -91 
Q 1284 -91 818 406 
Q 353 903 353 1747 
Q 353 2603 823 3093 
Q 1294 3584 2113 3584 
Q 2378 3584 2631 3529 
Q 2884 3475 3122 3366 
z
" id="DejaVuSans-63" transform="scale(0.015625)"/>
      </defs>
      <use xlink:href="#DejaVuSans-50"/>
      <use x="58.552734" xlink:href="#DejaVuSans-72"/>
      <use x="97.416016" xlink:href="#DejaVuSans-6f"/>
      <use x="158.597656" xlink:href="#DejaVuSans-70"/>
      <use x="222.074219" xlink:href="#DejaVuSans-61"/>
      <use x="283.353516" xlink:href="#DejaVuSans-67"/>
      <use x="346.830078" xlink:href="#DejaVuSans-61"/>
      <use x="408.109375" xlink:href="#DejaVuSans-74"/>
      <use x="447.318359" xlink:href="#DejaVuSans-69"/>
      <use x="475.101562" xlink:href="#DejaVuSans-6f"/>
      <use x="536.283203" xlink:href="#DejaVuSans-6e"/>
      <use x="599.662109" xlink:href="#DejaVuSans-20"/>
      <use x="631.449219" xlink:href="#DejaVuSans-64"/>
      <use x="694.925781" xlink:href="#DejaVuSans-69"/>
      <use x="722.708984" xlink:href="#DejaVuSans-72"/>
      <use x="761.572266" xlink:href="#DejaVuSans-65"/>
      <use x="823.095703" xlink:href="#DejaVuSans-63"/>
      <use x="878.076172" xlink:href="#DejaVuSans-74"/>
      <use x="917.285156" xlink:href="#DejaVuSans-69"/>
      <use x="945.068359" xlink:href="#DejaVuSans-6f"/>
      <use x="1006.25" xlink:href="#DejaVuSans-6e"/>
     </g>
    </g>
   </g>
   <g id="matplotlib.axis_2">
    <g id="ytick_1">
     <g id="line2d_7">
      <defs>
       <path d="M 0 0 
L -3.5 0 
" id="m0a3b1460a3" style="stroke:#000000;stroke-width:0.8;"/>
      </defs>
      <g>
       <use style="stroke:#000000;stroke-width:0.8;" x="50.14375" xlink:href="#m0a3b1460a3" y="273.312"/>
      </g>
     </g>
     <g id="text_8">
      <!-- 0.00 -->
      <g transform="translate(20.878125 277.111219)scale(0.1 -0.1)">
       <use xlink:href="#DejaVuSans-30"/>
       <use x="63.623047" xlink:href="#DejaVuSans-2e"/>
       <use x="95.410156" xlink:href="#DejaVuSans-30"/>
       <use x="159.033203" xlink:href="#DejaVuSans-30"/>
      </g>
     </g>
    </g>
    <g id="ytick_2">
     <g id="line2d_8">
      <g>
       <use style="stroke:#000000;stroke-width:0.8;" x="50.14375" xlink:href="#m0a3b1460a3" y="242.478791"/>
      </g>
     </g>
     <g id="text_9">
      <!-- 0.25 -->
      <g transform="translate(20.878125 246.27801)scale(0.1 -0.1)">
       <defs>
        <path d="M 691 4666 
L 3169 4666 
L 3169 4134 
L 1269 4134 
L 1269 2991 
Q 1406 3038 1543 3061 
Q 1681 3084 1819 3084 
Q 2600 3084 3056 2656 
Q 3513 2228 3513 1497 
Q 3513 744 3044 326 
Q 2575 -91 1722 -91 
Q 1428 -91 1123 -41 
Q 819 9 494 109 
L 494 744 
Q 775 591 1075 516 
Q 1375 441 1709 441 
Q 2250 441 2565 725 
Q 2881 1009 2881 1497 
Q 2881 1984 2565 2268 
Q 2250 2553 1709 2553 
Q 1456 2553 1204 2497 
Q 953 2441 691 2322 
L 691 4666 
z
" id="DejaVuSans-35" transform="scale(0.015625)"/>
       </defs>
       <use xlink:href="#DejaVuSans-30"/>
       <use x="63.623047" xlink:href="#DejaVuSans-2e"/>
       <use x="95.410156" xlink:href="#DejaVuSans-32"/>
       <use x="159.033203" xlink:href="#DejaVuSans-35"/>
      </g>
     </g>
    </g>
    <g id="ytick_3">
     <g id="line2d_9">
      <g>
       <use style="stroke:#000000;stroke-width:0.8;" x="50.14375" xlink:href="#m0a3b1460a3" y="211.645583"/>
      </g>
     </g>
     <g id="text_10">
      <!-- 0.50 -->
      <g transform="translate(20.878125 215.444801)scale(0.1 -0.1)">
       <use xlink:href="#DejaVuSans-30"/>
       <use x="63.623047" xlink:href="#DejaVuSans-2e"/>
       <use x="95.410156" xlink:href="#DejaVuSans-35"/>
       <use x="159.033203" xlink:href="#DejaVuSans-30"/>
      </g>
     </g>
    </g>
    <g id="ytick_4">
     <g id="line2d_10">
      <g>
       <use style="stroke:#000000;stroke-width:0.8;" x="50.14375" xlink:href="#m0a3b1460a3" y="180.812374"/>
      </g>
     </g>
     <g id="text_11">
      <!-- 0.75 -->
      <g transform="translate(20.878125 184.611593)scale(0.1 -0.1)">
       <defs>
        <path d="M 525 4666 
L 3525 4666 
L 3525 4397 
L 1831 0 
L 1172 0 
L 2766 4134 
L 525 4134 
L 525 4666 
z
" id="DejaVuSans-37" transform="scale(0.015625)"/>
       </defs>
       <use xlink:href="#DejaVuSans-30"/>
       <use x="63.623047" xlink:href="#DejaVuSans-2e"/>
       <use x="95.410156" xlink:href="#DejaVuSans-37"/>
       <use x="159.033203" xlink:href="#DejaVuSans-35"/>
      </g>
     </g>
    </g>
    <g id="ytick_5">
     <g id="line2d_11">
      <g>
       <use style="stroke:#000000;stroke-width:0.8;" x="50.14375" xlink:href="#m0a3b1460a3" y="149.979165"/>
      </g>
     </g>
     <g id="text_12">
      <!-- 1.00 -->
      <g transform="translate(20.878125 153.778384)scale(0.1 -0.1)">
       <use xlink:href="#DejaVuSans-31"/>
       <use x="63.623047" xlink:href="#DejaVuSans-2e"/>
       <use x="95.410156" xlink:href="#DejaVuSans-30"/>
       <use x="159.033203" xlink:href="#DejaVuSans-30"/>
      </g>
     </g>
    </g>
    <g id="ytick_6">
     <g id="line2d_12">
      <g>
       <use style="stroke:#000000;stroke-width:0.8;" x="50.14375" xlink:href="#m0a3b1460a3" y="119.145957"/>
      </g>
     </g>
     <g id="text_13">
      <!-- 1.25 -->
      <g transform="translate(20.878125 122.945175)scale(0.1 -0.1)">
       <use xlink:href="#DejaVuSans-31"/>
       <use x="63.623047" xlink:href="#DejaVuSans-2e"/>
       <use x="95.410156" xlink:href="#DejaVuSans-32"/>
       <use x="159.033203" xlink:href="#DejaVuSans-35"/>
      </g>
     </g>
    </g>
    <g id="ytick_7">
     <g id="line2d_13">
      <g>
       <use style="stroke:#000000;stroke-width:0.8;" x="50.14375" xlink:href="#m0a3b1460a3" y="88.312748"/>
      </g>
     </g>
     <g id="text_14">
      <!-- 1.50 -->
      <g transform="translate(20.878125 92.111967)scale(0.1 -0.1)">
       <use xlink:href="#DejaVuSans-31"/>
       <use x="63.623047" xlink:href="#DejaVuSans-2e"/>
       <use x="95.410156" xlink:href="#DejaVuSans-35"/>
       <use x="159.033203" xlink:href="#DejaVuSans-30"/>
      </g>
     </g>
    </g>
    <g id="ytick_8">
     <g id="line2d_14">
      <g>
       <use style="stroke:#000000;stroke-width:0.8;" x="50.14375" xlink:href="#m0a3b1460a3" y="57.479539"/>
      </g>
     </g>
     <g id="text_15">
      <!-- 1.75 -->
      <g transform="translate(20.878125 61.278758)scale(0.1 -0.1)">
       <use xlink:href="#DejaVuSans-31"/>
       <use x="63.623047" xlink:href="#DejaVuSans-2e"/>
       <use x="95.410156" xlink:href="#DejaVuSans-37"/>
       <use x="159.033203" xlink:href="#DejaVuSans-35"/>
      </g>
     </g>
    </g>
    <g id="ytick_9">
     <g id="line2d_15">
      <g>
       <use style="stroke:#000000;stroke-width:0.8;" x="50.14375" xlink:href="#m0a3b1460a3" y="26.646331"/>
      </g>
     </g>
     <g id="text_16">
      <!-- 2.00 -->
      <g transform="translate(20.878125 30.44555)scale(0.1 -0.1)">
       <use xlink:href="#DejaVuSans-32"/>
       <use x="63.623047" xlink:href="#DejaVuSans-2e"/>
       <use x="95.410156" xlink:href="#DejaVuSans-30"/>
       <use x="159.033203" xlink:href="#DejaVuSans-30"/>
      </g>
     </g>
    </g>
    <g id="text_17">
     <!-- Probability density -->
     <g transform="translate(14.798438 186.606781)rotate(-90)scale(0.1 -0.1)">
      <defs>
       <path d="M 3116 1747 
Q 3116 2381 2855 2742 
Q 2594 3103 2138 3103 
Q 1681 3103 1420 2742 
Q 1159 2381 1159 1747 
Q 1159 1113 1420 752 
Q 1681 391 2138 391 
Q 2594 391 2855 752 
Q 3116 1113 3116 1747 
z
M 1159 2969 
Q 1341 3281 1617 3432 
Q 1894 3584 2278 3584 
Q 2916 3584 3314 3078 
Q 3713 2572 3713 1747 
Q 3713 922 3314 415 
Q 2916 -91 2278 -91 
Q 1894 -91 1617 61 
Q 1341 213 1159 525 
L 1159 0 
L 581 0 
L 581 4863 
L 1159 4863 
L 1159 2969 
z
" id="DejaVuSans-62" transform="scale(0.015625)"/>
       <path d="M 603 4863 
L 1178 4863 
L 1178 0 
L 603 0 
L 603 4863 
z
" id="DejaVuSans-6c" transform="scale(0.015625)"/>
       <path d="M 2059 -325 
Q 1816 -950 1584 -1140 
Q 1353 -1331 966 -1331 
L 506 -1331 
L 506 -850 
L 844 -850 
Q 1081 -850 1212 -737 
Q 1344 -625 1503 -206 
L 1606 56 
L 191 3500 
L 800 3500 
L 1894 763 
L 2988 3500 
L 3597 3500 
L 2059 -325 
z
" id="DejaVuSans-79" transform="scale(0.015625)"/>
       <path d="M 2834 3397 
L 2834 2853 
Q 2591 2978 2328 3040 
Q 2066 3103 1784 3103 
Q 1356 3103 1142 2972 
Q 928 2841 928 2578 
Q 928 2378 1081 2264 
Q 1234 2150 1697 2047 
L 1894 2003 
Q 2506 1872 2764 1633 
Q 3022 1394 3022 966 
Q 3022 478 2636 193 
Q 2250 -91 1575 -91 
Q 1294 -91 989 -36 
Q 684 19 347 128 
L 347 722 
Q 666 556 975 473 
Q 1284 391 1588 391 
Q 1994 391 2212 530 
Q 2431 669 2431 922 
Q 2431 1156 2273 1281 
Q 2116 1406 1581 1522 
L 1381 1569 
Q 847 1681 609 1914 
Q 372 2147 372 2553 
Q 372 3047 722 3315 
Q 1072 3584 1716 3584 
Q 2034 3584 2315 3537 
Q 2597 3491 2834 3397 
z
" id="DejaVuSans-73" transform="scale(0.015625)"/>
      </defs>
      <use xlink:href="#DejaVuSans-50"/>
      <use x="58.552734" xlink:href="#DejaVuSans-72"/>
      <use x="97.416016" xlink:href="#DejaVuSans-6f"/>
      <use x="158.597656" xlink:href="#DejaVuSans-62"/>
      <use x="222.074219" xlink:href="#DejaVuSans-61"/>
      <use x="283.353516" xlink:href="#DejaVuSans-62"/>
      <use x="346.830078" xlink:href="#DejaVuSans-69"/>
      <use x="374.613281" xlink:href="#DejaVuSans-6c"/>
      <use x="402.396484" xlink:href="#DejaVuSans-69"/>
      <use x="430.179688" xlink:href="#DejaVuSans-74"/>
      <use x="469.388672" xlink:href="#DejaVuSans-79"/>
      <use x="528.568359" xlink:href="#DejaVuSans-20"/>
      <use x="560.355469" xlink:href="#DejaVuSans-64"/>
      <use x="623.832031" xlink:href="#DejaVuSans-65"/>
      <use x="685.355469" xlink:href="#DejaVuSans-6e"/>
      <use x="748.734375" xlink:href="#DejaVuSans-73"/>
      <use x="800.833984" xlink:href="#DejaVuSans-69"/>
      <use x="828.617188" xlink:href="#DejaVuSans-74"/>
      <use x="867.826172" xlink:href="#DejaVuSans-79"/>
     </g>
    </g>
   </g>
   <g id="line2d_16">
    <path clip-path="url(#pddca98899c)" d="M 66.376477 273.312 
L 391.031023 26.646331 
L 391.031023 26.646331 
" style="fill:none;stroke:#ff7f0e;stroke-linecap:square;stroke-width:1.5;"/>
   </g>
   <g id="patch_203">
    <path d="M 50.14375 273.312 
L 50.14375 7.2 
" style="fill:none;stroke:#000000;stroke-linecap:square;stroke-linejoin:miter;stroke-width:0.8;"/>
   </g>
   <g id="patch_204">
    <path d="M 407.26375 273.312 
L 407.26375 7.2 
" style="fill:none;stroke:#000000;stroke-linecap:square;stroke-linejoin:miter;stroke-width:0.8;"/>
   </g>
   <g id="patch_205">
    <path d="M 50.14375 273.312 
L 407.26375 273.312 
" style="fill:none;stroke:#000000;stroke-linecap:square;stroke-linejoin:miter;stroke-width:0.8;"/>
   </g>
   <g id="patch_206">
    <path d="M 50.14375 7.2 
L 407.26375 7.2 
" style="fill:none;stroke:#000000;stroke-linecap:square;stroke-linejoin:miter;stroke-width:0.8;"/>
   </g>
  </g>
 </g>
 <defs>
  <clipPath id="pddca98899c">
   <rect height="266.112" width="357.12" x="50.14375" y="7.2"/>
  </clipPath>
 </defs>
</svg>
