<?xml version="1.0" encoding="utf-8" standalone="no"?>
<!DOCTYPE svg PUBLIC "-//W3C//DTD SVG 1.1//EN"
  "http://www.w3.org/Graphics/SVG/1.1/DTD/svg11.dtd">
<svg height="310.86825pt" version="1.1" viewBox="0 0 408.10125 310.86825" width="408.10125pt" xmlns="http://www.w3.org/2000/svg" xmlns:xlink="http://www.w3.org/1999/xlink">
 <metadata>
  <rdf:RDF xmlns:cc="http://creativecommons.org/ns#" xmlns:dc="http://purl.org/dc/elements/1.1/" xmlns:rdf="http://www.w3.org/1999/02/22-rdf-syntax-ns#">
   <cc:Work>
    <dc:type rdf:resource="http://purl.org/dc/dcmitype/StillImage"/>
    <dc:date>2021-07-11T01:26:51.370599</dc:date>
    <dc:format>image/svg+xml</dc:format>
    <dc:creator>
     <cc:Agent>
      <dc:title>Matplotlib v3.4.2, https://matplotlib.org/</dc:title>
     </cc:Agent>
    </dc:creator>
   </cc:Work>
  </rdf:RDF>
 </metadata>
 <defs>
  <style type="text/css">*{stroke-linecap:butt;stroke-linejoin:round;}</style>
 </defs>
 <g id="figure_1">
  <g id="patch_1">
   <path d="M 0 310.86825 
L 408.10125 310.86825 
L 408.10125 0 
L 0 0 
z
" style="fill:#ffffff;"/>
  </g>
  <g id="axes_1">
   <g id="patch_2">
    <path d="M 43.78125 273.312 
L 400.90125 273.312 
L 400.90125 7.2 
L 43.78125 7.2 
z
" style="fill:#ffffff;"/>
   </g>
   <g id="patch_3">
    <path clip-path="url(#p7af7553be8)" d="M 61.002885 273.312 
L 62.616233 273.312 
L 62.616233 270.330353 
L 61.002885 270.330353 
z
" style="fill:#1f77b4;"/>
   </g>
   <g id="patch_4">
    <path clip-path="url(#p7af7553be8)" d="M 62.616233 273.312 
L 64.229581 273.312 
L 64.229581 270.330353 
L 62.616233 270.330353 
z
" style="fill:#1f77b4;"/>
   </g>
   <g id="patch_5">
    <path clip-path="url(#p7af7553be8)" d="M 64.229581 273.312 
L 65.842928 273.312 
L 65.842928 268.094118 
L 64.229581 268.094118 
z
" style="fill:#1f77b4;"/>
   </g>
   <g id="patch_6">
    <path clip-path="url(#p7af7553be8)" d="M 65.842928 273.312 
L 67.456276 273.312 
L 67.456276 248.713412 
L 65.842928 248.713412 
z
" style="fill:#1f77b4;"/>
   </g>
   <g id="patch_7">
    <path clip-path="url(#p7af7553be8)" d="M 67.456276 273.312 
L 69.069624 273.312 
L 69.069624 254.676706 
L 67.456276 254.676706 
z
" style="fill:#1f77b4;"/>
   </g>
   <g id="patch_8">
    <path clip-path="url(#p7af7553be8)" d="M 69.069624 273.312 
L 70.682971 273.312 
L 70.682971 253.931294 
L 69.069624 253.931294 
z
" style="fill:#1f77b4;"/>
   </g>
   <g id="patch_9">
    <path clip-path="url(#p7af7553be8)" d="M 70.682971 273.312 
L 72.296319 273.312 
L 72.296319 246.477176 
L 70.682971 246.477176 
z
" style="fill:#1f77b4;"/>
   </g>
   <g id="patch_10">
    <path clip-path="url(#p7af7553be8)" d="M 72.296319 273.312 
L 73.909667 273.312 
L 73.909667 249.458824 
L 72.296319 249.458824 
z
" style="fill:#1f77b4;"/>
   </g>
   <g id="patch_11">
    <path clip-path="url(#p7af7553be8)" d="M 73.909667 273.312 
L 75.523014 273.312 
L 75.523014 245.731765 
L 73.909667 245.731765 
z
" style="fill:#1f77b4;"/>
   </g>
   <g id="patch_12">
    <path clip-path="url(#p7af7553be8)" d="M 75.523014 273.312 
L 77.136362 273.312 
L 77.136362 234.550588 
L 75.523014 234.550588 
z
" style="fill:#1f77b4;"/>
   </g>
   <g id="patch_13">
    <path clip-path="url(#p7af7553be8)" d="M 77.136362 273.312 
L 78.74971 273.312 
L 78.74971 236.041412 
L 77.136362 236.041412 
z
" style="fill:#1f77b4;"/>
   </g>
   <g id="patch_14">
    <path clip-path="url(#p7af7553be8)" d="M 78.74971 273.312 
L 80.363057 273.312 
L 80.363057 232.314353 
L 78.74971 232.314353 
z
" style="fill:#1f77b4;"/>
   </g>
   <g id="patch_15">
    <path clip-path="url(#p7af7553be8)" d="M 80.363057 273.312 
L 81.976405 273.312 
L 81.976405 221.878588 
L 80.363057 221.878588 
z
" style="fill:#1f77b4;"/>
   </g>
   <g id="patch_16">
    <path clip-path="url(#p7af7553be8)" d="M 81.976405 273.312 
L 83.589753 273.312 
L 83.589753 217.406118 
L 81.976405 217.406118 
z
" style="fill:#1f77b4;"/>
   </g>
   <g id="patch_17">
    <path clip-path="url(#p7af7553be8)" d="M 83.589753 273.312 
L 85.2031 273.312 
L 85.2031 219.642353 
L 83.589753 219.642353 
z
" style="fill:#1f77b4;"/>
   </g>
   <g id="patch_18">
    <path clip-path="url(#p7af7553be8)" d="M 85.2031 273.312 
L 86.816448 273.312 
L 86.816448 224.860235 
L 85.2031 224.860235 
z
" style="fill:#1f77b4;"/>
   </g>
   <g id="patch_19">
    <path clip-path="url(#p7af7553be8)" d="M 86.816448 273.312 
L 88.429796 273.312 
L 88.429796 211.442824 
L 86.816448 211.442824 
z
" style="fill:#1f77b4;"/>
   </g>
   <g id="patch_20">
    <path clip-path="url(#p7af7553be8)" d="M 88.429796 273.312 
L 90.043143 273.312 
L 90.043143 219.642353 
L 88.429796 219.642353 
z
" style="fill:#1f77b4;"/>
   </g>
   <g id="patch_21">
    <path clip-path="url(#p7af7553be8)" d="M 90.043143 273.312 
L 91.656491 273.312 
L 91.656491 186.098824 
L 90.043143 186.098824 
z
" style="fill:#1f77b4;"/>
   </g>
   <g id="patch_22">
    <path clip-path="url(#p7af7553be8)" d="M 91.656491 273.312 
L 93.269839 273.312 
L 93.269839 202.497882 
L 91.656491 202.497882 
z
" style="fill:#1f77b4;"/>
   </g>
   <g id="patch_23">
    <path clip-path="url(#p7af7553be8)" d="M 93.269839 273.312 
L 94.883186 273.312 
L 94.883186 196.534588 
L 93.269839 196.534588 
z
" style="fill:#1f77b4;"/>
   </g>
   <g id="patch_24">
    <path clip-path="url(#p7af7553be8)" d="M 94.883186 273.312 
L 96.496534 273.312 
L 96.496534 203.988706 
L 94.883186 203.988706 
z
" style="fill:#1f77b4;"/>
   </g>
   <g id="patch_25">
    <path clip-path="url(#p7af7553be8)" d="M 96.496534 273.312 
L 98.109882 273.312 
L 98.109882 189.825882 
L 96.496534 189.825882 
z
" style="fill:#1f77b4;"/>
   </g>
   <g id="patch_26">
    <path clip-path="url(#p7af7553be8)" d="M 98.109882 273.312 
L 99.723229 273.312 
L 99.723229 192.807529 
L 98.109882 192.807529 
z
" style="fill:#1f77b4;"/>
   </g>
   <g id="patch_27">
    <path clip-path="url(#p7af7553be8)" d="M 99.723229 273.312 
L 101.336577 273.312 
L 101.336577 174.172235 
L 99.723229 174.172235 
z
" style="fill:#1f77b4;"/>
   </g>
   <g id="patch_28">
    <path clip-path="url(#p7af7553be8)" d="M 101.336577 273.312 
L 102.949925 273.312 
L 102.949925 167.463529 
L 101.336577 167.463529 
z
" style="fill:#1f77b4;"/>
   </g>
   <g id="patch_29">
    <path clip-path="url(#p7af7553be8)" d="M 102.949925 273.312 
L 104.563272 273.312 
L 104.563272 173.426824 
L 102.949925 173.426824 
z
" style="fill:#1f77b4;"/>
   </g>
   <g id="patch_30">
    <path clip-path="url(#p7af7553be8)" d="M 104.563272 273.312 
L 106.17662 273.312 
L 106.17662 183.862588 
L 104.563272 183.862588 
z
" style="fill:#1f77b4;"/>
   </g>
   <g id="patch_31">
    <path clip-path="url(#p7af7553be8)" d="M 106.17662 273.312 
L 107.789968 273.312 
L 107.789968 166.718118 
L 106.17662 166.718118 
z
" style="fill:#1f77b4;"/>
   </g>
   <g id="patch_32">
    <path clip-path="url(#p7af7553be8)" d="M 107.789968 273.312 
L 109.403315 273.312 
L 109.403315 188.335059 
L 107.789968 188.335059 
z
" style="fill:#1f77b4;"/>
   </g>
   <g id="patch_33">
    <path clip-path="url(#p7af7553be8)" d="M 109.403315 273.312 
L 111.016663 273.312 
L 111.016663 170.445176 
L 109.403315 170.445176 
z
" style="fill:#1f77b4;"/>
   </g>
   <g id="patch_34">
    <path clip-path="url(#p7af7553be8)" d="M 111.016663 273.312 
L 112.630011 273.312 
L 112.630011 167.463529 
L 111.016663 167.463529 
z
" style="fill:#1f77b4;"/>
   </g>
   <g id="patch_35">
    <path clip-path="url(#p7af7553be8)" d="M 112.630011 273.312 
L 114.243358 273.312 
L 114.243358 160.754824 
L 112.630011 160.754824 
z
" style="fill:#1f77b4;"/>
   </g>
   <g id="patch_36">
    <path clip-path="url(#p7af7553be8)" d="M 114.243358 273.312 
L 115.856706 273.312 
L 115.856706 144.355765 
L 114.243358 144.355765 
z
" style="fill:#1f77b4;"/>
   </g>
   <g id="patch_37">
    <path clip-path="url(#p7af7553be8)" d="M 115.856706 273.312 
L 117.470054 273.312 
L 117.470054 160.009412 
L 115.856706 160.009412 
z
" style="fill:#1f77b4;"/>
   </g>
   <g id="patch_38">
    <path clip-path="url(#p7af7553be8)" d="M 117.470054 273.312 
L 119.083401 273.312 
L 119.083401 141.374118 
L 117.470054 141.374118 
z
" style="fill:#1f77b4;"/>
   </g>
   <g id="patch_39">
    <path clip-path="url(#p7af7553be8)" d="M 119.083401 273.312 
L 120.696749 273.312 
L 120.696749 136.901647 
L 119.083401 136.901647 
z
" style="fill:#1f77b4;"/>
   </g>
   <g id="patch_40">
    <path clip-path="url(#p7af7553be8)" d="M 120.696749 273.312 
L 122.310097 273.312 
L 122.310097 146.592 
L 120.696749 146.592 
z
" style="fill:#1f77b4;"/>
   </g>
   <g id="patch_41">
    <path clip-path="url(#p7af7553be8)" d="M 122.310097 273.312 
L 123.923444 273.312 
L 123.923444 134.665412 
L 122.310097 134.665412 
z
" style="fill:#1f77b4;"/>
   </g>
   <g id="patch_42">
    <path clip-path="url(#p7af7553be8)" d="M 123.923444 273.312 
L 125.536792 273.312 
L 125.536792 147.337412 
L 123.923444 147.337412 
z
" style="fill:#1f77b4;"/>
   </g>
   <g id="patch_43">
    <path clip-path="url(#p7af7553be8)" d="M 125.536792 273.312 
L 127.15014 273.312 
L 127.15014 121.993412 
L 125.536792 121.993412 
z
" style="fill:#1f77b4;"/>
   </g>
   <g id="patch_44">
    <path clip-path="url(#p7af7553be8)" d="M 127.15014 273.312 
L 128.763487 273.312 
L 128.763487 160.009412 
L 127.15014 160.009412 
z
" style="fill:#1f77b4;"/>
   </g>
   <g id="patch_45">
    <path clip-path="url(#p7af7553be8)" d="M 128.763487 273.312 
L 130.376835 273.312 
L 130.376835 121.993412 
L 128.763487 121.993412 
z
" style="fill:#1f77b4;"/>
   </g>
   <g id="patch_46">
    <path clip-path="url(#p7af7553be8)" d="M 130.376835 273.312 
L 131.990183 273.312 
L 131.990183 121.993412 
L 130.376835 121.993412 
z
" style="fill:#1f77b4;"/>
   </g>
   <g id="patch_47">
    <path clip-path="url(#p7af7553be8)" d="M 131.990183 273.312 
L 133.60353 273.312 
L 133.60353 147.337412 
L 131.990183 147.337412 
z
" style="fill:#1f77b4;"/>
   </g>
   <g id="patch_48">
    <path clip-path="url(#p7af7553be8)" d="M 133.60353 273.312 
L 135.216878 273.312 
L 135.216878 119.011765 
L 133.60353 119.011765 
z
" style="fill:#1f77b4;"/>
   </g>
   <g id="patch_49">
    <path clip-path="url(#p7af7553be8)" d="M 135.216878 273.312 
L 136.830226 273.312 
L 136.830226 123.484235 
L 135.216878 123.484235 
z
" style="fill:#1f77b4;"/>
   </g>
   <g id="patch_50">
    <path clip-path="url(#p7af7553be8)" d="M 136.830226 273.312 
L 138.443573 273.312 
L 138.443573 106.339765 
L 136.830226 106.339765 
z
" style="fill:#1f77b4;"/>
   </g>
   <g id="patch_51">
    <path clip-path="url(#p7af7553be8)" d="M 138.443573 273.312 
L 140.056921 273.312 
L 140.056921 112.303059 
L 138.443573 112.303059 
z
" style="fill:#1f77b4;"/>
   </g>
   <g id="patch_52">
    <path clip-path="url(#p7af7553be8)" d="M 140.056921 273.312 
L 141.670269 273.312 
L 141.670269 120.502588 
L 140.056921 120.502588 
z
" style="fill:#1f77b4;"/>
   </g>
   <g id="patch_53">
    <path clip-path="url(#p7af7553be8)" d="M 141.670269 273.312 
L 143.283616 273.312 
L 143.283616 125.720471 
L 141.670269 125.720471 
z
" style="fill:#1f77b4;"/>
   </g>
   <g id="patch_54">
    <path clip-path="url(#p7af7553be8)" d="M 143.283616 273.312 
L 144.896964 273.312 
L 144.896964 86.959059 
L 143.283616 86.959059 
z
" style="fill:#1f77b4;"/>
   </g>
   <g id="patch_55">
    <path clip-path="url(#p7af7553be8)" d="M 144.896964 273.312 
L 146.510312 273.312 
L 146.510312 83.977412 
L 144.896964 83.977412 
z
" style="fill:#1f77b4;"/>
   </g>
   <g id="patch_56">
    <path clip-path="url(#p7af7553be8)" d="M 146.510312 273.312 
L 148.123659 273.312 
L 148.123659 96.649412 
L 146.510312 96.649412 
z
" style="fill:#1f77b4;"/>
   </g>
   <g id="patch_57">
    <path clip-path="url(#p7af7553be8)" d="M 148.123659 273.312 
L 149.737007 273.312 
L 149.737007 112.303059 
L 148.123659 112.303059 
z
" style="fill:#1f77b4;"/>
   </g>
   <g id="patch_58">
    <path clip-path="url(#p7af7553be8)" d="M 149.737007 273.312 
L 151.350355 273.312 
L 151.350355 89.195294 
L 149.737007 89.195294 
z
" style="fill:#1f77b4;"/>
   </g>
   <g id="patch_59">
    <path clip-path="url(#p7af7553be8)" d="M 151.350355 273.312 
L 152.963702 273.312 
L 152.963702 116.030118 
L 151.350355 116.030118 
z
" style="fill:#1f77b4;"/>
   </g>
   <g id="patch_60">
    <path clip-path="url(#p7af7553be8)" d="M 152.963702 273.312 
L 154.57705 273.312 
L 154.57705 95.904 
L 152.963702 95.904 
z
" style="fill:#1f77b4;"/>
   </g>
   <g id="patch_61">
    <path clip-path="url(#p7af7553be8)" d="M 154.57705 273.312 
L 156.190398 273.312 
L 156.190398 93.667765 
L 154.57705 93.667765 
z
" style="fill:#1f77b4;"/>
   </g>
   <g id="patch_62">
    <path clip-path="url(#p7af7553be8)" d="M 156.190398 273.312 
L 157.803745 273.312 
L 157.803745 88.449882 
L 156.190398 88.449882 
z
" style="fill:#1f77b4;"/>
   </g>
   <g id="patch_63">
    <path clip-path="url(#p7af7553be8)" d="M 157.803745 273.312 
L 159.417093 273.312 
L 159.417093 99.631059 
L 157.803745 99.631059 
z
" style="fill:#1f77b4;"/>
   </g>
   <g id="patch_64">
    <path clip-path="url(#p7af7553be8)" d="M 159.417093 273.312 
L 161.030441 273.312 
L 161.030441 80.995765 
L 159.417093 80.995765 
z
" style="fill:#1f77b4;"/>
   </g>
   <g id="patch_65">
    <path clip-path="url(#p7af7553be8)" d="M 161.030441 273.312 
L 162.643788 273.312 
L 162.643788 69.814588 
L 161.030441 69.814588 
z
" style="fill:#1f77b4;"/>
   </g>
   <g id="patch_66">
    <path clip-path="url(#p7af7553be8)" d="M 162.643788 273.312 
L 164.257136 273.312 
L 164.257136 78.759529 
L 162.643788 78.759529 
z
" style="fill:#1f77b4;"/>
   </g>
   <g id="patch_67">
    <path clip-path="url(#p7af7553be8)" d="M 164.257136 273.312 
L 165.870484 273.312 
L 165.870484 79.504941 
L 164.257136 79.504941 
z
" style="fill:#1f77b4;"/>
   </g>
   <g id="patch_68">
    <path clip-path="url(#p7af7553be8)" d="M 165.870484 273.312 
L 167.483831 273.312 
L 167.483831 75.032471 
L 165.870484 75.032471 
z
" style="fill:#1f77b4;"/>
   </g>
   <g id="patch_69">
    <path clip-path="url(#p7af7553be8)" d="M 167.483831 273.312 
L 169.097179 273.312 
L 169.097179 60.124235 
L 167.483831 60.124235 
z
" style="fill:#1f77b4;"/>
   </g>
   <g id="patch_70">
    <path clip-path="url(#p7af7553be8)" d="M 169.097179 273.312 
L 170.710527 273.312 
L 170.710527 66.832941 
L 169.097179 66.832941 
z
" style="fill:#1f77b4;"/>
   </g>
   <g id="patch_71">
    <path clip-path="url(#p7af7553be8)" d="M 170.710527 273.312 
L 172.323874 273.312 
L 172.323874 51.179294 
L 170.710527 51.179294 
z
" style="fill:#1f77b4;"/>
   </g>
   <g id="patch_72">
    <path clip-path="url(#p7af7553be8)" d="M 172.323874 273.312 
L 173.937222 273.312 
L 173.937222 66.832941 
L 172.323874 66.832941 
z
" style="fill:#1f77b4;"/>
   </g>
   <g id="patch_73">
    <path clip-path="url(#p7af7553be8)" d="M 173.937222 273.312 
L 175.55057 273.312 
L 175.55057 42.979765 
L 173.937222 42.979765 
z
" style="fill:#1f77b4;"/>
   </g>
   <g id="patch_74">
    <path clip-path="url(#p7af7553be8)" d="M 175.55057 273.312 
L 177.163917 273.312 
L 177.163917 58.633412 
L 175.55057 58.633412 
z
" style="fill:#1f77b4;"/>
   </g>
   <g id="patch_75">
    <path clip-path="url(#p7af7553be8)" d="M 177.163917 273.312 
L 178.777265 273.312 
L 178.777265 83.977412 
L 177.163917 83.977412 
z
" style="fill:#1f77b4;"/>
   </g>
   <g id="patch_76">
    <path clip-path="url(#p7af7553be8)" d="M 178.777265 273.312 
L 180.390613 273.312 
L 180.390613 67.578353 
L 178.777265 67.578353 
z
" style="fill:#1f77b4;"/>
   </g>
   <g id="patch_77">
    <path clip-path="url(#p7af7553be8)" d="M 180.390613 273.312 
L 182.00396 273.312 
L 182.00396 65.342118 
L 180.390613 65.342118 
z
" style="fill:#1f77b4;"/>
   </g>
   <g id="patch_78">
    <path clip-path="url(#p7af7553be8)" d="M 182.00396 273.312 
L 183.617308 273.312 
L 183.617308 48.943059 
L 182.00396 48.943059 
z
" style="fill:#1f77b4;"/>
   </g>
   <g id="patch_79">
    <path clip-path="url(#p7af7553be8)" d="M 183.617308 273.312 
L 185.230656 273.312 
L 185.230656 43.725176 
L 183.617308 43.725176 
z
" style="fill:#1f77b4;"/>
   </g>
   <g id="patch_80">
    <path clip-path="url(#p7af7553be8)" d="M 185.230656 273.312 
L 186.844003 273.312 
L 186.844003 45.216 
L 185.230656 45.216 
z
" style="fill:#1f77b4;"/>
   </g>
   <g id="patch_81">
    <path clip-path="url(#p7af7553be8)" d="M 186.844003 273.312 
L 188.457351 273.312 
L 188.457351 66.087529 
L 186.844003 66.087529 
z
" style="fill:#1f77b4;"/>
   </g>
   <g id="patch_82">
    <path clip-path="url(#p7af7553be8)" d="M 188.457351 273.312 
L 190.070699 273.312 
L 190.070699 63.851294 
L 188.457351 63.851294 
z
" style="fill:#1f77b4;"/>
   </g>
   <g id="patch_83">
    <path clip-path="url(#p7af7553be8)" d="M 190.070699 273.312 
L 191.684046 273.312 
L 191.684046 43.725176 
L 190.070699 43.725176 
z
" style="fill:#1f77b4;"/>
   </g>
   <g id="patch_84">
    <path clip-path="url(#p7af7553be8)" d="M 191.684046 273.312 
L 193.297394 273.312 
L 193.297394 54.906353 
L 191.684046 54.906353 
z
" style="fill:#1f77b4;"/>
   </g>
   <g id="patch_85">
    <path clip-path="url(#p7af7553be8)" d="M 193.297394 273.312 
L 194.910742 273.312 
L 194.910742 38.507294 
L 193.297394 38.507294 
z
" style="fill:#1f77b4;"/>
   </g>
   <g id="patch_86">
    <path clip-path="url(#p7af7553be8)" d="M 194.910742 273.312 
L 196.524089 273.312 
L 196.524089 35.525647 
L 194.910742 35.525647 
z
" style="fill:#1f77b4;"/>
   </g>
   <g id="patch_87">
    <path clip-path="url(#p7af7553be8)" d="M 196.524089 273.312 
L 198.137437 273.312 
L 198.137437 37.761882 
L 196.524089 37.761882 
z
" style="fill:#1f77b4;"/>
   </g>
   <g id="patch_88">
    <path clip-path="url(#p7af7553be8)" d="M 198.137437 273.312 
L 199.750785 273.312 
L 199.750785 60.124235 
L 198.137437 60.124235 
z
" style="fill:#1f77b4;"/>
   </g>
   <g id="patch_89">
    <path clip-path="url(#p7af7553be8)" d="M 199.750785 273.312 
L 201.364132 273.312 
L 201.364132 54.160941 
L 199.750785 54.160941 
z
" style="fill:#1f77b4;"/>
   </g>
   <g id="patch_90">
    <path clip-path="url(#p7af7553be8)" d="M 201.364132 273.312 
L 202.97748 273.312 
L 202.97748 66.832941 
L 201.364132 66.832941 
z
" style="fill:#1f77b4;"/>
   </g>
   <g id="patch_91">
    <path clip-path="url(#p7af7553be8)" d="M 202.97748 273.312 
L 204.590828 273.312 
L 204.590828 28.816941 
L 202.97748 28.816941 
z
" style="fill:#1f77b4;"/>
   </g>
   <g id="patch_92">
    <path clip-path="url(#p7af7553be8)" d="M 204.590828 273.312 
L 206.204175 273.312 
L 206.204175 25.835294 
L 204.590828 25.835294 
z
" style="fill:#1f77b4;"/>
   </g>
   <g id="patch_93">
    <path clip-path="url(#p7af7553be8)" d="M 206.204175 273.312 
L 207.817523 273.312 
L 207.817523 27.326118 
L 206.204175 27.326118 
z
" style="fill:#1f77b4;"/>
   </g>
   <g id="patch_94">
    <path clip-path="url(#p7af7553be8)" d="M 207.817523 273.312 
L 209.430871 273.312 
L 209.430871 23.599059 
L 207.817523 23.599059 
z
" style="fill:#1f77b4;"/>
   </g>
   <g id="patch_95">
    <path clip-path="url(#p7af7553be8)" d="M 209.430871 273.312 
L 211.044218 273.312 
L 211.044218 55.651765 
L 209.430871 55.651765 
z
" style="fill:#1f77b4;"/>
   </g>
   <g id="patch_96">
    <path clip-path="url(#p7af7553be8)" d="M 211.044218 273.312 
L 212.657566 273.312 
L 212.657566 41.488941 
L 211.044218 41.488941 
z
" style="fill:#1f77b4;"/>
   </g>
   <g id="patch_97">
    <path clip-path="url(#p7af7553be8)" d="M 212.657566 273.312 
L 214.270914 273.312 
L 214.270914 46.706824 
L 212.657566 46.706824 
z
" style="fill:#1f77b4;"/>
   </g>
   <g id="patch_98">
    <path clip-path="url(#p7af7553be8)" d="M 214.270914 273.312 
L 215.884261 273.312 
L 215.884261 45.961412 
L 214.270914 45.961412 
z
" style="fill:#1f77b4;"/>
   </g>
   <g id="patch_99">
    <path clip-path="url(#p7af7553be8)" d="M 215.884261 273.312 
L 217.497609 273.312 
L 217.497609 29.562353 
L 215.884261 29.562353 
z
" style="fill:#1f77b4;"/>
   </g>
   <g id="patch_100">
    <path clip-path="url(#p7af7553be8)" d="M 217.497609 273.312 
L 219.110957 273.312 
L 219.110957 50.433882 
L 217.497609 50.433882 
z
" style="fill:#1f77b4;"/>
   </g>
   <g id="patch_101">
    <path clip-path="url(#p7af7553be8)" d="M 219.110957 273.312 
L 220.724304 273.312 
L 220.724304 44.470588 
L 219.110957 44.470588 
z
" style="fill:#1f77b4;"/>
   </g>
   <g id="patch_102">
    <path clip-path="url(#p7af7553be8)" d="M 220.724304 273.312 
L 222.337652 273.312 
L 222.337652 42.234353 
L 220.724304 42.234353 
z
" style="fill:#1f77b4;"/>
   </g>
   <g id="patch_103">
    <path clip-path="url(#p7af7553be8)" d="M 222.337652 273.312 
L 223.951 273.312 
L 223.951 38.507294 
L 222.337652 38.507294 
z
" style="fill:#1f77b4;"/>
   </g>
   <g id="patch_104">
    <path clip-path="url(#p7af7553be8)" d="M 223.951 273.312 
L 225.564347 273.312 
L 225.564347 43.725176 
L 223.951 43.725176 
z
" style="fill:#1f77b4;"/>
   </g>
   <g id="patch_105">
    <path clip-path="url(#p7af7553be8)" d="M 225.564347 273.312 
L 227.177695 273.312 
L 227.177695 53.415529 
L 225.564347 53.415529 
z
" style="fill:#1f77b4;"/>
   </g>
   <g id="patch_106">
    <path clip-path="url(#p7af7553be8)" d="M 227.177695 273.312 
L 228.791043 273.312 
L 228.791043 20.617412 
L 227.177695 20.617412 
z
" style="fill:#1f77b4;"/>
   </g>
   <g id="patch_107">
    <path clip-path="url(#p7af7553be8)" d="M 228.791043 273.312 
L 230.40439 273.312 
L 230.40439 45.961412 
L 228.791043 45.961412 
z
" style="fill:#1f77b4;"/>
   </g>
   <g id="patch_108">
    <path clip-path="url(#p7af7553be8)" d="M 230.40439 273.312 
L 232.017738 273.312 
L 232.017738 34.034824 
L 230.40439 34.034824 
z
" style="fill:#1f77b4;"/>
   </g>
   <g id="patch_109">
    <path clip-path="url(#p7af7553be8)" d="M 232.017738 273.312 
L 233.631086 273.312 
L 233.631086 45.216 
L 232.017738 45.216 
z
" style="fill:#1f77b4;"/>
   </g>
   <g id="patch_110">
    <path clip-path="url(#p7af7553be8)" d="M 233.631086 273.312 
L 235.244433 273.312 
L 235.244433 38.507294 
L 233.631086 38.507294 
z
" style="fill:#1f77b4;"/>
   </g>
   <g id="patch_111">
    <path clip-path="url(#p7af7553be8)" d="M 235.244433 273.312 
L 236.857781 273.312 
L 236.857781 25.089882 
L 235.244433 25.089882 
z
" style="fill:#1f77b4;"/>
   </g>
   <g id="patch_112">
    <path clip-path="url(#p7af7553be8)" d="M 236.857781 273.312 
L 238.471129 273.312 
L 238.471129 19.872 
L 236.857781 19.872 
z
" style="fill:#1f77b4;"/>
   </g>
   <g id="patch_113">
    <path clip-path="url(#p7af7553be8)" d="M 238.471129 273.312 
L 240.084476 273.312 
L 240.084476 55.651765 
L 238.471129 55.651765 
z
" style="fill:#1f77b4;"/>
   </g>
   <g id="patch_114">
    <path clip-path="url(#p7af7553be8)" d="M 240.084476 273.312 
L 241.697824 273.312 
L 241.697824 73.541647 
L 240.084476 73.541647 
z
" style="fill:#1f77b4;"/>
   </g>
   <g id="patch_115">
    <path clip-path="url(#p7af7553be8)" d="M 241.697824 273.312 
L 243.311172 273.312 
L 243.311172 28.071529 
L 241.697824 28.071529 
z
" style="fill:#1f77b4;"/>
   </g>
   <g id="patch_116">
    <path clip-path="url(#p7af7553be8)" d="M 243.311172 273.312 
L 244.924519 273.312 
L 244.924519 36.271059 
L 243.311172 36.271059 
z
" style="fill:#1f77b4;"/>
   </g>
   <g id="patch_117">
    <path clip-path="url(#p7af7553be8)" d="M 244.924519 273.312 
L 246.537867 273.312 
L 246.537867 70.56 
L 244.924519 70.56 
z
" style="fill:#1f77b4;"/>
   </g>
   <g id="patch_118">
    <path clip-path="url(#p7af7553be8)" d="M 246.537867 273.312 
L 248.151215 273.312 
L 248.151215 31.053176 
L 246.537867 31.053176 
z
" style="fill:#1f77b4;"/>
   </g>
   <g id="patch_119">
    <path clip-path="url(#p7af7553be8)" d="M 248.151215 273.312 
L 249.764562 273.312 
L 249.764562 42.234353 
L 248.151215 42.234353 
z
" style="fill:#1f77b4;"/>
   </g>
   <g id="patch_120">
    <path clip-path="url(#p7af7553be8)" d="M 249.764562 273.312 
L 251.37791 273.312 
L 251.37791 47.452235 
L 249.764562 47.452235 
z
" style="fill:#1f77b4;"/>
   </g>
   <g id="patch_121">
    <path clip-path="url(#p7af7553be8)" d="M 251.37791 273.312 
L 252.991258 273.312 
L 252.991258 39.998118 
L 251.37791 39.998118 
z
" style="fill:#1f77b4;"/>
   </g>
   <g id="patch_122">
    <path clip-path="url(#p7af7553be8)" d="M 252.991258 273.312 
L 254.604605 273.312 
L 254.604605 34.780235 
L 252.991258 34.780235 
z
" style="fill:#1f77b4;"/>
   </g>
   <g id="patch_123">
    <path clip-path="url(#p7af7553be8)" d="M 254.604605 273.312 
L 256.217953 273.312 
L 256.217953 68.323765 
L 254.604605 68.323765 
z
" style="fill:#1f77b4;"/>
   </g>
   <g id="patch_124">
    <path clip-path="url(#p7af7553be8)" d="M 256.217953 273.312 
L 257.831301 273.312 
L 257.831301 47.452235 
L 256.217953 47.452235 
z
" style="fill:#1f77b4;"/>
   </g>
   <g id="patch_125">
    <path clip-path="url(#p7af7553be8)" d="M 257.831301 273.312 
L 259.444648 273.312 
L 259.444648 43.725176 
L 257.831301 43.725176 
z
" style="fill:#1f77b4;"/>
   </g>
   <g id="patch_126">
    <path clip-path="url(#p7af7553be8)" d="M 259.444648 273.312 
L 261.057996 273.312 
L 261.057996 78.759529 
L 259.444648 78.759529 
z
" style="fill:#1f77b4;"/>
   </g>
   <g id="patch_127">
    <path clip-path="url(#p7af7553be8)" d="M 261.057996 273.312 
L 262.671344 273.312 
L 262.671344 36.271059 
L 261.057996 36.271059 
z
" style="fill:#1f77b4;"/>
   </g>
   <g id="patch_128">
    <path clip-path="url(#p7af7553be8)" d="M 262.671344 273.312 
L 264.284691 273.312 
L 264.284691 49.688471 
L 262.671344 49.688471 
z
" style="fill:#1f77b4;"/>
   </g>
   <g id="patch_129">
    <path clip-path="url(#p7af7553be8)" d="M 264.284691 273.312 
L 265.898039 273.312 
L 265.898039 51.179294 
L 264.284691 51.179294 
z
" style="fill:#1f77b4;"/>
   </g>
   <g id="patch_130">
    <path clip-path="url(#p7af7553be8)" d="M 265.898039 273.312 
L 267.511387 273.312 
L 267.511387 72.050824 
L 265.898039 72.050824 
z
" style="fill:#1f77b4;"/>
   </g>
   <g id="patch_131">
    <path clip-path="url(#p7af7553be8)" d="M 267.511387 273.312 
L 269.124734 273.312 
L 269.124734 57.888 
L 267.511387 57.888 
z
" style="fill:#1f77b4;"/>
   </g>
   <g id="patch_132">
    <path clip-path="url(#p7af7553be8)" d="M 269.124734 273.312 
L 270.738082 273.312 
L 270.738082 79.504941 
L 269.124734 79.504941 
z
" style="fill:#1f77b4;"/>
   </g>
   <g id="patch_133">
    <path clip-path="url(#p7af7553be8)" d="M 270.738082 273.312 
L 272.35143 273.312 
L 272.35143 72.050824 
L 270.738082 72.050824 
z
" style="fill:#1f77b4;"/>
   </g>
   <g id="patch_134">
    <path clip-path="url(#p7af7553be8)" d="M 272.35143 273.312 
L 273.964777 273.312 
L 273.964777 75.032471 
L 272.35143 75.032471 
z
" style="fill:#1f77b4;"/>
   </g>
   <g id="patch_135">
    <path clip-path="url(#p7af7553be8)" d="M 273.964777 273.312 
L 275.578125 273.312 
L 275.578125 86.959059 
L 273.964777 86.959059 
z
" style="fill:#1f77b4;"/>
   </g>
   <g id="patch_136">
    <path clip-path="url(#p7af7553be8)" d="M 275.578125 273.312 
L 277.191473 273.312 
L 277.191473 89.940706 
L 275.578125 89.940706 
z
" style="fill:#1f77b4;"/>
   </g>
   <g id="patch_137">
    <path clip-path="url(#p7af7553be8)" d="M 277.191473 273.312 
L 278.80482 273.312 
L 278.80482 64.596706 
L 277.191473 64.596706 
z
" style="fill:#1f77b4;"/>
   </g>
   <g id="patch_138">
    <path clip-path="url(#p7af7553be8)" d="M 278.80482 273.312 
L 280.418168 273.312 
L 280.418168 80.250353 
L 278.80482 80.250353 
z
" style="fill:#1f77b4;"/>
   </g>
   <g id="patch_139">
    <path clip-path="url(#p7af7553be8)" d="M 280.418168 273.312 
L 282.031516 273.312 
L 282.031516 58.633412 
L 280.418168 58.633412 
z
" style="fill:#1f77b4;"/>
   </g>
   <g id="patch_140">
    <path clip-path="url(#p7af7553be8)" d="M 282.031516 273.312 
L 283.644863 273.312 
L 283.644863 82.486588 
L 282.031516 82.486588 
z
" style="fill:#1f77b4;"/>
   </g>
   <g id="patch_141">
    <path clip-path="url(#p7af7553be8)" d="M 283.644863 273.312 
L 285.258211 273.312 
L 285.258211 84.722824 
L 283.644863 84.722824 
z
" style="fill:#1f77b4;"/>
   </g>
   <g id="patch_142">
    <path clip-path="url(#p7af7553be8)" d="M 285.258211 273.312 
L 286.871559 273.312 
L 286.871559 63.851294 
L 285.258211 63.851294 
z
" style="fill:#1f77b4;"/>
   </g>
   <g id="patch_143">
    <path clip-path="url(#p7af7553be8)" d="M 286.871559 273.312 
L 288.484906 273.312 
L 288.484906 86.959059 
L 286.871559 86.959059 
z
" style="fill:#1f77b4;"/>
   </g>
   <g id="patch_144">
    <path clip-path="url(#p7af7553be8)" d="M 288.484906 273.312 
L 290.098254 273.312 
L 290.098254 95.904 
L 288.484906 95.904 
z
" style="fill:#1f77b4;"/>
   </g>
   <g id="patch_145">
    <path clip-path="url(#p7af7553be8)" d="M 290.098254 273.312 
L 291.711602 273.312 
L 291.711602 89.940706 
L 290.098254 89.940706 
z
" style="fill:#1f77b4;"/>
   </g>
   <g id="patch_146">
    <path clip-path="url(#p7af7553be8)" d="M 291.711602 273.312 
L 293.324949 273.312 
L 293.324949 86.959059 
L 291.711602 86.959059 
z
" style="fill:#1f77b4;"/>
   </g>
   <g id="patch_147">
    <path clip-path="url(#p7af7553be8)" d="M 293.324949 273.312 
L 294.938297 273.312 
L 294.938297 93.667765 
L 293.324949 93.667765 
z
" style="fill:#1f77b4;"/>
   </g>
   <g id="patch_148">
    <path clip-path="url(#p7af7553be8)" d="M 294.938297 273.312 
L 296.551645 273.312 
L 296.551645 80.250353 
L 294.938297 80.250353 
z
" style="fill:#1f77b4;"/>
   </g>
   <g id="patch_149">
    <path clip-path="url(#p7af7553be8)" d="M 296.551645 273.312 
L 298.164992 273.312 
L 298.164992 103.358118 
L 296.551645 103.358118 
z
" style="fill:#1f77b4;"/>
   </g>
   <g id="patch_150">
    <path clip-path="url(#p7af7553be8)" d="M 298.164992 273.312 
L 299.77834 273.312 
L 299.77834 95.904 
L 298.164992 95.904 
z
" style="fill:#1f77b4;"/>
   </g>
   <g id="patch_151">
    <path clip-path="url(#p7af7553be8)" d="M 299.77834 273.312 
L 301.391688 273.312 
L 301.391688 116.775529 
L 299.77834 116.775529 
z
" style="fill:#1f77b4;"/>
   </g>
   <g id="patch_152">
    <path clip-path="url(#p7af7553be8)" d="M 301.391688 273.312 
L 303.005035 273.312 
L 303.005035 119.757176 
L 301.391688 119.757176 
z
" style="fill:#1f77b4;"/>
   </g>
   <g id="patch_153">
    <path clip-path="url(#p7af7553be8)" d="M 303.005035 273.312 
L 304.618383 273.312 
L 304.618383 107.085176 
L 303.005035 107.085176 
z
" style="fill:#1f77b4;"/>
   </g>
   <g id="patch_154">
    <path clip-path="url(#p7af7553be8)" d="M 304.618383 273.312 
L 306.231731 273.312 
L 306.231731 107.085176 
L 304.618383 107.085176 
z
" style="fill:#1f77b4;"/>
   </g>
   <g id="patch_155">
    <path clip-path="url(#p7af7553be8)" d="M 306.231731 273.312 
L 307.845078 273.312 
L 307.845078 93.667765 
L 306.231731 93.667765 
z
" style="fill:#1f77b4;"/>
   </g>
   <g id="patch_156">
    <path clip-path="url(#p7af7553be8)" d="M 307.845078 273.312 
L 309.458426 273.312 
L 309.458426 131.683765 
L 307.845078 131.683765 
z
" style="fill:#1f77b4;"/>
   </g>
   <g id="patch_157">
    <path clip-path="url(#p7af7553be8)" d="M 309.458426 273.312 
L 311.071774 273.312 
L 311.071774 128.702118 
L 309.458426 128.702118 
z
" style="fill:#1f77b4;"/>
   </g>
   <g id="patch_158">
    <path clip-path="url(#p7af7553be8)" d="M 311.071774 273.312 
L 312.685121 273.312 
L 312.685121 115.284706 
L 311.071774 115.284706 
z
" style="fill:#1f77b4;"/>
   </g>
   <g id="patch_159">
    <path clip-path="url(#p7af7553be8)" d="M 312.685121 273.312 
L 314.298469 273.312 
L 314.298469 125.720471 
L 312.685121 125.720471 
z
" style="fill:#1f77b4;"/>
   </g>
   <g id="patch_160">
    <path clip-path="url(#p7af7553be8)" d="M 314.298469 273.312 
L 315.911817 273.312 
L 315.911817 124.975059 
L 314.298469 124.975059 
z
" style="fill:#1f77b4;"/>
   </g>
   <g id="patch_161">
    <path clip-path="url(#p7af7553be8)" d="M 315.911817 273.312 
L 317.525164 273.312 
L 317.525164 151.064471 
L 315.911817 151.064471 
z
" style="fill:#1f77b4;"/>
   </g>
   <g id="patch_162">
    <path clip-path="url(#p7af7553be8)" d="M 317.525164 273.312 
L 319.138512 273.312 
L 319.138512 129.447529 
L 317.525164 129.447529 
z
" style="fill:#1f77b4;"/>
   </g>
   <g id="patch_163">
    <path clip-path="url(#p7af7553be8)" d="M 319.138512 273.312 
L 320.75186 273.312 
L 320.75186 146.592 
L 319.138512 146.592 
z
" style="fill:#1f77b4;"/>
   </g>
   <g id="patch_164">
    <path clip-path="url(#p7af7553be8)" d="M 320.75186 273.312 
L 322.365208 273.312 
L 322.365208 149.573647 
L 320.75186 149.573647 
z
" style="fill:#1f77b4;"/>
   </g>
   <g id="patch_165">
    <path clip-path="url(#p7af7553be8)" d="M 322.365208 273.312 
L 323.978555 273.312 
L 323.978555 139.883294 
L 322.365208 139.883294 
z
" style="fill:#1f77b4;"/>
   </g>
   <g id="patch_166">
    <path clip-path="url(#p7af7553be8)" d="M 323.978555 273.312 
L 325.591903 273.312 
L 325.591903 135.410824 
L 323.978555 135.410824 
z
" style="fill:#1f77b4;"/>
   </g>
   <g id="patch_167">
    <path clip-path="url(#p7af7553be8)" d="M 325.591903 273.312 
L 327.205251 273.312 
L 327.205251 128.702118 
L 325.591903 128.702118 
z
" style="fill:#1f77b4;"/>
   </g>
   <g id="patch_168">
    <path clip-path="url(#p7af7553be8)" d="M 327.205251 273.312 
L 328.818598 273.312 
L 328.818598 160.009412 
L 327.205251 160.009412 
z
" style="fill:#1f77b4;"/>
   </g>
   <g id="patch_169">
    <path clip-path="url(#p7af7553be8)" d="M 328.818598 273.312 
L 330.431946 273.312 
L 330.431946 155.536941 
L 328.818598 155.536941 
z
" style="fill:#1f77b4;"/>
   </g>
   <g id="patch_170">
    <path clip-path="url(#p7af7553be8)" d="M 330.431946 273.312 
L 332.045294 273.312 
L 332.045294 143.610353 
L 330.431946 143.610353 
z
" style="fill:#1f77b4;"/>
   </g>
   <g id="patch_171">
    <path clip-path="url(#p7af7553be8)" d="M 332.045294 273.312 
L 333.658641 273.312 
L 333.658641 154.046118 
L 332.045294 154.046118 
z
" style="fill:#1f77b4;"/>
   </g>
   <g id="patch_172">
    <path clip-path="url(#p7af7553be8)" d="M 333.658641 273.312 
L 335.271989 273.312 
L 335.271989 166.718118 
L 333.658641 166.718118 
z
" style="fill:#1f77b4;"/>
   </g>
   <g id="patch_173">
    <path clip-path="url(#p7af7553be8)" d="M 335.271989 273.312 
L 336.885337 273.312 
L 336.885337 173.426824 
L 335.271989 173.426824 
z
" style="fill:#1f77b4;"/>
   </g>
   <g id="patch_174">
    <path clip-path="url(#p7af7553be8)" d="M 336.885337 273.312 
L 338.498684 273.312 
L 338.498684 172.681412 
L 336.885337 172.681412 
z
" style="fill:#1f77b4;"/>
   </g>
   <g id="patch_175">
    <path clip-path="url(#p7af7553be8)" d="M 338.498684 273.312 
L 340.112032 273.312 
L 340.112032 187.589647 
L 338.498684 187.589647 
z
" style="fill:#1f77b4;"/>
   </g>
   <g id="patch_176">
    <path clip-path="url(#p7af7553be8)" d="M 340.112032 273.312 
L 341.72538 273.312 
L 341.72538 174.172235 
L 340.112032 174.172235 
z
" style="fill:#1f77b4;"/>
   </g>
   <g id="patch_177">
    <path clip-path="url(#p7af7553be8)" d="M 341.72538 273.312 
L 343.338727 273.312 
L 343.338727 192.062118 
L 341.72538 192.062118 
z
" style="fill:#1f77b4;"/>
   </g>
   <g id="patch_178">
    <path clip-path="url(#p7af7553be8)" d="M 343.338727 273.312 
L 344.952075 273.312 
L 344.952075 180.880941 
L 343.338727 180.880941 
z
" style="fill:#1f77b4;"/>
   </g>
   <g id="patch_179">
    <path clip-path="url(#p7af7553be8)" d="M 344.952075 273.312 
L 346.565423 273.312 
L 346.565423 197.28 
L 344.952075 197.28 
z
" style="fill:#1f77b4;"/>
   </g>
   <g id="patch_180">
    <path clip-path="url(#p7af7553be8)" d="M 346.565423 273.312 
L 348.17877 273.312 
L 348.17877 202.497882 
L 346.565423 202.497882 
z
" style="fill:#1f77b4;"/>
   </g>
   <g id="patch_181">
    <path clip-path="url(#p7af7553be8)" d="M 348.17877 273.312 
L 349.792118 273.312 
L 349.792118 186.844235 
L 348.17877 186.844235 
z
" style="fill:#1f77b4;"/>
   </g>
   <g id="patch_182">
    <path clip-path="url(#p7af7553be8)" d="M 349.792118 273.312 
L 351.405466 273.312 
L 351.405466 189.080471 
L 349.792118 189.080471 
z
" style="fill:#1f77b4;"/>
   </g>
   <g id="patch_183">
    <path clip-path="url(#p7af7553be8)" d="M 351.405466 273.312 
L 353.018813 273.312 
L 353.018813 193.552941 
L 351.405466 193.552941 
z
" style="fill:#1f77b4;"/>
   </g>
   <g id="patch_184">
    <path clip-path="url(#p7af7553be8)" d="M 353.018813 273.312 
L 354.632161 273.312 
L 354.632161 216.660706 
L 353.018813 216.660706 
z
" style="fill:#1f77b4;"/>
   </g>
   <g id="patch_185">
    <path clip-path="url(#p7af7553be8)" d="M 354.632161 273.312 
L 356.245509 273.312 
L 356.245509 203.243294 
L 354.632161 203.243294 
z
" style="fill:#1f77b4;"/>
   </g>
   <g id="patch_186">
    <path clip-path="url(#p7af7553be8)" d="M 356.245509 273.312 
L 357.858856 273.312 
L 357.858856 209.952 
L 356.245509 209.952 
z
" style="fill:#1f77b4;"/>
   </g>
   <g id="patch_187">
    <path clip-path="url(#p7af7553be8)" d="M 357.858856 273.312 
L 359.472204 273.312 
L 359.472204 209.952 
L 357.858856 209.952 
z
" style="fill:#1f77b4;"/>
   </g>
   <g id="patch_188">
    <path clip-path="url(#p7af7553be8)" d="M 359.472204 273.312 
L 361.085552 273.312 
L 361.085552 205.479529 
L 359.472204 205.479529 
z
" style="fill:#1f77b4;"/>
   </g>
   <g id="patch_189">
    <path clip-path="url(#p7af7553be8)" d="M 361.085552 273.312 
L 362.698899 273.312 
L 362.698899 212.933647 
L 361.085552 212.933647 
z
" style="fill:#1f77b4;"/>
   </g>
   <g id="patch_190">
    <path clip-path="url(#p7af7553be8)" d="M 362.698899 273.312 
L 364.312247 273.312 
L 364.312247 229.332706 
L 362.698899 229.332706 
z
" style="fill:#1f77b4;"/>
   </g>
   <g id="patch_191">
    <path clip-path="url(#p7af7553be8)" d="M 364.312247 273.312 
L 365.925595 273.312 
L 365.925595 232.314353 
L 364.312247 232.314353 
z
" style="fill:#1f77b4;"/>
   </g>
   <g id="patch_192">
    <path clip-path="url(#p7af7553be8)" d="M 365.925595 273.312 
L 367.538942 273.312 
L 367.538942 234.550588 
L 365.925595 234.550588 
z
" style="fill:#1f77b4;"/>
   </g>
   <g id="patch_193">
    <path clip-path="url(#p7af7553be8)" d="M 367.538942 273.312 
L 369.15229 273.312 
L 369.15229 239.023059 
L 367.538942 239.023059 
z
" style="fill:#1f77b4;"/>
   </g>
   <g id="patch_194">
    <path clip-path="url(#p7af7553be8)" d="M 369.15229 273.312 
L 370.765638 273.312 
L 370.765638 241.259294 
L 369.15229 241.259294 
z
" style="fill:#1f77b4;"/>
   </g>
   <g id="patch_195">
    <path clip-path="url(#p7af7553be8)" d="M 370.765638 273.312 
L 372.378985 273.312 
L 372.378985 250.204235 
L 370.765638 250.204235 
z
" style="fill:#1f77b4;"/>
   </g>
   <g id="patch_196">
    <path clip-path="url(#p7af7553be8)" d="M 372.378985 273.312 
L 373.992333 273.312 
L 373.992333 238.277647 
L 372.378985 238.277647 
z
" style="fill:#1f77b4;"/>
   </g>
   <g id="patch_197">
    <path clip-path="url(#p7af7553be8)" d="M 373.992333 273.312 
L 375.605681 273.312 
L 375.605681 251.695059 
L 373.992333 251.695059 
z
" style="fill:#1f77b4;"/>
   </g>
   <g id="patch_198">
    <path clip-path="url(#p7af7553be8)" d="M 375.605681 273.312 
L 377.219028 273.312 
L 377.219028 257.658353 
L 375.605681 257.658353 
z
" style="fill:#1f77b4;"/>
   </g>
   <g id="patch_199">
    <path clip-path="url(#p7af7553be8)" d="M 377.219028 273.312 
L 378.832376 273.312 
L 378.832376 256.912941 
L 377.219028 256.912941 
z
" style="fill:#1f77b4;"/>
   </g>
   <g id="patch_200">
    <path clip-path="url(#p7af7553be8)" d="M 378.832376 273.312 
L 380.445724 273.312 
L 380.445724 266.603294 
L 378.832376 266.603294 
z
" style="fill:#1f77b4;"/>
   </g>
   <g id="patch_201">
    <path clip-path="url(#p7af7553be8)" d="M 380.445724 273.312 
L 382.059071 273.312 
L 382.059071 265.857882 
L 380.445724 265.857882 
z
" style="fill:#1f77b4;"/>
   </g>
   <g id="patch_202">
    <path clip-path="url(#p7af7553be8)" d="M 382.059071 273.312 
L 383.672419 273.312 
L 383.672419 268.094118 
L 382.059071 268.094118 
z
" style="fill:#1f77b4;"/>
   </g>
   <g id="matplotlib.axis_1">
    <g id="xtick_1">
     <g id="line2d_1">
      <defs>
       <path d="M 0 0 
L 0 3.5 
" id="mdb9b37e76a" style="stroke:#000000;stroke-width:0.8;"/>
      </defs>
      <g>
       <use style="stroke:#000000;stroke-width:0.8;" x="60.013977" xlink:href="#mdb9b37e76a" y="273.312"/>
      </g>
     </g>
     <g id="text_1">
      <!-- 0.0 -->
      <g transform="translate(52.062415 287.910437)scale(0.1 -0.1)">
       <defs>
        <path d="M 2034 4250 
Q 1547 4250 1301 3770 
Q 1056 3291 1056 2328 
Q 1056 1369 1301 889 
Q 1547 409 2034 409 
Q 2525 409 2770 889 
Q 3016 1369 3016 2328 
Q 3016 3291 2770 3770 
Q 2525 4250 2034 4250 
z
M 2034 4750 
Q 2819 4750 3233 4129 
Q 3647 3509 3647 2328 
Q 3647 1150 3233 529 
Q 2819 -91 2034 -91 
Q 1250 -91 836 529 
Q 422 1150 422 2328 
Q 422 3509 836 4129 
Q 1250 4750 2034 4750 
z
" id="DejaVuSans-30" transform="scale(0.015625)"/>
        <path d="M 684 794 
L 1344 794 
L 1344 0 
L 684 0 
L 684 794 
z
" id="DejaVuSans-2e" transform="scale(0.015625)"/>
       </defs>
       <use xlink:href="#DejaVuSans-30"/>
       <use x="63.623047" xlink:href="#DejaVuSans-2e"/>
       <use x="95.410156" xlink:href="#DejaVuSans-30"/>
      </g>
     </g>
    </g>
    <g id="xtick_2">
     <g id="line2d_2">
      <g>
       <use style="stroke:#000000;stroke-width:0.8;" x="101.350278" xlink:href="#mdb9b37e76a" y="273.312"/>
      </g>
     </g>
     <g id="text_2">
      <!-- 0.2 -->
      <g transform="translate(93.398715 287.910437)scale(0.1 -0.1)">
       <defs>
        <path d="M 1228 531 
L 3431 531 
L 3431 0 
L 469 0 
L 469 531 
Q 828 903 1448 1529 
Q 2069 2156 2228 2338 
Q 2531 2678 2651 2914 
Q 2772 3150 2772 3378 
Q 2772 3750 2511 3984 
Q 2250 4219 1831 4219 
Q 1534 4219 1204 4116 
Q 875 4013 500 3803 
L 500 4441 
Q 881 4594 1212 4672 
Q 1544 4750 1819 4750 
Q 2544 4750 2975 4387 
Q 3406 4025 3406 3419 
Q 3406 3131 3298 2873 
Q 3191 2616 2906 2266 
Q 2828 2175 2409 1742 
Q 1991 1309 1228 531 
z
" id="DejaVuSans-32" transform="scale(0.015625)"/>
       </defs>
       <use xlink:href="#DejaVuSans-30"/>
       <use x="63.623047" xlink:href="#DejaVuSans-2e"/>
       <use x="95.410156" xlink:href="#DejaVuSans-32"/>
      </g>
     </g>
    </g>
    <g id="xtick_3">
     <g id="line2d_3">
      <g>
       <use style="stroke:#000000;stroke-width:0.8;" x="142.686578" xlink:href="#mdb9b37e76a" y="273.312"/>
      </g>
     </g>
     <g id="text_3">
      <!-- 0.4 -->
      <g transform="translate(134.735016 287.910437)scale(0.1 -0.1)">
       <defs>
        <path d="M 2419 4116 
L 825 1625 
L 2419 1625 
L 2419 4116 
z
M 2253 4666 
L 3047 4666 
L 3047 1625 
L 3713 1625 
L 3713 1100 
L 3047 1100 
L 3047 0 
L 2419 0 
L 2419 1100 
L 313 1100 
L 313 1709 
L 2253 4666 
z
" id="DejaVuSans-34" transform="scale(0.015625)"/>
       </defs>
       <use xlink:href="#DejaVuSans-30"/>
       <use x="63.623047" xlink:href="#DejaVuSans-2e"/>
       <use x="95.410156" xlink:href="#DejaVuSans-34"/>
      </g>
     </g>
    </g>
    <g id="xtick_4">
     <g id="line2d_4">
      <g>
       <use style="stroke:#000000;stroke-width:0.8;" x="184.022879" xlink:href="#mdb9b37e76a" y="273.312"/>
      </g>
     </g>
     <g id="text_4">
      <!-- 0.6 -->
      <g transform="translate(176.071316 287.910437)scale(0.1 -0.1)">
       <defs>
        <path d="M 2113 2584 
Q 1688 2584 1439 2293 
Q 1191 2003 1191 1497 
Q 1191 994 1439 701 
Q 1688 409 2113 409 
Q 2538 409 2786 701 
Q 3034 994 3034 1497 
Q 3034 2003 2786 2293 
Q 2538 2584 2113 2584 
z
M 3366 4563 
L 3366 3988 
Q 3128 4100 2886 4159 
Q 2644 4219 2406 4219 
Q 1781 4219 1451 3797 
Q 1122 3375 1075 2522 
Q 1259 2794 1537 2939 
Q 1816 3084 2150 3084 
Q 2853 3084 3261 2657 
Q 3669 2231 3669 1497 
Q 3669 778 3244 343 
Q 2819 -91 2113 -91 
Q 1303 -91 875 529 
Q 447 1150 447 2328 
Q 447 3434 972 4092 
Q 1497 4750 2381 4750 
Q 2619 4750 2861 4703 
Q 3103 4656 3366 4563 
z
" id="DejaVuSans-36" transform="scale(0.015625)"/>
       </defs>
       <use xlink:href="#DejaVuSans-30"/>
       <use x="63.623047" xlink:href="#DejaVuSans-2e"/>
       <use x="95.410156" xlink:href="#DejaVuSans-36"/>
      </g>
     </g>
    </g>
    <g id="xtick_5">
     <g id="line2d_5">
      <g>
       <use style="stroke:#000000;stroke-width:0.8;" x="225.35918" xlink:href="#mdb9b37e76a" y="273.312"/>
      </g>
     </g>
     <g id="text_5">
      <!-- 0.8 -->
      <g transform="translate(217.407617 287.910437)scale(0.1 -0.1)">
       <defs>
        <path d="M 2034 2216 
Q 1584 2216 1326 1975 
Q 1069 1734 1069 1313 
Q 1069 891 1326 650 
Q 1584 409 2034 409 
Q 2484 409 2743 651 
Q 3003 894 3003 1313 
Q 3003 1734 2745 1975 
Q 2488 2216 2034 2216 
z
M 1403 2484 
Q 997 2584 770 2862 
Q 544 3141 544 3541 
Q 544 4100 942 4425 
Q 1341 4750 2034 4750 
Q 2731 4750 3128 4425 
Q 3525 4100 3525 3541 
Q 3525 3141 3298 2862 
Q 3072 2584 2669 2484 
Q 3125 2378 3379 2068 
Q 3634 1759 3634 1313 
Q 3634 634 3220 271 
Q 2806 -91 2034 -91 
Q 1263 -91 848 271 
Q 434 634 434 1313 
Q 434 1759 690 2068 
Q 947 2378 1403 2484 
z
M 1172 3481 
Q 1172 3119 1398 2916 
Q 1625 2713 2034 2713 
Q 2441 2713 2670 2916 
Q 2900 3119 2900 3481 
Q 2900 3844 2670 4047 
Q 2441 4250 2034 4250 
Q 1625 4250 1398 4047 
Q 1172 3844 1172 3481 
z
" id="DejaVuSans-38" transform="scale(0.015625)"/>
       </defs>
       <use xlink:href="#DejaVuSans-30"/>
       <use x="63.623047" xlink:href="#DejaVuSans-2e"/>
       <use x="95.410156" xlink:href="#DejaVuSans-38"/>
      </g>
     </g>
    </g>
    <g id="xtick_6">
     <g id="line2d_6">
      <g>
       <use style="stroke:#000000;stroke-width:0.8;" x="266.69548" xlink:href="#mdb9b37e76a" y="273.312"/>
      </g>
     </g>
     <g id="text_6">
      <!-- 1.0 -->
      <g transform="translate(258.743918 287.910437)scale(0.1 -0.1)">
       <defs>
        <path d="M 794 531 
L 1825 531 
L 1825 4091 
L 703 3866 
L 703 4441 
L 1819 4666 
L 2450 4666 
L 2450 531 
L 3481 531 
L 3481 0 
L 794 0 
L 794 531 
z
" id="DejaVuSans-31" transform="scale(0.015625)"/>
       </defs>
       <use xlink:href="#DejaVuSans-31"/>
       <use x="63.623047" xlink:href="#DejaVuSans-2e"/>
       <use x="95.410156" xlink:href="#DejaVuSans-30"/>
      </g>
     </g>
    </g>
    <g id="xtick_7">
     <g id="line2d_7">
      <g>
       <use style="stroke:#000000;stroke-width:0.8;" x="308.031781" xlink:href="#mdb9b37e76a" y="273.312"/>
      </g>
     </g>
     <g id="text_7">
      <!-- 1.2 -->
      <g transform="translate(300.080218 287.910437)scale(0.1 -0.1)">
       <use xlink:href="#DejaVuSans-31"/>
       <use x="63.623047" xlink:href="#DejaVuSans-2e"/>
       <use x="95.410156" xlink:href="#DejaVuSans-32"/>
      </g>
     </g>
    </g>
    <g id="xtick_8">
     <g id="line2d_8">
      <g>
       <use style="stroke:#000000;stroke-width:0.8;" x="349.368081" xlink:href="#mdb9b37e76a" y="273.312"/>
      </g>
     </g>
     <g id="text_8">
      <!-- 1.4 -->
      <g transform="translate(341.416519 287.910437)scale(0.1 -0.1)">
       <use xlink:href="#DejaVuSans-31"/>
       <use x="63.623047" xlink:href="#DejaVuSans-2e"/>
       <use x="95.410156" xlink:href="#DejaVuSans-34"/>
      </g>
     </g>
    </g>
    <g id="xtick_9">
     <g id="line2d_9">
      <g>
       <use style="stroke:#000000;stroke-width:0.8;" x="390.704382" xlink:href="#mdb9b37e76a" y="273.312"/>
      </g>
     </g>
     <g id="text_9">
      <!-- 1.6 -->
      <g transform="translate(382.752819 287.910437)scale(0.1 -0.1)">
       <use xlink:href="#DejaVuSans-31"/>
       <use x="63.623047" xlink:href="#DejaVuSans-2e"/>
       <use x="95.410156" xlink:href="#DejaVuSans-36"/>
      </g>
     </g>
    </g>
    <g id="text_10">
     <!-- Angle with normal (rad) -->
     <g transform="translate(163.023281 301.588562)scale(0.1 -0.1)">
      <defs>
       <path d="M 2188 4044 
L 1331 1722 
L 3047 1722 
L 2188 4044 
z
M 1831 4666 
L 2547 4666 
L 4325 0 
L 3669 0 
L 3244 1197 
L 1141 1197 
L 716 0 
L 50 0 
L 1831 4666 
z
" id="DejaVuSans-41" transform="scale(0.015625)"/>
       <path d="M 3513 2113 
L 3513 0 
L 2938 0 
L 2938 2094 
Q 2938 2591 2744 2837 
Q 2550 3084 2163 3084 
Q 1697 3084 1428 2787 
Q 1159 2491 1159 1978 
L 1159 0 
L 581 0 
L 581 3500 
L 1159 3500 
L 1159 2956 
Q 1366 3272 1645 3428 
Q 1925 3584 2291 3584 
Q 2894 3584 3203 3211 
Q 3513 2838 3513 2113 
z
" id="DejaVuSans-6e" transform="scale(0.015625)"/>
       <path d="M 2906 1791 
Q 2906 2416 2648 2759 
Q 2391 3103 1925 3103 
Q 1463 3103 1205 2759 
Q 947 2416 947 1791 
Q 947 1169 1205 825 
Q 1463 481 1925 481 
Q 2391 481 2648 825 
Q 2906 1169 2906 1791 
z
M 3481 434 
Q 3481 -459 3084 -895 
Q 2688 -1331 1869 -1331 
Q 1566 -1331 1297 -1286 
Q 1028 -1241 775 -1147 
L 775 -588 
Q 1028 -725 1275 -790 
Q 1522 -856 1778 -856 
Q 2344 -856 2625 -561 
Q 2906 -266 2906 331 
L 2906 616 
Q 2728 306 2450 153 
Q 2172 0 1784 0 
Q 1141 0 747 490 
Q 353 981 353 1791 
Q 353 2603 747 3093 
Q 1141 3584 1784 3584 
Q 2172 3584 2450 3431 
Q 2728 3278 2906 2969 
L 2906 3500 
L 3481 3500 
L 3481 434 
z
" id="DejaVuSans-67" transform="scale(0.015625)"/>
       <path d="M 603 4863 
L 1178 4863 
L 1178 0 
L 603 0 
L 603 4863 
z
" id="DejaVuSans-6c" transform="scale(0.015625)"/>
       <path d="M 3597 1894 
L 3597 1613 
L 953 1613 
Q 991 1019 1311 708 
Q 1631 397 2203 397 
Q 2534 397 2845 478 
Q 3156 559 3463 722 
L 3463 178 
Q 3153 47 2828 -22 
Q 2503 -91 2169 -91 
Q 1331 -91 842 396 
Q 353 884 353 1716 
Q 353 2575 817 3079 
Q 1281 3584 2069 3584 
Q 2775 3584 3186 3129 
Q 3597 2675 3597 1894 
z
M 3022 2063 
Q 3016 2534 2758 2815 
Q 2500 3097 2075 3097 
Q 1594 3097 1305 2825 
Q 1016 2553 972 2059 
L 3022 2063 
z
" id="DejaVuSans-65" transform="scale(0.015625)"/>
       <path id="DejaVuSans-20" transform="scale(0.015625)"/>
       <path d="M 269 3500 
L 844 3500 
L 1563 769 
L 2278 3500 
L 2956 3500 
L 3675 769 
L 4391 3500 
L 4966 3500 
L 4050 0 
L 3372 0 
L 2619 2869 
L 1863 0 
L 1184 0 
L 269 3500 
z
" id="DejaVuSans-77" transform="scale(0.015625)"/>
       <path d="M 603 3500 
L 1178 3500 
L 1178 0 
L 603 0 
L 603 3500 
z
M 603 4863 
L 1178 4863 
L 1178 4134 
L 603 4134 
L 603 4863 
z
" id="DejaVuSans-69" transform="scale(0.015625)"/>
       <path d="M 1172 4494 
L 1172 3500 
L 2356 3500 
L 2356 3053 
L 1172 3053 
L 1172 1153 
Q 1172 725 1289 603 
Q 1406 481 1766 481 
L 2356 481 
L 2356 0 
L 1766 0 
Q 1100 0 847 248 
Q 594 497 594 1153 
L 594 3053 
L 172 3053 
L 172 3500 
L 594 3500 
L 594 4494 
L 1172 4494 
z
" id="DejaVuSans-74" transform="scale(0.015625)"/>
       <path d="M 3513 2113 
L 3513 0 
L 2938 0 
L 2938 2094 
Q 2938 2591 2744 2837 
Q 2550 3084 2163 3084 
Q 1697 3084 1428 2787 
Q 1159 2491 1159 1978 
L 1159 0 
L 581 0 
L 581 4863 
L 1159 4863 
L 1159 2956 
Q 1366 3272 1645 3428 
Q 1925 3584 2291 3584 
Q 2894 3584 3203 3211 
Q 3513 2838 3513 2113 
z
" id="DejaVuSans-68" transform="scale(0.015625)"/>
       <path d="M 1959 3097 
Q 1497 3097 1228 2736 
Q 959 2375 959 1747 
Q 959 1119 1226 758 
Q 1494 397 1959 397 
Q 2419 397 2687 759 
Q 2956 1122 2956 1747 
Q 2956 2369 2687 2733 
Q 2419 3097 1959 3097 
z
M 1959 3584 
Q 2709 3584 3137 3096 
Q 3566 2609 3566 1747 
Q 3566 888 3137 398 
Q 2709 -91 1959 -91 
Q 1206 -91 779 398 
Q 353 888 353 1747 
Q 353 2609 779 3096 
Q 1206 3584 1959 3584 
z
" id="DejaVuSans-6f" transform="scale(0.015625)"/>
       <path d="M 2631 2963 
Q 2534 3019 2420 3045 
Q 2306 3072 2169 3072 
Q 1681 3072 1420 2755 
Q 1159 2438 1159 1844 
L 1159 0 
L 581 0 
L 581 3500 
L 1159 3500 
L 1159 2956 
Q 1341 3275 1631 3429 
Q 1922 3584 2338 3584 
Q 2397 3584 2469 3576 
Q 2541 3569 2628 3553 
L 2631 2963 
z
" id="DejaVuSans-72" transform="scale(0.015625)"/>
       <path d="M 3328 2828 
Q 3544 3216 3844 3400 
Q 4144 3584 4550 3584 
Q 5097 3584 5394 3201 
Q 5691 2819 5691 2113 
L 5691 0 
L 5113 0 
L 5113 2094 
Q 5113 2597 4934 2840 
Q 4756 3084 4391 3084 
Q 3944 3084 3684 2787 
Q 3425 2491 3425 1978 
L 3425 0 
L 2847 0 
L 2847 2094 
Q 2847 2600 2669 2842 
Q 2491 3084 2119 3084 
Q 1678 3084 1418 2786 
Q 1159 2488 1159 1978 
L 1159 0 
L 581 0 
L 581 3500 
L 1159 3500 
L 1159 2956 
Q 1356 3278 1631 3431 
Q 1906 3584 2284 3584 
Q 2666 3584 2933 3390 
Q 3200 3197 3328 2828 
z
" id="DejaVuSans-6d" transform="scale(0.015625)"/>
       <path d="M 2194 1759 
Q 1497 1759 1228 1600 
Q 959 1441 959 1056 
Q 959 750 1161 570 
Q 1363 391 1709 391 
Q 2188 391 2477 730 
Q 2766 1069 2766 1631 
L 2766 1759 
L 2194 1759 
z
M 3341 1997 
L 3341 0 
L 2766 0 
L 2766 531 
Q 2569 213 2275 61 
Q 1981 -91 1556 -91 
Q 1019 -91 701 211 
Q 384 513 384 1019 
Q 384 1609 779 1909 
Q 1175 2209 1959 2209 
L 2766 2209 
L 2766 2266 
Q 2766 2663 2505 2880 
Q 2244 3097 1772 3097 
Q 1472 3097 1187 3025 
Q 903 2953 641 2809 
L 641 3341 
Q 956 3463 1253 3523 
Q 1550 3584 1831 3584 
Q 2591 3584 2966 3190 
Q 3341 2797 3341 1997 
z
" id="DejaVuSans-61" transform="scale(0.015625)"/>
       <path d="M 1984 4856 
Q 1566 4138 1362 3434 
Q 1159 2731 1159 2009 
Q 1159 1288 1364 580 
Q 1569 -128 1984 -844 
L 1484 -844 
Q 1016 -109 783 600 
Q 550 1309 550 2009 
Q 550 2706 781 3412 
Q 1013 4119 1484 4856 
L 1984 4856 
z
" id="DejaVuSans-28" transform="scale(0.015625)"/>
       <path d="M 2906 2969 
L 2906 4863 
L 3481 4863 
L 3481 0 
L 2906 0 
L 2906 525 
Q 2725 213 2448 61 
Q 2172 -91 1784 -91 
Q 1150 -91 751 415 
Q 353 922 353 1747 
Q 353 2572 751 3078 
Q 1150 3584 1784 3584 
Q 2172 3584 2448 3432 
Q 2725 3281 2906 2969 
z
M 947 1747 
Q 947 1113 1208 752 
Q 1469 391 1925 391 
Q 2381 391 2643 752 
Q 2906 1113 2906 1747 
Q 2906 2381 2643 2742 
Q 2381 3103 1925 3103 
Q 1469 3103 1208 2742 
Q 947 2381 947 1747 
z
" id="DejaVuSans-64" transform="scale(0.015625)"/>
       <path d="M 513 4856 
L 1013 4856 
Q 1481 4119 1714 3412 
Q 1947 2706 1947 2009 
Q 1947 1309 1714 600 
Q 1481 -109 1013 -844 
L 513 -844 
Q 928 -128 1133 580 
Q 1338 1288 1338 2009 
Q 1338 2731 1133 3434 
Q 928 4138 513 4856 
z
" id="DejaVuSans-29" transform="scale(0.015625)"/>
      </defs>
      <use xlink:href="#DejaVuSans-41"/>
      <use x="68.408203" xlink:href="#DejaVuSans-6e"/>
      <use x="131.787109" xlink:href="#DejaVuSans-67"/>
      <use x="195.263672" xlink:href="#DejaVuSans-6c"/>
      <use x="223.046875" xlink:href="#DejaVuSans-65"/>
      <use x="284.570312" xlink:href="#DejaVuSans-20"/>
      <use x="316.357422" xlink:href="#DejaVuSans-77"/>
      <use x="398.144531" xlink:href="#DejaVuSans-69"/>
      <use x="425.927734" xlink:href="#DejaVuSans-74"/>
      <use x="465.136719" xlink:href="#DejaVuSans-68"/>
      <use x="528.515625" xlink:href="#DejaVuSans-20"/>
      <use x="560.302734" xlink:href="#DejaVuSans-6e"/>
      <use x="623.681641" xlink:href="#DejaVuSans-6f"/>
      <use x="684.863281" xlink:href="#DejaVuSans-72"/>
      <use x="724.226562" xlink:href="#DejaVuSans-6d"/>
      <use x="821.638672" xlink:href="#DejaVuSans-61"/>
      <use x="882.917969" xlink:href="#DejaVuSans-6c"/>
      <use x="910.701172" xlink:href="#DejaVuSans-20"/>
      <use x="942.488281" xlink:href="#DejaVuSans-28"/>
      <use x="981.501953" xlink:href="#DejaVuSans-72"/>
      <use x="1022.615234" xlink:href="#DejaVuSans-61"/>
      <use x="1083.894531" xlink:href="#DejaVuSans-64"/>
      <use x="1147.371094" xlink:href="#DejaVuSans-29"/>
     </g>
    </g>
   </g>
   <g id="matplotlib.axis_2">
    <g id="ytick_1">
     <g id="line2d_10">
      <defs>
       <path d="M 0 0 
L -3.5 0 
" id="mc3e4304630" style="stroke:#000000;stroke-width:0.8;"/>
      </defs>
      <g>
       <use style="stroke:#000000;stroke-width:0.8;" x="43.78125" xlink:href="#mc3e4304630" y="273.312"/>
      </g>
     </g>
     <g id="text_11">
      <!-- 0.0 -->
      <g transform="translate(20.878125 277.111219)scale(0.1 -0.1)">
       <use xlink:href="#DejaVuSans-30"/>
       <use x="63.623047" xlink:href="#DejaVuSans-2e"/>
       <use x="95.410156" xlink:href="#DejaVuSans-30"/>
      </g>
     </g>
    </g>
    <g id="ytick_2">
     <g id="line2d_11">
      <g>
       <use style="stroke:#000000;stroke-width:0.8;" x="43.78125" xlink:href="#mc3e4304630" y="226.762761"/>
      </g>
     </g>
     <g id="text_12">
      <!-- 0.2 -->
      <g transform="translate(20.878125 230.56198)scale(0.1 -0.1)">
       <use xlink:href="#DejaVuSans-30"/>
       <use x="63.623047" xlink:href="#DejaVuSans-2e"/>
       <use x="95.410156" xlink:href="#DejaVuSans-32"/>
      </g>
     </g>
    </g>
    <g id="ytick_3">
     <g id="line2d_12">
      <g>
       <use style="stroke:#000000;stroke-width:0.8;" x="43.78125" xlink:href="#mc3e4304630" y="180.213522"/>
      </g>
     </g>
     <g id="text_13">
      <!-- 0.4 -->
      <g transform="translate(20.878125 184.012741)scale(0.1 -0.1)">
       <use xlink:href="#DejaVuSans-30"/>
       <use x="63.623047" xlink:href="#DejaVuSans-2e"/>
       <use x="95.410156" xlink:href="#DejaVuSans-34"/>
      </g>
     </g>
    </g>
    <g id="ytick_4">
     <g id="line2d_13">
      <g>
       <use style="stroke:#000000;stroke-width:0.8;" x="43.78125" xlink:href="#mc3e4304630" y="133.664283"/>
      </g>
     </g>
     <g id="text_14">
      <!-- 0.6 -->
      <g transform="translate(20.878125 137.463502)scale(0.1 -0.1)">
       <use xlink:href="#DejaVuSans-30"/>
       <use x="63.623047" xlink:href="#DejaVuSans-2e"/>
       <use x="95.410156" xlink:href="#DejaVuSans-36"/>
      </g>
     </g>
    </g>
    <g id="ytick_5">
     <g id="line2d_14">
      <g>
       <use style="stroke:#000000;stroke-width:0.8;" x="43.78125" xlink:href="#mc3e4304630" y="87.115044"/>
      </g>
     </g>
     <g id="text_15">
      <!-- 0.8 -->
      <g transform="translate(20.878125 90.914263)scale(0.1 -0.1)">
       <use xlink:href="#DejaVuSans-30"/>
       <use x="63.623047" xlink:href="#DejaVuSans-2e"/>
       <use x="95.410156" xlink:href="#DejaVuSans-38"/>
      </g>
     </g>
    </g>
    <g id="ytick_6">
     <g id="line2d_15">
      <g>
       <use style="stroke:#000000;stroke-width:0.8;" x="43.78125" xlink:href="#mc3e4304630" y="40.565805"/>
      </g>
     </g>
     <g id="text_16">
      <!-- 1.0 -->
      <g transform="translate(20.878125 44.365024)scale(0.1 -0.1)">
       <use xlink:href="#DejaVuSans-31"/>
       <use x="63.623047" xlink:href="#DejaVuSans-2e"/>
       <use x="95.410156" xlink:href="#DejaVuSans-30"/>
      </g>
     </g>
    </g>
    <g id="text_17">
     <!-- Probability density -->
     <g transform="translate(14.798438 186.606781)rotate(-90)scale(0.1 -0.1)">
      <defs>
       <path d="M 1259 4147 
L 1259 2394 
L 2053 2394 
Q 2494 2394 2734 2622 
Q 2975 2850 2975 3272 
Q 2975 3691 2734 3919 
Q 2494 4147 2053 4147 
L 1259 4147 
z
M 628 4666 
L 2053 4666 
Q 2838 4666 3239 4311 
Q 3641 3956 3641 3272 
Q 3641 2581 3239 2228 
Q 2838 1875 2053 1875 
L 1259 1875 
L 1259 0 
L 628 0 
L 628 4666 
z
" id="DejaVuSans-50" transform="scale(0.015625)"/>
       <path d="M 3116 1747 
Q 3116 2381 2855 2742 
Q 2594 3103 2138 3103 
Q 1681 3103 1420 2742 
Q 1159 2381 1159 1747 
Q 1159 1113 1420 752 
Q 1681 391 2138 391 
Q 2594 391 2855 752 
Q 3116 1113 3116 1747 
z
M 1159 2969 
Q 1341 3281 1617 3432 
Q 1894 3584 2278 3584 
Q 2916 3584 3314 3078 
Q 3713 2572 3713 1747 
Q 3713 922 3314 415 
Q 2916 -91 2278 -91 
Q 1894 -91 1617 61 
Q 1341 213 1159 525 
L 1159 0 
L 581 0 
L 581 4863 
L 1159 4863 
L 1159 2969 
z
" id="DejaVuSans-62" transform="scale(0.015625)"/>
       <path d="M 2059 -325 
Q 1816 -950 1584 -1140 
Q 1353 -1331 966 -1331 
L 506 -1331 
L 506 -850 
L 844 -850 
Q 1081 -850 1212 -737 
Q 1344 -625 1503 -206 
L 1606 56 
L 191 3500 
L 800 3500 
L 1894 763 
L 2988 3500 
L 3597 3500 
L 2059 -325 
z
" id="DejaVuSans-79" transform="scale(0.015625)"/>
       <path d="M 2834 3397 
L 2834 2853 
Q 2591 2978 2328 3040 
Q 2066 3103 1784 3103 
Q 1356 3103 1142 2972 
Q 928 2841 928 2578 
Q 928 2378 1081 2264 
Q 1234 2150 1697 2047 
L 1894 2003 
Q 2506 1872 2764 1633 
Q 3022 1394 3022 966 
Q 3022 478 2636 193 
Q 2250 -91 1575 -91 
Q 1294 -91 989 -36 
Q 684 19 347 128 
L 347 722 
Q 666 556 975 473 
Q 1284 391 1588 391 
Q 1994 391 2212 530 
Q 2431 669 2431 922 
Q 2431 1156 2273 1281 
Q 2116 1406 1581 1522 
L 1381 1569 
Q 847 1681 609 1914 
Q 372 2147 372 2553 
Q 372 3047 722 3315 
Q 1072 3584 1716 3584 
Q 2034 3584 2315 3537 
Q 2597 3491 2834 3397 
z
" id="DejaVuSans-73" transform="scale(0.015625)"/>
      </defs>
      <use xlink:href="#DejaVuSans-50"/>
      <use x="58.552734" xlink:href="#DejaVuSans-72"/>
      <use x="97.416016" xlink:href="#DejaVuSans-6f"/>
      <use x="158.597656" xlink:href="#DejaVuSans-62"/>
      <use x="222.074219" xlink:href="#DejaVuSans-61"/>
      <use x="283.353516" xlink:href="#DejaVuSans-62"/>
      <use x="346.830078" xlink:href="#DejaVuSans-69"/>
      <use x="374.613281" xlink:href="#DejaVuSans-6c"/>
      <use x="402.396484" xlink:href="#DejaVuSans-69"/>
      <use x="430.179688" xlink:href="#DejaVuSans-74"/>
      <use x="469.388672" xlink:href="#DejaVuSans-79"/>
      <use x="528.568359" xlink:href="#DejaVuSans-20"/>
      <use x="560.355469" xlink:href="#DejaVuSans-64"/>
      <use x="623.832031" xlink:href="#DejaVuSans-65"/>
      <use x="685.355469" xlink:href="#DejaVuSans-6e"/>
      <use x="748.734375" xlink:href="#DejaVuSans-73"/>
      <use x="800.833984" xlink:href="#DejaVuSans-69"/>
      <use x="828.617188" xlink:href="#DejaVuSans-74"/>
      <use x="867.826172" xlink:href="#DejaVuSans-79"/>
     </g>
    </g>
   </g>
   <g id="line2d_16">
    <path clip-path="url(#p7af7553be8)" d="M 60.013977 273.312 
L 79.837728 228.937857 
L 90.237073 206.209133 
L 99.01152 187.550754 
L 106.811029 171.480184 
L 113.960578 157.255979 
L 120.460169 144.804995 
L 126.63478 133.446518 
L 132.484411 123.145683 
L 138.009063 113.858259 
L 143.208736 105.532898 
L 148.408408 97.63221 
L 153.283101 90.628804 
L 157.832814 84.458669 
L 162.382528 78.654532 
L 166.607261 73.602538 
L 170.831995 68.884273 
L 175.056729 64.507621 
L 178.956483 60.777176 
L 182.856238 57.34936 
L 186.755992 54.229053 
L 190.330767 51.642713 
L 193.905542 49.321599 
L 197.480316 47.268488 
L 201.055091 45.485837 
L 204.304886 44.101743 
L 207.554682 42.944305 
L 210.804477 42.014667 
L 214.054272 41.313749 
L 217.304067 40.842244 
L 220.553863 40.600618 
L 223.803658 40.58911 
L 227.053453 40.807731 
L 230.303248 41.256266 
L 233.553044 41.93427 
L 236.802839 42.841073 
L 240.052634 43.975779 
L 243.302429 45.337265 
L 246.552225 46.924186 
L 250.126999 48.928295 
L 253.701774 51.200879 
L 257.276549 53.739217 
L 260.851324 56.540273 
L 264.751078 59.891652 
L 268.650832 63.546921 
L 272.550587 67.500875 
L 276.77532 72.114842 
L 281.000054 77.065023 
L 285.224788 82.343148 
L 289.774501 88.383906 
L 294.324215 94.783055 
L 299.198908 102.022888 
L 304.39858 110.164985 
L 309.598252 118.720032 
L 315.122904 128.237999 
L 320.972536 138.767067 
L 327.147147 150.347952 
L 333.646737 163.011665 
L 340.796287 177.443552 
L 348.595795 193.708113 
L 357.370243 212.542781 
L 367.769587 235.421266 
L 382.393666 268.188934 
L 384.668523 273.312 
L 384.668523 273.312 
" style="fill:none;stroke:#ff7f0e;stroke-linecap:square;stroke-width:1.5;"/>
   </g>
   <g id="patch_203">
    <path d="M 43.78125 273.312 
L 43.78125 7.2 
" style="fill:none;stroke:#000000;stroke-linecap:square;stroke-linejoin:miter;stroke-width:0.8;"/>
   </g>
   <g id="patch_204">
    <path d="M 400.90125 273.312 
L 400.90125 7.2 
" style="fill:none;stroke:#000000;stroke-linecap:square;stroke-linejoin:miter;stroke-width:0.8;"/>
   </g>
   <g id="patch_205">
    <path d="M 43.78125 273.312 
L 400.90125 273.312 
" style="fill:none;stroke:#000000;stroke-linecap:square;stroke-linejoin:miter;stroke-width:0.8;"/>
   </g>
   <g id="patch_206">
    <path d="M 43.78125 7.2 
L 400.90125 7.2 
" style="fill:none;stroke:#000000;stroke-linecap:square;stroke-linejoin:miter;stroke-width:0.8;"/>
   </g>
  </g>
 </g>
 <defs>
  <clipPath id="p7af7553be8">
   <rect height="266.112" width="357.12" x="43.78125" y="7.2"/>
  </clipPath>
 </defs>
</svg>
