<?xml version="1.0" encoding="utf-8" standalone="no"?>
<!DOCTYPE svg PUBLIC "-//W3C//DTD SVG 1.1//EN"
  "http://www.w3.org/Graphics/SVG/1.1/DTD/svg11.dtd">
<svg height="310.86825pt" version="1.1" viewBox="0 0 408.10125 310.86825" width="408.10125pt" xmlns="http://www.w3.org/2000/svg" xmlns:xlink="http://www.w3.org/1999/xlink">
 <metadata>
  <rdf:RDF xmlns:cc="http://creativecommons.org/ns#" xmlns:dc="http://purl.org/dc/elements/1.1/" xmlns:rdf="http://www.w3.org/1999/02/22-rdf-syntax-ns#">
   <cc:Work>
    <dc:type rdf:resource="http://purl.org/dc/dcmitype/StillImage"/>
    <dc:date>2021-07-13T13:16:20.606006</dc:date>
    <dc:format>image/svg+xml</dc:format>
    <dc:creator>
     <cc:Agent>
      <dc:title>Matplotlib v3.4.2, https://matplotlib.org/</dc:title>
     </cc:Agent>
    </dc:creator>
   </cc:Work>
  </rdf:RDF>
 </metadata>
 <defs>
  <style type="text/css">*{stroke-linecap:butt;stroke-linejoin:round;}</style>
 </defs>
 <g id="figure_1">
  <g id="patch_1">
   <path d="M 0 310.86825 
L 408.10125 310.86825 
L 408.10125 0 
L 0 0 
z
" style="fill:#ffffff;"/>
  </g>
  <g id="axes_1">
   <g id="patch_2">
    <path d="M 43.78125 273.312 
L 400.90125 273.312 
L 400.90125 7.2 
L 43.78125 7.2 
z
" style="fill:#ffffff;"/>
   </g>
   <g id="patch_3">
    <path clip-path="url(#pe7ec0b71ea)" d="M 60.560825 273.312 
L 62.17709 273.312 
L 62.17709 268.929752 
L 60.560825 268.929752 
z
" style="fill:#1f77b4;"/>
   </g>
   <g id="patch_4">
    <path clip-path="url(#pe7ec0b71ea)" d="M 62.17709 273.312 
L 63.793354 273.312 
L 63.793354 263.086755 
L 62.17709 263.086755 
z
" style="fill:#1f77b4;"/>
   </g>
   <g id="patch_5">
    <path clip-path="url(#pe7ec0b71ea)" d="M 63.793354 273.312 
L 65.409619 273.312 
L 65.409619 260.165256 
L 63.793354 260.165256 
z
" style="fill:#1f77b4;"/>
   </g>
   <g id="patch_6">
    <path clip-path="url(#pe7ec0b71ea)" d="M 65.409619 273.312 
L 67.025883 273.312 
L 67.025883 259.434882 
L 65.409619 259.434882 
z
" style="fill:#1f77b4;"/>
   </g>
   <g id="patch_7">
    <path clip-path="url(#pe7ec0b71ea)" d="M 67.025883 273.312 
L 68.642148 273.312 
L 68.642148 256.513383 
L 67.025883 256.513383 
z
" style="fill:#1f77b4;"/>
   </g>
   <g id="patch_8">
    <path clip-path="url(#pe7ec0b71ea)" d="M 68.642148 273.312 
L 70.258413 273.312 
L 70.258413 246.288138 
L 68.642148 246.288138 
z
" style="fill:#1f77b4;"/>
   </g>
   <g id="patch_9">
    <path clip-path="url(#pe7ec0b71ea)" d="M 70.258413 273.312 
L 71.874677 273.312 
L 71.874677 242.636265 
L 70.258413 242.636265 
z
" style="fill:#1f77b4;"/>
   </g>
   <g id="patch_10">
    <path clip-path="url(#pe7ec0b71ea)" d="M 71.874677 273.312 
L 73.490942 273.312 
L 73.490942 246.288138 
L 71.874677 246.288138 
z
" style="fill:#1f77b4;"/>
   </g>
   <g id="patch_11">
    <path clip-path="url(#pe7ec0b71ea)" d="M 73.490942 273.312 
L 75.107206 273.312 
L 75.107206 245.557764 
L 73.490942 245.557764 
z
" style="fill:#1f77b4;"/>
   </g>
   <g id="patch_12">
    <path clip-path="url(#pe7ec0b71ea)" d="M 75.107206 273.312 
L 76.723471 273.312 
L 76.723471 241.90589 
L 75.107206 241.90589 
z
" style="fill:#1f77b4;"/>
   </g>
   <g id="patch_13">
    <path clip-path="url(#pe7ec0b71ea)" d="M 76.723471 273.312 
L 78.339736 273.312 
L 78.339736 233.141395 
L 76.723471 233.141395 
z
" style="fill:#1f77b4;"/>
   </g>
   <g id="patch_14">
    <path clip-path="url(#pe7ec0b71ea)" d="M 78.339736 273.312 
L 79.956 273.312 
L 79.956 228.028772 
L 78.339736 228.028772 
z
" style="fill:#1f77b4;"/>
   </g>
   <g id="patch_15">
    <path clip-path="url(#pe7ec0b71ea)" d="M 79.956 273.312 
L 81.572265 273.312 
L 81.572265 225.837648 
L 79.956 225.837648 
z
" style="fill:#1f77b4;"/>
   </g>
   <g id="patch_16">
    <path clip-path="url(#pe7ec0b71ea)" d="M 81.572265 273.312 
L 83.188529 273.312 
L 83.188529 222.91615 
L 81.572265 222.91615 
z
" style="fill:#1f77b4;"/>
   </g>
   <g id="patch_17">
    <path clip-path="url(#pe7ec0b71ea)" d="M 83.188529 273.312 
L 84.804794 273.312 
L 84.804794 224.376899 
L 83.188529 224.376899 
z
" style="fill:#1f77b4;"/>
   </g>
   <g id="patch_18">
    <path clip-path="url(#pe7ec0b71ea)" d="M 84.804794 273.312 
L 86.421059 273.312 
L 86.421059 215.612403 
L 84.804794 215.612403 
z
" style="fill:#1f77b4;"/>
   </g>
   <g id="patch_19">
    <path clip-path="url(#pe7ec0b71ea)" d="M 86.421059 273.312 
L 88.037323 273.312 
L 88.037323 214.882029 
L 86.421059 214.882029 
z
" style="fill:#1f77b4;"/>
   </g>
   <g id="patch_20">
    <path clip-path="url(#pe7ec0b71ea)" d="M 88.037323 273.312 
L 89.653588 273.312 
L 89.653588 210.499781 
L 88.037323 210.499781 
z
" style="fill:#1f77b4;"/>
   </g>
   <g id="patch_21">
    <path clip-path="url(#pe7ec0b71ea)" d="M 89.653588 273.312 
L 91.269852 273.312 
L 91.269852 203.926409 
L 89.653588 203.926409 
z
" style="fill:#1f77b4;"/>
   </g>
   <g id="patch_22">
    <path clip-path="url(#pe7ec0b71ea)" d="M 91.269852 273.312 
L 92.886117 273.312 
L 92.886117 210.499781 
L 91.269852 210.499781 
z
" style="fill:#1f77b4;"/>
   </g>
   <g id="patch_23">
    <path clip-path="url(#pe7ec0b71ea)" d="M 92.886117 273.312 
L 94.502381 273.312 
L 94.502381 211.230156 
L 92.886117 211.230156 
z
" style="fill:#1f77b4;"/>
   </g>
   <g id="patch_24">
    <path clip-path="url(#pe7ec0b71ea)" d="M 94.502381 273.312 
L 96.118646 273.312 
L 96.118646 192.97079 
L 94.502381 192.97079 
z
" style="fill:#1f77b4;"/>
   </g>
   <g id="patch_25">
    <path clip-path="url(#pe7ec0b71ea)" d="M 96.118646 273.312 
L 97.734911 273.312 
L 97.734911 206.117533 
L 96.118646 206.117533 
z
" style="fill:#1f77b4;"/>
   </g>
   <g id="patch_26">
    <path clip-path="url(#pe7ec0b71ea)" d="M 97.734911 273.312 
L 99.351175 273.312 
L 99.351175 194.431539 
L 97.734911 194.431539 
z
" style="fill:#1f77b4;"/>
   </g>
   <g id="patch_27">
    <path clip-path="url(#pe7ec0b71ea)" d="M 99.351175 273.312 
L 100.96744 273.312 
L 100.96744 198.083412 
L 99.351175 198.083412 
z
" style="fill:#1f77b4;"/>
   </g>
   <g id="patch_28">
    <path clip-path="url(#pe7ec0b71ea)" d="M 100.96744 273.312 
L 102.583704 273.312 
L 102.583704 182.745545 
L 100.96744 182.745545 
z
" style="fill:#1f77b4;"/>
   </g>
   <g id="patch_29">
    <path clip-path="url(#pe7ec0b71ea)" d="M 102.583704 273.312 
L 104.199969 273.312 
L 104.199969 176.172173 
L 102.583704 176.172173 
z
" style="fill:#1f77b4;"/>
   </g>
   <g id="patch_30">
    <path clip-path="url(#pe7ec0b71ea)" d="M 104.199969 273.312 
L 105.816234 273.312 
L 105.816234 184.206294 
L 104.199969 184.206294 
z
" style="fill:#1f77b4;"/>
   </g>
   <g id="patch_31">
    <path clip-path="url(#pe7ec0b71ea)" d="M 105.816234 273.312 
L 107.432498 273.312 
L 107.432498 169.598801 
L 105.816234 169.598801 
z
" style="fill:#1f77b4;"/>
   </g>
   <g id="patch_32">
    <path clip-path="url(#pe7ec0b71ea)" d="M 107.432498 273.312 
L 109.048763 273.312 
L 109.048763 162.295055 
L 107.432498 162.295055 
z
" style="fill:#1f77b4;"/>
   </g>
   <g id="patch_33">
    <path clip-path="url(#pe7ec0b71ea)" d="M 109.048763 273.312 
L 110.665027 273.312 
L 110.665027 170.329176 
L 109.048763 170.329176 
z
" style="fill:#1f77b4;"/>
   </g>
   <g id="patch_34">
    <path clip-path="url(#pe7ec0b71ea)" d="M 110.665027 273.312 
L 112.281292 273.312 
L 112.281292 175.441798 
L 110.665027 175.441798 
z
" style="fill:#1f77b4;"/>
   </g>
   <g id="patch_35">
    <path clip-path="url(#pe7ec0b71ea)" d="M 112.281292 273.312 
L 113.897557 273.312 
L 113.897557 168.868427 
L 112.281292 168.868427 
z
" style="fill:#1f77b4;"/>
   </g>
   <g id="patch_36">
    <path clip-path="url(#pe7ec0b71ea)" d="M 113.897557 273.312 
L 115.513821 273.312 
L 115.513821 149.148311 
L 113.897557 149.148311 
z
" style="fill:#1f77b4;"/>
   </g>
   <g id="patch_37">
    <path clip-path="url(#pe7ec0b71ea)" d="M 115.513821 273.312 
L 117.130086 273.312 
L 117.130086 148.417937 
L 115.513821 148.417937 
z
" style="fill:#1f77b4;"/>
   </g>
   <g id="patch_38">
    <path clip-path="url(#pe7ec0b71ea)" d="M 117.130086 273.312 
L 118.74635 273.312 
L 118.74635 157.912807 
L 117.130086 157.912807 
z
" style="fill:#1f77b4;"/>
   </g>
   <g id="patch_39">
    <path clip-path="url(#pe7ec0b71ea)" d="M 118.74635 273.312 
L 120.362615 273.312 
L 120.362615 141.844565 
L 118.74635 141.844565 
z
" style="fill:#1f77b4;"/>
   </g>
   <g id="patch_40">
    <path clip-path="url(#pe7ec0b71ea)" d="M 120.362615 273.312 
L 121.978879 273.312 
L 121.978879 135.271193 
L 120.362615 135.271193 
z
" style="fill:#1f77b4;"/>
   </g>
   <g id="patch_41">
    <path clip-path="url(#pe7ec0b71ea)" d="M 121.978879 273.312 
L 123.595144 273.312 
L 123.595144 141.11419 
L 121.978879 141.11419 
z
" style="fill:#1f77b4;"/>
   </g>
   <g id="patch_42">
    <path clip-path="url(#pe7ec0b71ea)" d="M 123.595144 273.312 
L 125.211409 273.312 
L 125.211409 125.045948 
L 123.595144 125.045948 
z
" style="fill:#1f77b4;"/>
   </g>
   <g id="patch_43">
    <path clip-path="url(#pe7ec0b71ea)" d="M 125.211409 273.312 
L 126.827673 273.312 
L 126.827673 149.148311 
L 125.211409 149.148311 
z
" style="fill:#1f77b4;"/>
   </g>
   <g id="patch_44">
    <path clip-path="url(#pe7ec0b71ea)" d="M 126.827673 273.312 
L 128.443938 273.312 
L 128.443938 125.045948 
L 126.827673 125.045948 
z
" style="fill:#1f77b4;"/>
   </g>
   <g id="patch_45">
    <path clip-path="url(#pe7ec0b71ea)" d="M 128.443938 273.312 
L 130.060202 273.312 
L 130.060202 132.349695 
L 128.443938 132.349695 
z
" style="fill:#1f77b4;"/>
   </g>
   <g id="patch_46">
    <path clip-path="url(#pe7ec0b71ea)" d="M 130.060202 273.312 
L 131.676467 273.312 
L 131.676467 120.6637 
L 130.060202 120.6637 
z
" style="fill:#1f77b4;"/>
   </g>
   <g id="patch_47">
    <path clip-path="url(#pe7ec0b71ea)" d="M 131.676467 273.312 
L 133.292732 273.312 
L 133.292732 131.61932 
L 131.676467 131.61932 
z
" style="fill:#1f77b4;"/>
   </g>
   <g id="patch_48">
    <path clip-path="url(#pe7ec0b71ea)" d="M 133.292732 273.312 
L 134.908996 273.312 
L 134.908996 118.472576 
L 133.292732 118.472576 
z
" style="fill:#1f77b4;"/>
   </g>
   <g id="patch_49">
    <path clip-path="url(#pe7ec0b71ea)" d="M 134.908996 273.312 
L 136.525261 273.312 
L 136.525261 111.899205 
L 134.908996 111.899205 
z
" style="fill:#1f77b4;"/>
   </g>
   <g id="patch_50">
    <path clip-path="url(#pe7ec0b71ea)" d="M 136.525261 273.312 
L 138.141525 273.312 
L 138.141525 126.506697 
L 136.525261 126.506697 
z
" style="fill:#1f77b4;"/>
   </g>
   <g id="patch_51">
    <path clip-path="url(#pe7ec0b71ea)" d="M 138.141525 273.312 
L 139.75779 273.312 
L 139.75779 106.056207 
L 138.141525 106.056207 
z
" style="fill:#1f77b4;"/>
   </g>
   <g id="patch_52">
    <path clip-path="url(#pe7ec0b71ea)" d="M 139.75779 273.312 
L 141.374055 273.312 
L 141.374055 93.639839 
L 139.75779 93.639839 
z
" style="fill:#1f77b4;"/>
   </g>
   <g id="patch_53">
    <path clip-path="url(#pe7ec0b71ea)" d="M 141.374055 273.312 
L 142.990319 273.312 
L 142.990319 100.943585 
L 141.374055 100.943585 
z
" style="fill:#1f77b4;"/>
   </g>
   <g id="patch_54">
    <path clip-path="url(#pe7ec0b71ea)" d="M 142.990319 273.312 
L 144.606584 273.312 
L 144.606584 94.370213 
L 142.990319 94.370213 
z
" style="fill:#1f77b4;"/>
   </g>
   <g id="patch_55">
    <path clip-path="url(#pe7ec0b71ea)" d="M 144.606584 273.312 
L 146.222848 273.312 
L 146.222848 103.134709 
L 144.606584 103.134709 
z
" style="fill:#1f77b4;"/>
   </g>
   <g id="patch_56">
    <path clip-path="url(#pe7ec0b71ea)" d="M 146.222848 273.312 
L 147.839113 273.312 
L 147.839113 106.786582 
L 146.222848 106.786582 
z
" style="fill:#1f77b4;"/>
   </g>
   <g id="patch_57">
    <path clip-path="url(#pe7ec0b71ea)" d="M 147.839113 273.312 
L 149.455377 273.312 
L 149.455377 111.899205 
L 147.839113 111.899205 
z
" style="fill:#1f77b4;"/>
   </g>
   <g id="patch_58">
    <path clip-path="url(#pe7ec0b71ea)" d="M 149.455377 273.312 
L 151.071642 273.312 
L 151.071642 97.291712 
L 149.455377 97.291712 
z
" style="fill:#1f77b4;"/>
   </g>
   <g id="patch_59">
    <path clip-path="url(#pe7ec0b71ea)" d="M 151.071642 273.312 
L 152.687907 273.312 
L 152.687907 70.26785 
L 151.071642 70.26785 
z
" style="fill:#1f77b4;"/>
   </g>
   <g id="patch_60">
    <path clip-path="url(#pe7ec0b71ea)" d="M 152.687907 273.312 
L 154.304171 273.312 
L 154.304171 104.595458 
L 152.687907 104.595458 
z
" style="fill:#1f77b4;"/>
   </g>
   <g id="patch_61">
    <path clip-path="url(#pe7ec0b71ea)" d="M 154.304171 273.312 
L 155.920436 273.312 
L 155.920436 104.595458 
L 154.304171 104.595458 
z
" style="fill:#1f77b4;"/>
   </g>
   <g id="patch_62">
    <path clip-path="url(#pe7ec0b71ea)" d="M 155.920436 273.312 
L 157.5367 273.312 
L 157.5367 98.022086 
L 155.920436 98.022086 
z
" style="fill:#1f77b4;"/>
   </g>
   <g id="patch_63">
    <path clip-path="url(#pe7ec0b71ea)" d="M 157.5367 273.312 
L 159.152965 273.312 
L 159.152965 100.943585 
L 157.5367 100.943585 
z
" style="fill:#1f77b4;"/>
   </g>
   <g id="patch_64">
    <path clip-path="url(#pe7ec0b71ea)" d="M 159.152965 273.312 
L 160.76923 273.312 
L 160.76923 97.291712 
L 159.152965 97.291712 
z
" style="fill:#1f77b4;"/>
   </g>
   <g id="patch_65">
    <path clip-path="url(#pe7ec0b71ea)" d="M 160.76923 273.312 
L 162.385494 273.312 
L 162.385494 65.155228 
L 160.76923 65.155228 
z
" style="fill:#1f77b4;"/>
   </g>
   <g id="patch_66">
    <path clip-path="url(#pe7ec0b71ea)" d="M 162.385494 273.312 
L 164.001759 273.312 
L 164.001759 64.424853 
L 162.385494 64.424853 
z
" style="fill:#1f77b4;"/>
   </g>
   <g id="patch_67">
    <path clip-path="url(#pe7ec0b71ea)" d="M 164.001759 273.312 
L 165.618023 273.312 
L 165.618023 68.807101 
L 164.001759 68.807101 
z
" style="fill:#1f77b4;"/>
   </g>
   <g id="patch_68">
    <path clip-path="url(#pe7ec0b71ea)" d="M 165.618023 273.312 
L 167.234288 273.312 
L 167.234288 92.179089 
L 165.618023 92.179089 
z
" style="fill:#1f77b4;"/>
   </g>
   <g id="patch_69">
    <path clip-path="url(#pe7ec0b71ea)" d="M 167.234288 273.312 
L 168.850553 273.312 
L 168.850553 64.424853 
L 167.234288 64.424853 
z
" style="fill:#1f77b4;"/>
   </g>
   <g id="patch_70">
    <path clip-path="url(#pe7ec0b71ea)" d="M 168.850553 273.312 
L 170.466817 273.312 
L 170.466817 85.605718 
L 168.850553 85.605718 
z
" style="fill:#1f77b4;"/>
   </g>
   <g id="patch_71">
    <path clip-path="url(#pe7ec0b71ea)" d="M 170.466817 273.312 
L 172.083082 273.312 
L 172.083082 70.26785 
L 170.466817 70.26785 
z
" style="fill:#1f77b4;"/>
   </g>
   <g id="patch_72">
    <path clip-path="url(#pe7ec0b71ea)" d="M 172.083082 273.312 
L 173.699346 273.312 
L 173.699346 67.346352 
L 172.083082 67.346352 
z
" style="fill:#1f77b4;"/>
   </g>
   <g id="patch_73">
    <path clip-path="url(#pe7ec0b71ea)" d="M 173.699346 273.312 
L 175.315611 273.312 
L 175.315611 56.390732 
L 173.699346 56.390732 
z
" style="fill:#1f77b4;"/>
   </g>
   <g id="patch_74">
    <path clip-path="url(#pe7ec0b71ea)" d="M 175.315611 273.312 
L 176.931875 273.312 
L 176.931875 72.458974 
L 175.315611 72.458974 
z
" style="fill:#1f77b4;"/>
   </g>
   <g id="patch_75">
    <path clip-path="url(#pe7ec0b71ea)" d="M 176.931875 273.312 
L 178.54814 273.312 
L 178.54814 61.503354 
L 176.931875 61.503354 
z
" style="fill:#1f77b4;"/>
   </g>
   <g id="patch_76">
    <path clip-path="url(#pe7ec0b71ea)" d="M 178.54814 273.312 
L 180.164405 273.312 
L 180.164405 74.650098 
L 178.54814 74.650098 
z
" style="fill:#1f77b4;"/>
   </g>
   <g id="patch_77">
    <path clip-path="url(#pe7ec0b71ea)" d="M 180.164405 273.312 
L 181.780669 273.312 
L 181.780669 46.895862 
L 180.164405 46.895862 
z
" style="fill:#1f77b4;"/>
   </g>
   <g id="patch_78">
    <path clip-path="url(#pe7ec0b71ea)" d="M 181.780669 273.312 
L 183.396934 273.312 
L 183.396934 56.390732 
L 181.780669 56.390732 
z
" style="fill:#1f77b4;"/>
   </g>
   <g id="patch_79">
    <path clip-path="url(#pe7ec0b71ea)" d="M 183.396934 273.312 
L 185.013198 273.312 
L 185.013198 70.998225 
L 183.396934 70.998225 
z
" style="fill:#1f77b4;"/>
   </g>
   <g id="patch_80">
    <path clip-path="url(#pe7ec0b71ea)" d="M 185.013198 273.312 
L 186.629463 273.312 
L 186.629463 68.076726 
L 185.013198 68.076726 
z
" style="fill:#1f77b4;"/>
   </g>
   <g id="patch_81">
    <path clip-path="url(#pe7ec0b71ea)" d="M 186.629463 273.312 
L 188.245728 273.312 
L 188.245728 44.704738 
L 186.629463 44.704738 
z
" style="fill:#1f77b4;"/>
   </g>
   <g id="patch_82">
    <path clip-path="url(#pe7ec0b71ea)" d="M 188.245728 273.312 
L 189.861992 273.312 
L 189.861992 41.783239 
L 188.245728 41.783239 
z
" style="fill:#1f77b4;"/>
   </g>
   <g id="patch_83">
    <path clip-path="url(#pe7ec0b71ea)" d="M 189.861992 273.312 
L 191.478257 273.312 
L 191.478257 27.906121 
L 189.861992 27.906121 
z
" style="fill:#1f77b4;"/>
   </g>
   <g id="patch_84">
    <path clip-path="url(#pe7ec0b71ea)" d="M 191.478257 273.312 
L 193.094521 273.312 
L 193.094521 40.32249 
L 191.478257 40.32249 
z
" style="fill:#1f77b4;"/>
   </g>
   <g id="patch_85">
    <path clip-path="url(#pe7ec0b71ea)" d="M 193.094521 273.312 
L 194.710786 273.312 
L 194.710786 65.885602 
L 193.094521 65.885602 
z
" style="fill:#1f77b4;"/>
   </g>
   <g id="patch_86">
    <path clip-path="url(#pe7ec0b71ea)" d="M 194.710786 273.312 
L 196.327051 273.312 
L 196.327051 58.581856 
L 194.710786 58.581856 
z
" style="fill:#1f77b4;"/>
   </g>
   <g id="patch_87">
    <path clip-path="url(#pe7ec0b71ea)" d="M 196.327051 273.312 
L 197.943315 273.312 
L 197.943315 62.964104 
L 196.327051 62.964104 
z
" style="fill:#1f77b4;"/>
   </g>
   <g id="patch_88">
    <path clip-path="url(#pe7ec0b71ea)" d="M 197.943315 273.312 
L 199.55958 273.312 
L 199.55958 57.851481 
L 197.943315 57.851481 
z
" style="fill:#1f77b4;"/>
   </g>
   <g id="patch_89">
    <path clip-path="url(#pe7ec0b71ea)" d="M 199.55958 273.312 
L 201.175844 273.312 
L 201.175844 38.861741 
L 199.55958 38.861741 
z
" style="fill:#1f77b4;"/>
   </g>
   <g id="patch_90">
    <path clip-path="url(#pe7ec0b71ea)" d="M 201.175844 273.312 
L 202.792109 273.312 
L 202.792109 73.189349 
L 201.175844 73.189349 
z
" style="fill:#1f77b4;"/>
   </g>
   <g id="patch_91">
    <path clip-path="url(#pe7ec0b71ea)" d="M 202.792109 273.312 
L 204.408373 273.312 
L 204.408373 50.547735 
L 202.792109 50.547735 
z
" style="fill:#1f77b4;"/>
   </g>
   <g id="patch_92">
    <path clip-path="url(#pe7ec0b71ea)" d="M 204.408373 273.312 
L 206.024638 273.312 
L 206.024638 51.27811 
L 204.408373 51.27811 
z
" style="fill:#1f77b4;"/>
   </g>
   <g id="patch_93">
    <path clip-path="url(#pe7ec0b71ea)" d="M 206.024638 273.312 
L 207.640903 273.312 
L 207.640903 53.469233 
L 206.024638 53.469233 
z
" style="fill:#1f77b4;"/>
   </g>
   <g id="patch_94">
    <path clip-path="url(#pe7ec0b71ea)" d="M 207.640903 273.312 
L 209.257167 273.312 
L 209.257167 33.018744 
L 207.640903 33.018744 
z
" style="fill:#1f77b4;"/>
   </g>
   <g id="patch_95">
    <path clip-path="url(#pe7ec0b71ea)" d="M 209.257167 273.312 
L 210.873432 273.312 
L 210.873432 67.346352 
L 209.257167 67.346352 
z
" style="fill:#1f77b4;"/>
   </g>
   <g id="patch_96">
    <path clip-path="url(#pe7ec0b71ea)" d="M 210.873432 273.312 
L 212.489696 273.312 
L 212.489696 39.592115 
L 210.873432 39.592115 
z
" style="fill:#1f77b4;"/>
   </g>
   <g id="patch_97">
    <path clip-path="url(#pe7ec0b71ea)" d="M 212.489696 273.312 
L 214.105961 273.312 
L 214.105961 35.209867 
L 212.489696 35.209867 
z
" style="fill:#1f77b4;"/>
   </g>
   <g id="patch_98">
    <path clip-path="url(#pe7ec0b71ea)" d="M 214.105961 273.312 
L 215.722226 273.312 
L 215.722226 40.32249 
L 214.105961 40.32249 
z
" style="fill:#1f77b4;"/>
   </g>
   <g id="patch_99">
    <path clip-path="url(#pe7ec0b71ea)" d="M 215.722226 273.312 
L 217.33849 273.312 
L 217.33849 49.086986 
L 215.722226 49.086986 
z
" style="fill:#1f77b4;"/>
   </g>
   <g id="patch_100">
    <path clip-path="url(#pe7ec0b71ea)" d="M 217.33849 273.312 
L 218.954755 273.312 
L 218.954755 37.400991 
L 217.33849 37.400991 
z
" style="fill:#1f77b4;"/>
   </g>
   <g id="patch_101">
    <path clip-path="url(#pe7ec0b71ea)" d="M 218.954755 273.312 
L 220.571019 273.312 
L 220.571019 37.400991 
L 218.954755 37.400991 
z
" style="fill:#1f77b4;"/>
   </g>
   <g id="patch_102">
    <path clip-path="url(#pe7ec0b71ea)" d="M 220.571019 273.312 
L 222.187284 273.312 
L 222.187284 31.557994 
L 220.571019 31.557994 
z
" style="fill:#1f77b4;"/>
   </g>
   <g id="patch_103">
    <path clip-path="url(#pe7ec0b71ea)" d="M 222.187284 273.312 
L 223.803548 273.312 
L 223.803548 51.27811 
L 222.187284 51.27811 
z
" style="fill:#1f77b4;"/>
   </g>
   <g id="patch_104">
    <path clip-path="url(#pe7ec0b71ea)" d="M 223.803548 273.312 
L 225.419813 273.312 
L 225.419813 19.872 
L 223.803548 19.872 
z
" style="fill:#1f77b4;"/>
   </g>
   <g id="patch_105">
    <path clip-path="url(#pe7ec0b71ea)" d="M 225.419813 273.312 
L 227.036078 273.312 
L 227.036078 49.81736 
L 225.419813 49.81736 
z
" style="fill:#1f77b4;"/>
   </g>
   <g id="patch_106">
    <path clip-path="url(#pe7ec0b71ea)" d="M 227.036078 273.312 
L 228.652342 273.312 
L 228.652342 61.503354 
L 227.036078 61.503354 
z
" style="fill:#1f77b4;"/>
   </g>
   <g id="patch_107">
    <path clip-path="url(#pe7ec0b71ea)" d="M 228.652342 273.312 
L 230.268607 273.312 
L 230.268607 45.435112 
L 228.652342 45.435112 
z
" style="fill:#1f77b4;"/>
   </g>
   <g id="patch_108">
    <path clip-path="url(#pe7ec0b71ea)" d="M 230.268607 273.312 
L 231.884871 273.312 
L 231.884871 31.557994 
L 230.268607 31.557994 
z
" style="fill:#1f77b4;"/>
   </g>
   <g id="patch_109">
    <path clip-path="url(#pe7ec0b71ea)" d="M 231.884871 273.312 
L 233.501136 273.312 
L 233.501136 49.086986 
L 231.884871 49.086986 
z
" style="fill:#1f77b4;"/>
   </g>
   <g id="patch_110">
    <path clip-path="url(#pe7ec0b71ea)" d="M 233.501136 273.312 
L 235.117401 273.312 
L 235.117401 69.537476 
L 233.501136 69.537476 
z
" style="fill:#1f77b4;"/>
   </g>
   <g id="patch_111">
    <path clip-path="url(#pe7ec0b71ea)" d="M 235.117401 273.312 
L 236.733665 273.312 
L 236.733665 57.851481 
L 235.117401 57.851481 
z
" style="fill:#1f77b4;"/>
   </g>
   <g id="patch_112">
    <path clip-path="url(#pe7ec0b71ea)" d="M 236.733665 273.312 
L 238.34993 273.312 
L 238.34993 59.312231 
L 236.733665 59.312231 
z
" style="fill:#1f77b4;"/>
   </g>
   <g id="patch_113">
    <path clip-path="url(#pe7ec0b71ea)" d="M 238.34993 273.312 
L 239.966194 273.312 
L 239.966194 33.018744 
L 238.34993 33.018744 
z
" style="fill:#1f77b4;"/>
   </g>
   <g id="patch_114">
    <path clip-path="url(#pe7ec0b71ea)" d="M 239.966194 273.312 
L 241.582459 273.312 
L 241.582459 60.042605 
L 239.966194 60.042605 
z
" style="fill:#1f77b4;"/>
   </g>
   <g id="patch_115">
    <path clip-path="url(#pe7ec0b71ea)" d="M 241.582459 273.312 
L 243.198724 273.312 
L 243.198724 42.513614 
L 241.582459 42.513614 
z
" style="fill:#1f77b4;"/>
   </g>
   <g id="patch_116">
    <path clip-path="url(#pe7ec0b71ea)" d="M 243.198724 273.312 
L 244.814988 273.312 
L 244.814988 40.32249 
L 243.198724 40.32249 
z
" style="fill:#1f77b4;"/>
   </g>
   <g id="patch_117">
    <path clip-path="url(#pe7ec0b71ea)" d="M 244.814988 273.312 
L 246.431253 273.312 
L 246.431253 69.537476 
L 244.814988 69.537476 
z
" style="fill:#1f77b4;"/>
   </g>
   <g id="patch_118">
    <path clip-path="url(#pe7ec0b71ea)" d="M 246.431253 273.312 
L 248.047517 273.312 
L 248.047517 31.557994 
L 246.431253 31.557994 
z
" style="fill:#1f77b4;"/>
   </g>
   <g id="patch_119">
    <path clip-path="url(#pe7ec0b71ea)" d="M 248.047517 273.312 
L 249.663782 273.312 
L 249.663782 69.537476 
L 248.047517 69.537476 
z
" style="fill:#1f77b4;"/>
   </g>
   <g id="patch_120">
    <path clip-path="url(#pe7ec0b71ea)" d="M 249.663782 273.312 
L 251.280046 273.312 
L 251.280046 76.841222 
L 249.663782 76.841222 
z
" style="fill:#1f77b4;"/>
   </g>
   <g id="patch_121">
    <path clip-path="url(#pe7ec0b71ea)" d="M 251.280046 273.312 
L 252.896311 273.312 
L 252.896311 54.929983 
L 251.280046 54.929983 
z
" style="fill:#1f77b4;"/>
   </g>
   <g id="patch_122">
    <path clip-path="url(#pe7ec0b71ea)" d="M 252.896311 273.312 
L 254.512576 273.312 
L 254.512576 57.851481 
L 252.896311 57.851481 
z
" style="fill:#1f77b4;"/>
   </g>
   <g id="patch_123">
    <path clip-path="url(#pe7ec0b71ea)" d="M 254.512576 273.312 
L 256.12884 273.312 
L 256.12884 65.155228 
L 254.512576 65.155228 
z
" style="fill:#1f77b4;"/>
   </g>
   <g id="patch_124">
    <path clip-path="url(#pe7ec0b71ea)" d="M 256.12884 273.312 
L 257.745105 273.312 
L 257.745105 66.615977 
L 256.12884 66.615977 
z
" style="fill:#1f77b4;"/>
   </g>
   <g id="patch_125">
    <path clip-path="url(#pe7ec0b71ea)" d="M 257.745105 273.312 
L 259.361369 273.312 
L 259.361369 51.27811 
L 257.745105 51.27811 
z
" style="fill:#1f77b4;"/>
   </g>
   <g id="patch_126">
    <path clip-path="url(#pe7ec0b71ea)" d="M 259.361369 273.312 
L 260.977634 273.312 
L 260.977634 52.008484 
L 259.361369 52.008484 
z
" style="fill:#1f77b4;"/>
   </g>
   <g id="patch_127">
    <path clip-path="url(#pe7ec0b71ea)" d="M 260.977634 273.312 
L 262.593899 273.312 
L 262.593899 68.807101 
L 260.977634 68.807101 
z
" style="fill:#1f77b4;"/>
   </g>
   <g id="patch_128">
    <path clip-path="url(#pe7ec0b71ea)" d="M 262.593899 273.312 
L 264.210163 273.312 
L 264.210163 52.738859 
L 262.593899 52.738859 
z
" style="fill:#1f77b4;"/>
   </g>
   <g id="patch_129">
    <path clip-path="url(#pe7ec0b71ea)" d="M 264.210163 273.312 
L 265.826428 273.312 
L 265.826428 75.380473 
L 264.210163 75.380473 
z
" style="fill:#1f77b4;"/>
   </g>
   <g id="patch_130">
    <path clip-path="url(#pe7ec0b71ea)" d="M 265.826428 273.312 
L 267.442692 273.312 
L 267.442692 41.052865 
L 265.826428 41.052865 
z
" style="fill:#1f77b4;"/>
   </g>
   <g id="patch_131">
    <path clip-path="url(#pe7ec0b71ea)" d="M 267.442692 273.312 
L 269.058957 273.312 
L 269.058957 51.27811 
L 267.442692 51.27811 
z
" style="fill:#1f77b4;"/>
   </g>
   <g id="patch_132">
    <path clip-path="url(#pe7ec0b71ea)" d="M 269.058957 273.312 
L 270.675222 273.312 
L 270.675222 43.974363 
L 269.058957 43.974363 
z
" style="fill:#1f77b4;"/>
   </g>
   <g id="patch_133">
    <path clip-path="url(#pe7ec0b71ea)" d="M 270.675222 273.312 
L 272.291486 273.312 
L 272.291486 70.26785 
L 270.675222 70.26785 
z
" style="fill:#1f77b4;"/>
   </g>
   <g id="patch_134">
    <path clip-path="url(#pe7ec0b71ea)" d="M 272.291486 273.312 
L 273.907751 273.312 
L 273.907751 66.615977 
L 272.291486 66.615977 
z
" style="fill:#1f77b4;"/>
   </g>
   <g id="patch_135">
    <path clip-path="url(#pe7ec0b71ea)" d="M 273.907751 273.312 
L 275.524015 273.312 
L 275.524015 98.752461 
L 273.907751 98.752461 
z
" style="fill:#1f77b4;"/>
   </g>
   <g id="patch_136">
    <path clip-path="url(#pe7ec0b71ea)" d="M 275.524015 273.312 
L 277.14028 273.312 
L 277.14028 81.953844 
L 275.524015 81.953844 
z
" style="fill:#1f77b4;"/>
   </g>
   <g id="patch_137">
    <path clip-path="url(#pe7ec0b71ea)" d="M 277.14028 273.312 
L 278.756544 273.312 
L 278.756544 78.301971 
L 277.14028 78.301971 
z
" style="fill:#1f77b4;"/>
   </g>
   <g id="patch_138">
    <path clip-path="url(#pe7ec0b71ea)" d="M 278.756544 273.312 
L 280.372809 273.312 
L 280.372809 80.493095 
L 278.756544 80.493095 
z
" style="fill:#1f77b4;"/>
   </g>
   <g id="patch_139">
    <path clip-path="url(#pe7ec0b71ea)" d="M 280.372809 273.312 
L 281.989074 273.312 
L 281.989074 70.998225 
L 280.372809 70.998225 
z
" style="fill:#1f77b4;"/>
   </g>
   <g id="patch_140">
    <path clip-path="url(#pe7ec0b71ea)" d="M 281.989074 273.312 
L 283.605338 273.312 
L 283.605338 77.571597 
L 281.989074 77.571597 
z
" style="fill:#1f77b4;"/>
   </g>
   <g id="patch_141">
    <path clip-path="url(#pe7ec0b71ea)" d="M 283.605338 273.312 
L 285.221603 273.312 
L 285.221603 77.571597 
L 283.605338 77.571597 
z
" style="fill:#1f77b4;"/>
   </g>
   <g id="patch_142">
    <path clip-path="url(#pe7ec0b71ea)" d="M 285.221603 273.312 
L 286.837867 273.312 
L 286.837867 85.605718 
L 285.221603 85.605718 
z
" style="fill:#1f77b4;"/>
   </g>
   <g id="patch_143">
    <path clip-path="url(#pe7ec0b71ea)" d="M 286.837867 273.312 
L 288.454132 273.312 
L 288.454132 106.056207 
L 286.837867 106.056207 
z
" style="fill:#1f77b4;"/>
   </g>
   <g id="patch_144">
    <path clip-path="url(#pe7ec0b71ea)" d="M 288.454132 273.312 
L 290.070397 273.312 
L 290.070397 100.943585 
L 288.454132 100.943585 
z
" style="fill:#1f77b4;"/>
   </g>
   <g id="patch_145">
    <path clip-path="url(#pe7ec0b71ea)" d="M 290.070397 273.312 
L 291.686661 273.312 
L 291.686661 114.090329 
L 290.070397 114.090329 
z
" style="fill:#1f77b4;"/>
   </g>
   <g id="patch_146">
    <path clip-path="url(#pe7ec0b71ea)" d="M 291.686661 273.312 
L 293.302926 273.312 
L 293.302926 106.056207 
L 291.686661 106.056207 
z
" style="fill:#1f77b4;"/>
   </g>
   <g id="patch_147">
    <path clip-path="url(#pe7ec0b71ea)" d="M 293.302926 273.312 
L 294.91919 273.312 
L 294.91919 102.404334 
L 293.302926 102.404334 
z
" style="fill:#1f77b4;"/>
   </g>
   <g id="patch_148">
    <path clip-path="url(#pe7ec0b71ea)" d="M 294.91919 273.312 
L 296.535455 273.312 
L 296.535455 89.257591 
L 294.91919 89.257591 
z
" style="fill:#1f77b4;"/>
   </g>
   <g id="patch_149">
    <path clip-path="url(#pe7ec0b71ea)" d="M 296.535455 273.312 
L 298.15172 273.312 
L 298.15172 96.561337 
L 296.535455 96.561337 
z
" style="fill:#1f77b4;"/>
   </g>
   <g id="patch_150">
    <path clip-path="url(#pe7ec0b71ea)" d="M 298.15172 273.312 
L 299.767984 273.312 
L 299.767984 94.370213 
L 298.15172 94.370213 
z
" style="fill:#1f77b4;"/>
   </g>
   <g id="patch_151">
    <path clip-path="url(#pe7ec0b71ea)" d="M 299.767984 273.312 
L 301.384249 273.312 
L 301.384249 122.12445 
L 299.767984 122.12445 
z
" style="fill:#1f77b4;"/>
   </g>
   <g id="patch_152">
    <path clip-path="url(#pe7ec0b71ea)" d="M 301.384249 273.312 
L 303.000513 273.312 
L 303.000513 98.752461 
L 301.384249 98.752461 
z
" style="fill:#1f77b4;"/>
   </g>
   <g id="patch_153">
    <path clip-path="url(#pe7ec0b71ea)" d="M 303.000513 273.312 
L 304.616778 273.312 
L 304.616778 110.438455 
L 303.000513 110.438455 
z
" style="fill:#1f77b4;"/>
   </g>
   <g id="patch_154">
    <path clip-path="url(#pe7ec0b71ea)" d="M 304.616778 273.312 
L 306.233042 273.312 
L 306.233042 110.438455 
L 304.616778 110.438455 
z
" style="fill:#1f77b4;"/>
   </g>
   <g id="patch_155">
    <path clip-path="url(#pe7ec0b71ea)" d="M 306.233042 273.312 
L 307.849307 273.312 
L 307.849307 117.742202 
L 306.233042 117.742202 
z
" style="fill:#1f77b4;"/>
   </g>
   <g id="patch_156">
    <path clip-path="url(#pe7ec0b71ea)" d="M 307.849307 273.312 
L 309.465572 273.312 
L 309.465572 107.516957 
L 307.849307 107.516957 
z
" style="fill:#1f77b4;"/>
   </g>
   <g id="patch_157">
    <path clip-path="url(#pe7ec0b71ea)" d="M 309.465572 273.312 
L 311.081836 273.312 
L 311.081836 116.281452 
L 309.465572 116.281452 
z
" style="fill:#1f77b4;"/>
   </g>
   <g id="patch_158">
    <path clip-path="url(#pe7ec0b71ea)" d="M 311.081836 273.312 
L 312.698101 273.312 
L 312.698101 132.349695 
L 311.081836 132.349695 
z
" style="fill:#1f77b4;"/>
   </g>
   <g id="patch_159">
    <path clip-path="url(#pe7ec0b71ea)" d="M 312.698101 273.312 
L 314.314365 273.312 
L 314.314365 143.305314 
L 312.698101 143.305314 
z
" style="fill:#1f77b4;"/>
   </g>
   <g id="patch_160">
    <path clip-path="url(#pe7ec0b71ea)" d="M 314.314365 273.312 
L 315.93063 273.312 
L 315.93063 123.585199 
L 314.314365 123.585199 
z
" style="fill:#1f77b4;"/>
   </g>
   <g id="patch_161">
    <path clip-path="url(#pe7ec0b71ea)" d="M 315.93063 273.312 
L 317.546895 273.312 
L 317.546895 138.192692 
L 315.93063 138.192692 
z
" style="fill:#1f77b4;"/>
   </g>
   <g id="patch_162">
    <path clip-path="url(#pe7ec0b71ea)" d="M 317.546895 273.312 
L 319.163159 273.312 
L 319.163159 150.609061 
L 317.546895 150.609061 
z
" style="fill:#1f77b4;"/>
   </g>
   <g id="patch_163">
    <path clip-path="url(#pe7ec0b71ea)" d="M 319.163159 273.312 
L 320.779424 273.312 
L 320.779424 152.800184 
L 319.163159 152.800184 
z
" style="fill:#1f77b4;"/>
   </g>
   <g id="patch_164">
    <path clip-path="url(#pe7ec0b71ea)" d="M 320.779424 273.312 
L 322.395688 273.312 
L 322.395688 148.417937 
L 320.779424 148.417937 
z
" style="fill:#1f77b4;"/>
   </g>
   <g id="patch_165">
    <path clip-path="url(#pe7ec0b71ea)" d="M 322.395688 273.312 
L 324.011953 273.312 
L 324.011953 138.923066 
L 322.395688 138.923066 
z
" style="fill:#1f77b4;"/>
   </g>
   <g id="patch_166">
    <path clip-path="url(#pe7ec0b71ea)" d="M 324.011953 273.312 
L 325.628218 273.312 
L 325.628218 154.991308 
L 324.011953 154.991308 
z
" style="fill:#1f77b4;"/>
   </g>
   <g id="patch_167">
    <path clip-path="url(#pe7ec0b71ea)" d="M 325.628218 273.312 
L 327.244482 273.312 
L 327.244482 152.800184 
L 325.628218 152.800184 
z
" style="fill:#1f77b4;"/>
   </g>
   <g id="patch_168">
    <path clip-path="url(#pe7ec0b71ea)" d="M 327.244482 273.312 
L 328.860747 273.312 
L 328.860747 150.609061 
L 327.244482 150.609061 
z
" style="fill:#1f77b4;"/>
   </g>
   <g id="patch_169">
    <path clip-path="url(#pe7ec0b71ea)" d="M 328.860747 273.312 
L 330.477011 273.312 
L 330.477011 155.721683 
L 328.860747 155.721683 
z
" style="fill:#1f77b4;"/>
   </g>
   <g id="patch_170">
    <path clip-path="url(#pe7ec0b71ea)" d="M 330.477011 273.312 
L 332.093276 273.312 
L 332.093276 149.148311 
L 330.477011 149.148311 
z
" style="fill:#1f77b4;"/>
   </g>
   <g id="patch_171">
    <path clip-path="url(#pe7ec0b71ea)" d="M 332.093276 273.312 
L 333.70954 273.312 
L 333.70954 166.677303 
L 332.093276 166.677303 
z
" style="fill:#1f77b4;"/>
   </g>
   <g id="patch_172">
    <path clip-path="url(#pe7ec0b71ea)" d="M 333.70954 273.312 
L 335.325805 273.312 
L 335.325805 183.475919 
L 333.70954 183.475919 
z
" style="fill:#1f77b4;"/>
   </g>
   <g id="patch_173">
    <path clip-path="url(#pe7ec0b71ea)" d="M 335.325805 273.312 
L 336.94207 273.312 
L 336.94207 174.711424 
L 335.325805 174.711424 
z
" style="fill:#1f77b4;"/>
   </g>
   <g id="patch_174">
    <path clip-path="url(#pe7ec0b71ea)" d="M 336.94207 273.312 
L 338.558334 273.312 
L 338.558334 183.475919 
L 336.94207 183.475919 
z
" style="fill:#1f77b4;"/>
   </g>
   <g id="patch_175">
    <path clip-path="url(#pe7ec0b71ea)" d="M 338.558334 273.312 
L 340.174599 273.312 
L 340.174599 176.172173 
L 338.558334 176.172173 
z
" style="fill:#1f77b4;"/>
   </g>
   <g id="patch_176">
    <path clip-path="url(#pe7ec0b71ea)" d="M 340.174599 273.312 
L 341.790863 273.312 
L 341.790863 190.049291 
L 340.174599 190.049291 
z
" style="fill:#1f77b4;"/>
   </g>
   <g id="patch_177">
    <path clip-path="url(#pe7ec0b71ea)" d="M 341.790863 273.312 
L 343.407128 273.312 
L 343.407128 186.397418 
L 341.790863 186.397418 
z
" style="fill:#1f77b4;"/>
   </g>
   <g id="patch_178">
    <path clip-path="url(#pe7ec0b71ea)" d="M 343.407128 273.312 
L 345.023393 273.312 
L 345.023393 195.892288 
L 343.407128 195.892288 
z
" style="fill:#1f77b4;"/>
   </g>
   <g id="patch_179">
    <path clip-path="url(#pe7ec0b71ea)" d="M 345.023393 273.312 
L 346.639657 273.312 
L 346.639657 193.701164 
L 345.023393 193.701164 
z
" style="fill:#1f77b4;"/>
   </g>
   <g id="patch_180">
    <path clip-path="url(#pe7ec0b71ea)" d="M 346.639657 273.312 
L 348.255922 273.312 
L 348.255922 192.240415 
L 346.639657 192.240415 
z
" style="fill:#1f77b4;"/>
   </g>
   <g id="patch_181">
    <path clip-path="url(#pe7ec0b71ea)" d="M 348.255922 273.312 
L 349.872186 273.312 
L 349.872186 195.161914 
L 348.255922 195.161914 
z
" style="fill:#1f77b4;"/>
   </g>
   <g id="patch_182">
    <path clip-path="url(#pe7ec0b71ea)" d="M 349.872186 273.312 
L 351.488451 273.312 
L 351.488451 203.196035 
L 349.872186 203.196035 
z
" style="fill:#1f77b4;"/>
   </g>
   <g id="patch_183">
    <path clip-path="url(#pe7ec0b71ea)" d="M 351.488451 273.312 
L 353.104716 273.312 
L 353.104716 201.004911 
L 351.488451 201.004911 
z
" style="fill:#1f77b4;"/>
   </g>
   <g id="patch_184">
    <path clip-path="url(#pe7ec0b71ea)" d="M 353.104716 273.312 
L 354.72098 273.312 
L 354.72098 198.813787 
L 353.104716 198.813787 
z
" style="fill:#1f77b4;"/>
   </g>
   <g id="patch_185">
    <path clip-path="url(#pe7ec0b71ea)" d="M 354.72098 273.312 
L 356.337245 273.312 
L 356.337245 217.803527 
L 354.72098 217.803527 
z
" style="fill:#1f77b4;"/>
   </g>
   <g id="patch_186">
    <path clip-path="url(#pe7ec0b71ea)" d="M 356.337245 273.312 
L 357.953509 273.312 
L 357.953509 207.578282 
L 356.337245 207.578282 
z
" style="fill:#1f77b4;"/>
   </g>
   <g id="patch_187">
    <path clip-path="url(#pe7ec0b71ea)" d="M 357.953509 273.312 
L 359.569774 273.312 
L 359.569774 209.769406 
L 357.953509 209.769406 
z
" style="fill:#1f77b4;"/>
   </g>
   <g id="patch_188">
    <path clip-path="url(#pe7ec0b71ea)" d="M 359.569774 273.312 
L 361.186038 273.312 
L 361.186038 219.264277 
L 359.569774 219.264277 
z
" style="fill:#1f77b4;"/>
   </g>
   <g id="patch_189">
    <path clip-path="url(#pe7ec0b71ea)" d="M 361.186038 273.312 
L 362.802303 273.312 
L 362.802303 219.264277 
L 361.186038 219.264277 
z
" style="fill:#1f77b4;"/>
   </g>
   <g id="patch_190">
    <path clip-path="url(#pe7ec0b71ea)" d="M 362.802303 273.312 
L 364.418568 273.312 
L 364.418568 228.028772 
L 362.802303 228.028772 
z
" style="fill:#1f77b4;"/>
   </g>
   <g id="patch_191">
    <path clip-path="url(#pe7ec0b71ea)" d="M 364.418568 273.312 
L 366.034832 273.312 
L 366.034832 224.376899 
L 364.418568 224.376899 
z
" style="fill:#1f77b4;"/>
   </g>
   <g id="patch_192">
    <path clip-path="url(#pe7ec0b71ea)" d="M 366.034832 273.312 
L 367.651097 273.312 
L 367.651097 238.984392 
L 366.034832 238.984392 
z
" style="fill:#1f77b4;"/>
   </g>
   <g id="patch_193">
    <path clip-path="url(#pe7ec0b71ea)" d="M 367.651097 273.312 
L 369.267361 273.312 
L 369.267361 233.871769 
L 367.651097 233.871769 
z
" style="fill:#1f77b4;"/>
   </g>
   <g id="patch_194">
    <path clip-path="url(#pe7ec0b71ea)" d="M 369.267361 273.312 
L 370.883626 273.312 
L 370.883626 237.523643 
L 369.267361 237.523643 
z
" style="fill:#1f77b4;"/>
   </g>
   <g id="patch_195">
    <path clip-path="url(#pe7ec0b71ea)" d="M 370.883626 273.312 
L 372.499891 273.312 
L 372.499891 243.36664 
L 370.883626 243.36664 
z
" style="fill:#1f77b4;"/>
   </g>
   <g id="patch_196">
    <path clip-path="url(#pe7ec0b71ea)" d="M 372.499891 273.312 
L 374.116155 273.312 
L 374.116155 240.445141 
L 372.499891 240.445141 
z
" style="fill:#1f77b4;"/>
   </g>
   <g id="patch_197">
    <path clip-path="url(#pe7ec0b71ea)" d="M 374.116155 273.312 
L 375.73242 273.312 
L 375.73242 251.400761 
L 374.116155 251.400761 
z
" style="fill:#1f77b4;"/>
   </g>
   <g id="patch_198">
    <path clip-path="url(#pe7ec0b71ea)" d="M 375.73242 273.312 
L 377.348684 273.312 
L 377.348684 255.783009 
L 375.73242 255.783009 
z
" style="fill:#1f77b4;"/>
   </g>
   <g id="patch_199">
    <path clip-path="url(#pe7ec0b71ea)" d="M 377.348684 273.312 
L 378.964949 273.312 
L 378.964949 266.738628 
L 377.348684 266.738628 
z
" style="fill:#1f77b4;"/>
   </g>
   <g id="patch_200">
    <path clip-path="url(#pe7ec0b71ea)" d="M 378.964949 273.312 
L 380.581214 273.312 
L 380.581214 265.277879 
L 378.964949 265.277879 
z
" style="fill:#1f77b4;"/>
   </g>
   <g id="patch_201">
    <path clip-path="url(#pe7ec0b71ea)" d="M 380.581214 273.312 
L 382.197478 273.312 
L 382.197478 266.008254 
L 380.581214 266.008254 
z
" style="fill:#1f77b4;"/>
   </g>
   <g id="patch_202">
    <path clip-path="url(#pe7ec0b71ea)" d="M 382.197478 273.312 
L 383.813743 273.312 
L 383.813743 267.469003 
L 382.197478 267.469003 
z
" style="fill:#1f77b4;"/>
   </g>
   <g id="matplotlib.axis_1">
    <g id="xtick_1">
     <g id="line2d_1">
      <defs>
       <path d="M 0 0 
L 0 3.5 
" id="m532ff4a503" style="stroke:#000000;stroke-width:0.8;"/>
      </defs>
      <g>
       <use style="stroke:#000000;stroke-width:0.8;" x="60.013977" xlink:href="#m532ff4a503" y="273.312"/>
      </g>
     </g>
     <g id="text_1">
      <!-- 0.0 -->
      <g transform="translate(52.062415 287.910437)scale(0.1 -0.1)">
       <defs>
        <path d="M 2034 4250 
Q 1547 4250 1301 3770 
Q 1056 3291 1056 2328 
Q 1056 1369 1301 889 
Q 1547 409 2034 409 
Q 2525 409 2770 889 
Q 3016 1369 3016 2328 
Q 3016 3291 2770 3770 
Q 2525 4250 2034 4250 
z
M 2034 4750 
Q 2819 4750 3233 4129 
Q 3647 3509 3647 2328 
Q 3647 1150 3233 529 
Q 2819 -91 2034 -91 
Q 1250 -91 836 529 
Q 422 1150 422 2328 
Q 422 3509 836 4129 
Q 1250 4750 2034 4750 
z
" id="DejaVuSans-30" transform="scale(0.015625)"/>
        <path d="M 684 794 
L 1344 794 
L 1344 0 
L 684 0 
L 684 794 
z
" id="DejaVuSans-2e" transform="scale(0.015625)"/>
       </defs>
       <use xlink:href="#DejaVuSans-30"/>
       <use x="63.623047" xlink:href="#DejaVuSans-2e"/>
       <use x="95.410156" xlink:href="#DejaVuSans-30"/>
      </g>
     </g>
    </g>
    <g id="xtick_2">
     <g id="line2d_2">
      <g>
       <use style="stroke:#000000;stroke-width:0.8;" x="101.350278" xlink:href="#m532ff4a503" y="273.312"/>
      </g>
     </g>
     <g id="text_2">
      <!-- 0.2 -->
      <g transform="translate(93.398715 287.910437)scale(0.1 -0.1)">
       <defs>
        <path d="M 1228 531 
L 3431 531 
L 3431 0 
L 469 0 
L 469 531 
Q 828 903 1448 1529 
Q 2069 2156 2228 2338 
Q 2531 2678 2651 2914 
Q 2772 3150 2772 3378 
Q 2772 3750 2511 3984 
Q 2250 4219 1831 4219 
Q 1534 4219 1204 4116 
Q 875 4013 500 3803 
L 500 4441 
Q 881 4594 1212 4672 
Q 1544 4750 1819 4750 
Q 2544 4750 2975 4387 
Q 3406 4025 3406 3419 
Q 3406 3131 3298 2873 
Q 3191 2616 2906 2266 
Q 2828 2175 2409 1742 
Q 1991 1309 1228 531 
z
" id="DejaVuSans-32" transform="scale(0.015625)"/>
       </defs>
       <use xlink:href="#DejaVuSans-30"/>
       <use x="63.623047" xlink:href="#DejaVuSans-2e"/>
       <use x="95.410156" xlink:href="#DejaVuSans-32"/>
      </g>
     </g>
    </g>
    <g id="xtick_3">
     <g id="line2d_3">
      <g>
       <use style="stroke:#000000;stroke-width:0.8;" x="142.686578" xlink:href="#m532ff4a503" y="273.312"/>
      </g>
     </g>
     <g id="text_3">
      <!-- 0.4 -->
      <g transform="translate(134.735016 287.910437)scale(0.1 -0.1)">
       <defs>
        <path d="M 2419 4116 
L 825 1625 
L 2419 1625 
L 2419 4116 
z
M 2253 4666 
L 3047 4666 
L 3047 1625 
L 3713 1625 
L 3713 1100 
L 3047 1100 
L 3047 0 
L 2419 0 
L 2419 1100 
L 313 1100 
L 313 1709 
L 2253 4666 
z
" id="DejaVuSans-34" transform="scale(0.015625)"/>
       </defs>
       <use xlink:href="#DejaVuSans-30"/>
       <use x="63.623047" xlink:href="#DejaVuSans-2e"/>
       <use x="95.410156" xlink:href="#DejaVuSans-34"/>
      </g>
     </g>
    </g>
    <g id="xtick_4">
     <g id="line2d_4">
      <g>
       <use style="stroke:#000000;stroke-width:0.8;" x="184.022879" xlink:href="#m532ff4a503" y="273.312"/>
      </g>
     </g>
     <g id="text_4">
      <!-- 0.6 -->
      <g transform="translate(176.071316 287.910437)scale(0.1 -0.1)">
       <defs>
        <path d="M 2113 2584 
Q 1688 2584 1439 2293 
Q 1191 2003 1191 1497 
Q 1191 994 1439 701 
Q 1688 409 2113 409 
Q 2538 409 2786 701 
Q 3034 994 3034 1497 
Q 3034 2003 2786 2293 
Q 2538 2584 2113 2584 
z
M 3366 4563 
L 3366 3988 
Q 3128 4100 2886 4159 
Q 2644 4219 2406 4219 
Q 1781 4219 1451 3797 
Q 1122 3375 1075 2522 
Q 1259 2794 1537 2939 
Q 1816 3084 2150 3084 
Q 2853 3084 3261 2657 
Q 3669 2231 3669 1497 
Q 3669 778 3244 343 
Q 2819 -91 2113 -91 
Q 1303 -91 875 529 
Q 447 1150 447 2328 
Q 447 3434 972 4092 
Q 1497 4750 2381 4750 
Q 2619 4750 2861 4703 
Q 3103 4656 3366 4563 
z
" id="DejaVuSans-36" transform="scale(0.015625)"/>
       </defs>
       <use xlink:href="#DejaVuSans-30"/>
       <use x="63.623047" xlink:href="#DejaVuSans-2e"/>
       <use x="95.410156" xlink:href="#DejaVuSans-36"/>
      </g>
     </g>
    </g>
    <g id="xtick_5">
     <g id="line2d_5">
      <g>
       <use style="stroke:#000000;stroke-width:0.8;" x="225.35918" xlink:href="#m532ff4a503" y="273.312"/>
      </g>
     </g>
     <g id="text_5">
      <!-- 0.8 -->
      <g transform="translate(217.407617 287.910437)scale(0.1 -0.1)">
       <defs>
        <path d="M 2034 2216 
Q 1584 2216 1326 1975 
Q 1069 1734 1069 1313 
Q 1069 891 1326 650 
Q 1584 409 2034 409 
Q 2484 409 2743 651 
Q 3003 894 3003 1313 
Q 3003 1734 2745 1975 
Q 2488 2216 2034 2216 
z
M 1403 2484 
Q 997 2584 770 2862 
Q 544 3141 544 3541 
Q 544 4100 942 4425 
Q 1341 4750 2034 4750 
Q 2731 4750 3128 4425 
Q 3525 4100 3525 3541 
Q 3525 3141 3298 2862 
Q 3072 2584 2669 2484 
Q 3125 2378 3379 2068 
Q 3634 1759 3634 1313 
Q 3634 634 3220 271 
Q 2806 -91 2034 -91 
Q 1263 -91 848 271 
Q 434 634 434 1313 
Q 434 1759 690 2068 
Q 947 2378 1403 2484 
z
M 1172 3481 
Q 1172 3119 1398 2916 
Q 1625 2713 2034 2713 
Q 2441 2713 2670 2916 
Q 2900 3119 2900 3481 
Q 2900 3844 2670 4047 
Q 2441 4250 2034 4250 
Q 1625 4250 1398 4047 
Q 1172 3844 1172 3481 
z
" id="DejaVuSans-38" transform="scale(0.015625)"/>
       </defs>
       <use xlink:href="#DejaVuSans-30"/>
       <use x="63.623047" xlink:href="#DejaVuSans-2e"/>
       <use x="95.410156" xlink:href="#DejaVuSans-38"/>
      </g>
     </g>
    </g>
    <g id="xtick_6">
     <g id="line2d_6">
      <g>
       <use style="stroke:#000000;stroke-width:0.8;" x="266.69548" xlink:href="#m532ff4a503" y="273.312"/>
      </g>
     </g>
     <g id="text_6">
      <!-- 1.0 -->
      <g transform="translate(258.743918 287.910437)scale(0.1 -0.1)">
       <defs>
        <path d="M 794 531 
L 1825 531 
L 1825 4091 
L 703 3866 
L 703 4441 
L 1819 4666 
L 2450 4666 
L 2450 531 
L 3481 531 
L 3481 0 
L 794 0 
L 794 531 
z
" id="DejaVuSans-31" transform="scale(0.015625)"/>
       </defs>
       <use xlink:href="#DejaVuSans-31"/>
       <use x="63.623047" xlink:href="#DejaVuSans-2e"/>
       <use x="95.410156" xlink:href="#DejaVuSans-30"/>
      </g>
     </g>
    </g>
    <g id="xtick_7">
     <g id="line2d_7">
      <g>
       <use style="stroke:#000000;stroke-width:0.8;" x="308.031781" xlink:href="#m532ff4a503" y="273.312"/>
      </g>
     </g>
     <g id="text_7">
      <!-- 1.2 -->
      <g transform="translate(300.080218 287.910437)scale(0.1 -0.1)">
       <use xlink:href="#DejaVuSans-31"/>
       <use x="63.623047" xlink:href="#DejaVuSans-2e"/>
       <use x="95.410156" xlink:href="#DejaVuSans-32"/>
      </g>
     </g>
    </g>
    <g id="xtick_8">
     <g id="line2d_8">
      <g>
       <use style="stroke:#000000;stroke-width:0.8;" x="349.368081" xlink:href="#m532ff4a503" y="273.312"/>
      </g>
     </g>
     <g id="text_8">
      <!-- 1.4 -->
      <g transform="translate(341.416519 287.910437)scale(0.1 -0.1)">
       <use xlink:href="#DejaVuSans-31"/>
       <use x="63.623047" xlink:href="#DejaVuSans-2e"/>
       <use x="95.410156" xlink:href="#DejaVuSans-34"/>
      </g>
     </g>
    </g>
    <g id="xtick_9">
     <g id="line2d_9">
      <g>
       <use style="stroke:#000000;stroke-width:0.8;" x="390.704382" xlink:href="#m532ff4a503" y="273.312"/>
      </g>
     </g>
     <g id="text_9">
      <!-- 1.6 -->
      <g transform="translate(382.752819 287.910437)scale(0.1 -0.1)">
       <use xlink:href="#DejaVuSans-31"/>
       <use x="63.623047" xlink:href="#DejaVuSans-2e"/>
       <use x="95.410156" xlink:href="#DejaVuSans-36"/>
      </g>
     </g>
    </g>
    <g id="text_10">
     <!-- Angle with normal (rad) -->
     <g transform="translate(163.023281 301.588562)scale(0.1 -0.1)">
      <defs>
       <path d="M 2188 4044 
L 1331 1722 
L 3047 1722 
L 2188 4044 
z
M 1831 4666 
L 2547 4666 
L 4325 0 
L 3669 0 
L 3244 1197 
L 1141 1197 
L 716 0 
L 50 0 
L 1831 4666 
z
" id="DejaVuSans-41" transform="scale(0.015625)"/>
       <path d="M 3513 2113 
L 3513 0 
L 2938 0 
L 2938 2094 
Q 2938 2591 2744 2837 
Q 2550 3084 2163 3084 
Q 1697 3084 1428 2787 
Q 1159 2491 1159 1978 
L 1159 0 
L 581 0 
L 581 3500 
L 1159 3500 
L 1159 2956 
Q 1366 3272 1645 3428 
Q 1925 3584 2291 3584 
Q 2894 3584 3203 3211 
Q 3513 2838 3513 2113 
z
" id="DejaVuSans-6e" transform="scale(0.015625)"/>
       <path d="M 2906 1791 
Q 2906 2416 2648 2759 
Q 2391 3103 1925 3103 
Q 1463 3103 1205 2759 
Q 947 2416 947 1791 
Q 947 1169 1205 825 
Q 1463 481 1925 481 
Q 2391 481 2648 825 
Q 2906 1169 2906 1791 
z
M 3481 434 
Q 3481 -459 3084 -895 
Q 2688 -1331 1869 -1331 
Q 1566 -1331 1297 -1286 
Q 1028 -1241 775 -1147 
L 775 -588 
Q 1028 -725 1275 -790 
Q 1522 -856 1778 -856 
Q 2344 -856 2625 -561 
Q 2906 -266 2906 331 
L 2906 616 
Q 2728 306 2450 153 
Q 2172 0 1784 0 
Q 1141 0 747 490 
Q 353 981 353 1791 
Q 353 2603 747 3093 
Q 1141 3584 1784 3584 
Q 2172 3584 2450 3431 
Q 2728 3278 2906 2969 
L 2906 3500 
L 3481 3500 
L 3481 434 
z
" id="DejaVuSans-67" transform="scale(0.015625)"/>
       <path d="M 603 4863 
L 1178 4863 
L 1178 0 
L 603 0 
L 603 4863 
z
" id="DejaVuSans-6c" transform="scale(0.015625)"/>
       <path d="M 3597 1894 
L 3597 1613 
L 953 1613 
Q 991 1019 1311 708 
Q 1631 397 2203 397 
Q 2534 397 2845 478 
Q 3156 559 3463 722 
L 3463 178 
Q 3153 47 2828 -22 
Q 2503 -91 2169 -91 
Q 1331 -91 842 396 
Q 353 884 353 1716 
Q 353 2575 817 3079 
Q 1281 3584 2069 3584 
Q 2775 3584 3186 3129 
Q 3597 2675 3597 1894 
z
M 3022 2063 
Q 3016 2534 2758 2815 
Q 2500 3097 2075 3097 
Q 1594 3097 1305 2825 
Q 1016 2553 972 2059 
L 3022 2063 
z
" id="DejaVuSans-65" transform="scale(0.015625)"/>
       <path id="DejaVuSans-20" transform="scale(0.015625)"/>
       <path d="M 269 3500 
L 844 3500 
L 1563 769 
L 2278 3500 
L 2956 3500 
L 3675 769 
L 4391 3500 
L 4966 3500 
L 4050 0 
L 3372 0 
L 2619 2869 
L 1863 0 
L 1184 0 
L 269 3500 
z
" id="DejaVuSans-77" transform="scale(0.015625)"/>
       <path d="M 603 3500 
L 1178 3500 
L 1178 0 
L 603 0 
L 603 3500 
z
M 603 4863 
L 1178 4863 
L 1178 4134 
L 603 4134 
L 603 4863 
z
" id="DejaVuSans-69" transform="scale(0.015625)"/>
       <path d="M 1172 4494 
L 1172 3500 
L 2356 3500 
L 2356 3053 
L 1172 3053 
L 1172 1153 
Q 1172 725 1289 603 
Q 1406 481 1766 481 
L 2356 481 
L 2356 0 
L 1766 0 
Q 1100 0 847 248 
Q 594 497 594 1153 
L 594 3053 
L 172 3053 
L 172 3500 
L 594 3500 
L 594 4494 
L 1172 4494 
z
" id="DejaVuSans-74" transform="scale(0.015625)"/>
       <path d="M 3513 2113 
L 3513 0 
L 2938 0 
L 2938 2094 
Q 2938 2591 2744 2837 
Q 2550 3084 2163 3084 
Q 1697 3084 1428 2787 
Q 1159 2491 1159 1978 
L 1159 0 
L 581 0 
L 581 4863 
L 1159 4863 
L 1159 2956 
Q 1366 3272 1645 3428 
Q 1925 3584 2291 3584 
Q 2894 3584 3203 3211 
Q 3513 2838 3513 2113 
z
" id="DejaVuSans-68" transform="scale(0.015625)"/>
       <path d="M 1959 3097 
Q 1497 3097 1228 2736 
Q 959 2375 959 1747 
Q 959 1119 1226 758 
Q 1494 397 1959 397 
Q 2419 397 2687 759 
Q 2956 1122 2956 1747 
Q 2956 2369 2687 2733 
Q 2419 3097 1959 3097 
z
M 1959 3584 
Q 2709 3584 3137 3096 
Q 3566 2609 3566 1747 
Q 3566 888 3137 398 
Q 2709 -91 1959 -91 
Q 1206 -91 779 398 
Q 353 888 353 1747 
Q 353 2609 779 3096 
Q 1206 3584 1959 3584 
z
" id="DejaVuSans-6f" transform="scale(0.015625)"/>
       <path d="M 2631 2963 
Q 2534 3019 2420 3045 
Q 2306 3072 2169 3072 
Q 1681 3072 1420 2755 
Q 1159 2438 1159 1844 
L 1159 0 
L 581 0 
L 581 3500 
L 1159 3500 
L 1159 2956 
Q 1341 3275 1631 3429 
Q 1922 3584 2338 3584 
Q 2397 3584 2469 3576 
Q 2541 3569 2628 3553 
L 2631 2963 
z
" id="DejaVuSans-72" transform="scale(0.015625)"/>
       <path d="M 3328 2828 
Q 3544 3216 3844 3400 
Q 4144 3584 4550 3584 
Q 5097 3584 5394 3201 
Q 5691 2819 5691 2113 
L 5691 0 
L 5113 0 
L 5113 2094 
Q 5113 2597 4934 2840 
Q 4756 3084 4391 3084 
Q 3944 3084 3684 2787 
Q 3425 2491 3425 1978 
L 3425 0 
L 2847 0 
L 2847 2094 
Q 2847 2600 2669 2842 
Q 2491 3084 2119 3084 
Q 1678 3084 1418 2786 
Q 1159 2488 1159 1978 
L 1159 0 
L 581 0 
L 581 3500 
L 1159 3500 
L 1159 2956 
Q 1356 3278 1631 3431 
Q 1906 3584 2284 3584 
Q 2666 3584 2933 3390 
Q 3200 3197 3328 2828 
z
" id="DejaVuSans-6d" transform="scale(0.015625)"/>
       <path d="M 2194 1759 
Q 1497 1759 1228 1600 
Q 959 1441 959 1056 
Q 959 750 1161 570 
Q 1363 391 1709 391 
Q 2188 391 2477 730 
Q 2766 1069 2766 1631 
L 2766 1759 
L 2194 1759 
z
M 3341 1997 
L 3341 0 
L 2766 0 
L 2766 531 
Q 2569 213 2275 61 
Q 1981 -91 1556 -91 
Q 1019 -91 701 211 
Q 384 513 384 1019 
Q 384 1609 779 1909 
Q 1175 2209 1959 2209 
L 2766 2209 
L 2766 2266 
Q 2766 2663 2505 2880 
Q 2244 3097 1772 3097 
Q 1472 3097 1187 3025 
Q 903 2953 641 2809 
L 641 3341 
Q 956 3463 1253 3523 
Q 1550 3584 1831 3584 
Q 2591 3584 2966 3190 
Q 3341 2797 3341 1997 
z
" id="DejaVuSans-61" transform="scale(0.015625)"/>
       <path d="M 1984 4856 
Q 1566 4138 1362 3434 
Q 1159 2731 1159 2009 
Q 1159 1288 1364 580 
Q 1569 -128 1984 -844 
L 1484 -844 
Q 1016 -109 783 600 
Q 550 1309 550 2009 
Q 550 2706 781 3412 
Q 1013 4119 1484 4856 
L 1984 4856 
z
" id="DejaVuSans-28" transform="scale(0.015625)"/>
       <path d="M 2906 2969 
L 2906 4863 
L 3481 4863 
L 3481 0 
L 2906 0 
L 2906 525 
Q 2725 213 2448 61 
Q 2172 -91 1784 -91 
Q 1150 -91 751 415 
Q 353 922 353 1747 
Q 353 2572 751 3078 
Q 1150 3584 1784 3584 
Q 2172 3584 2448 3432 
Q 2725 3281 2906 2969 
z
M 947 1747 
Q 947 1113 1208 752 
Q 1469 391 1925 391 
Q 2381 391 2643 752 
Q 2906 1113 2906 1747 
Q 2906 2381 2643 2742 
Q 2381 3103 1925 3103 
Q 1469 3103 1208 2742 
Q 947 2381 947 1747 
z
" id="DejaVuSans-64" transform="scale(0.015625)"/>
       <path d="M 513 4856 
L 1013 4856 
Q 1481 4119 1714 3412 
Q 1947 2706 1947 2009 
Q 1947 1309 1714 600 
Q 1481 -109 1013 -844 
L 513 -844 
Q 928 -128 1133 580 
Q 1338 1288 1338 2009 
Q 1338 2731 1133 3434 
Q 928 4138 513 4856 
z
" id="DejaVuSans-29" transform="scale(0.015625)"/>
      </defs>
      <use xlink:href="#DejaVuSans-41"/>
      <use x="68.408203" xlink:href="#DejaVuSans-6e"/>
      <use x="131.787109" xlink:href="#DejaVuSans-67"/>
      <use x="195.263672" xlink:href="#DejaVuSans-6c"/>
      <use x="223.046875" xlink:href="#DejaVuSans-65"/>
      <use x="284.570312" xlink:href="#DejaVuSans-20"/>
      <use x="316.357422" xlink:href="#DejaVuSans-77"/>
      <use x="398.144531" xlink:href="#DejaVuSans-69"/>
      <use x="425.927734" xlink:href="#DejaVuSans-74"/>
      <use x="465.136719" xlink:href="#DejaVuSans-68"/>
      <use x="528.515625" xlink:href="#DejaVuSans-20"/>
      <use x="560.302734" xlink:href="#DejaVuSans-6e"/>
      <use x="623.681641" xlink:href="#DejaVuSans-6f"/>
      <use x="684.863281" xlink:href="#DejaVuSans-72"/>
      <use x="724.226562" xlink:href="#DejaVuSans-6d"/>
      <use x="821.638672" xlink:href="#DejaVuSans-61"/>
      <use x="882.917969" xlink:href="#DejaVuSans-6c"/>
      <use x="910.701172" xlink:href="#DejaVuSans-20"/>
      <use x="942.488281" xlink:href="#DejaVuSans-28"/>
      <use x="981.501953" xlink:href="#DejaVuSans-72"/>
      <use x="1022.615234" xlink:href="#DejaVuSans-61"/>
      <use x="1083.894531" xlink:href="#DejaVuSans-64"/>
      <use x="1147.371094" xlink:href="#DejaVuSans-29"/>
     </g>
    </g>
   </g>
   <g id="matplotlib.axis_2">
    <g id="ytick_1">
     <g id="line2d_10">
      <defs>
       <path d="M 0 0 
L -3.5 0 
" id="mfca32b04a8" style="stroke:#000000;stroke-width:0.8;"/>
      </defs>
      <g>
       <use style="stroke:#000000;stroke-width:0.8;" x="43.78125" xlink:href="#mfca32b04a8" y="273.312"/>
      </g>
     </g>
     <g id="text_11">
      <!-- 0.0 -->
      <g transform="translate(20.878125 277.111219)scale(0.1 -0.1)">
       <use xlink:href="#DejaVuSans-30"/>
       <use x="63.623047" xlink:href="#DejaVuSans-2e"/>
       <use x="95.410156" xlink:href="#DejaVuSans-30"/>
      </g>
     </g>
    </g>
    <g id="ytick_2">
     <g id="line2d_11">
      <g>
       <use style="stroke:#000000;stroke-width:0.8;" x="43.78125" xlink:href="#mfca32b04a8" y="227.619332"/>
      </g>
     </g>
     <g id="text_12">
      <!-- 0.2 -->
      <g transform="translate(20.878125 231.418551)scale(0.1 -0.1)">
       <use xlink:href="#DejaVuSans-30"/>
       <use x="63.623047" xlink:href="#DejaVuSans-2e"/>
       <use x="95.410156" xlink:href="#DejaVuSans-32"/>
      </g>
     </g>
    </g>
    <g id="ytick_3">
     <g id="line2d_12">
      <g>
       <use style="stroke:#000000;stroke-width:0.8;" x="43.78125" xlink:href="#mfca32b04a8" y="181.926664"/>
      </g>
     </g>
     <g id="text_13">
      <!-- 0.4 -->
      <g transform="translate(20.878125 185.725882)scale(0.1 -0.1)">
       <use xlink:href="#DejaVuSans-30"/>
       <use x="63.623047" xlink:href="#DejaVuSans-2e"/>
       <use x="95.410156" xlink:href="#DejaVuSans-34"/>
      </g>
     </g>
    </g>
    <g id="ytick_4">
     <g id="line2d_13">
      <g>
       <use style="stroke:#000000;stroke-width:0.8;" x="43.78125" xlink:href="#mfca32b04a8" y="136.233995"/>
      </g>
     </g>
     <g id="text_14">
      <!-- 0.6 -->
      <g transform="translate(20.878125 140.033214)scale(0.1 -0.1)">
       <use xlink:href="#DejaVuSans-30"/>
       <use x="63.623047" xlink:href="#DejaVuSans-2e"/>
       <use x="95.410156" xlink:href="#DejaVuSans-36"/>
      </g>
     </g>
    </g>
    <g id="ytick_5">
     <g id="line2d_14">
      <g>
       <use style="stroke:#000000;stroke-width:0.8;" x="43.78125" xlink:href="#mfca32b04a8" y="90.541327"/>
      </g>
     </g>
     <g id="text_15">
      <!-- 0.8 -->
      <g transform="translate(20.878125 94.340546)scale(0.1 -0.1)">
       <use xlink:href="#DejaVuSans-30"/>
       <use x="63.623047" xlink:href="#DejaVuSans-2e"/>
       <use x="95.410156" xlink:href="#DejaVuSans-38"/>
      </g>
     </g>
    </g>
    <g id="ytick_6">
     <g id="line2d_15">
      <g>
       <use style="stroke:#000000;stroke-width:0.8;" x="43.78125" xlink:href="#mfca32b04a8" y="44.848659"/>
      </g>
     </g>
     <g id="text_16">
      <!-- 1.0 -->
      <g transform="translate(20.878125 48.647878)scale(0.1 -0.1)">
       <use xlink:href="#DejaVuSans-31"/>
       <use x="63.623047" xlink:href="#DejaVuSans-2e"/>
       <use x="95.410156" xlink:href="#DejaVuSans-30"/>
      </g>
     </g>
    </g>
    <g id="text_17">
     <!-- Probability density -->
     <g transform="translate(14.798438 186.606781)rotate(-90)scale(0.1 -0.1)">
      <defs>
       <path d="M 1259 4147 
L 1259 2394 
L 2053 2394 
Q 2494 2394 2734 2622 
Q 2975 2850 2975 3272 
Q 2975 3691 2734 3919 
Q 2494 4147 2053 4147 
L 1259 4147 
z
M 628 4666 
L 2053 4666 
Q 2838 4666 3239 4311 
Q 3641 3956 3641 3272 
Q 3641 2581 3239 2228 
Q 2838 1875 2053 1875 
L 1259 1875 
L 1259 0 
L 628 0 
L 628 4666 
z
" id="DejaVuSans-50" transform="scale(0.015625)"/>
       <path d="M 3116 1747 
Q 3116 2381 2855 2742 
Q 2594 3103 2138 3103 
Q 1681 3103 1420 2742 
Q 1159 2381 1159 1747 
Q 1159 1113 1420 752 
Q 1681 391 2138 391 
Q 2594 391 2855 752 
Q 3116 1113 3116 1747 
z
M 1159 2969 
Q 1341 3281 1617 3432 
Q 1894 3584 2278 3584 
Q 2916 3584 3314 3078 
Q 3713 2572 3713 1747 
Q 3713 922 3314 415 
Q 2916 -91 2278 -91 
Q 1894 -91 1617 61 
Q 1341 213 1159 525 
L 1159 0 
L 581 0 
L 581 4863 
L 1159 4863 
L 1159 2969 
z
" id="DejaVuSans-62" transform="scale(0.015625)"/>
       <path d="M 2059 -325 
Q 1816 -950 1584 -1140 
Q 1353 -1331 966 -1331 
L 506 -1331 
L 506 -850 
L 844 -850 
Q 1081 -850 1212 -737 
Q 1344 -625 1503 -206 
L 1606 56 
L 191 3500 
L 800 3500 
L 1894 763 
L 2988 3500 
L 3597 3500 
L 2059 -325 
z
" id="DejaVuSans-79" transform="scale(0.015625)"/>
       <path d="M 2834 3397 
L 2834 2853 
Q 2591 2978 2328 3040 
Q 2066 3103 1784 3103 
Q 1356 3103 1142 2972 
Q 928 2841 928 2578 
Q 928 2378 1081 2264 
Q 1234 2150 1697 2047 
L 1894 2003 
Q 2506 1872 2764 1633 
Q 3022 1394 3022 966 
Q 3022 478 2636 193 
Q 2250 -91 1575 -91 
Q 1294 -91 989 -36 
Q 684 19 347 128 
L 347 722 
Q 666 556 975 473 
Q 1284 391 1588 391 
Q 1994 391 2212 530 
Q 2431 669 2431 922 
Q 2431 1156 2273 1281 
Q 2116 1406 1581 1522 
L 1381 1569 
Q 847 1681 609 1914 
Q 372 2147 372 2553 
Q 372 3047 722 3315 
Q 1072 3584 1716 3584 
Q 2034 3584 2315 3537 
Q 2597 3491 2834 3397 
z
" id="DejaVuSans-73" transform="scale(0.015625)"/>
      </defs>
      <use xlink:href="#DejaVuSans-50"/>
      <use x="58.552734" xlink:href="#DejaVuSans-72"/>
      <use x="97.416016" xlink:href="#DejaVuSans-6f"/>
      <use x="158.597656" xlink:href="#DejaVuSans-62"/>
      <use x="222.074219" xlink:href="#DejaVuSans-61"/>
      <use x="283.353516" xlink:href="#DejaVuSans-62"/>
      <use x="346.830078" xlink:href="#DejaVuSans-69"/>
      <use x="374.613281" xlink:href="#DejaVuSans-6c"/>
      <use x="402.396484" xlink:href="#DejaVuSans-69"/>
      <use x="430.179688" xlink:href="#DejaVuSans-74"/>
      <use x="469.388672" xlink:href="#DejaVuSans-79"/>
      <use x="528.568359" xlink:href="#DejaVuSans-20"/>
      <use x="560.355469" xlink:href="#DejaVuSans-64"/>
      <use x="623.832031" xlink:href="#DejaVuSans-65"/>
      <use x="685.355469" xlink:href="#DejaVuSans-6e"/>
      <use x="748.734375" xlink:href="#DejaVuSans-73"/>
      <use x="800.833984" xlink:href="#DejaVuSans-69"/>
      <use x="828.617188" xlink:href="#DejaVuSans-74"/>
      <use x="867.826172" xlink:href="#DejaVuSans-79"/>
     </g>
    </g>
   </g>
   <g id="line2d_16">
    <path clip-path="url(#pe7ec0b71ea)" d="M 60.013977 273.312 
L 79.837728 229.754403 
L 90.237073 207.443919 
L 99.01152 189.12888 
L 106.811029 173.354031 
L 113.960578 159.391572 
L 120.460169 147.169703 
L 126.63478 136.020237 
L 132.484411 125.908952 
L 138.009063 116.79243 
L 143.208736 108.620267 
L 148.408408 100.864962 
L 153.283101 93.990429 
L 157.832814 87.933833 
L 162.382528 82.2365 
L 166.932241 76.909473 
L 171.156975 72.303557 
L 175.381709 68.03354 
L 179.281463 64.396303 
L 183.181217 61.05654 
L 187.080972 58.019008 
L 190.655746 55.503807 
L 194.230521 53.249213 
L 197.805296 51.257922 
L 201.380071 49.532318 
L 204.629866 48.195885 
L 207.879661 47.082059 
L 211.129456 46.191942 
L 214.379252 45.526414 
L 217.629047 45.086133 
L 220.878842 44.871535 
L 224.128637 44.882831 
L 227.378433 45.120011 
L 230.628228 45.58284 
L 233.878023 46.27086 
L 237.127818 47.183391 
L 240.377614 48.319531 
L 243.627409 49.678155 
L 247.202184 51.428003 
L 250.776958 53.443334 
L 254.351733 55.721736 
L 257.926508 58.260484 
L 261.501283 61.05654 
L 265.401037 64.396303 
L 269.300791 68.03354 
L 273.200546 71.963074 
L 277.425279 76.543418 
L 281.650013 81.452576 
L 286.199727 87.097667 
L 290.74944 93.103642 
L 295.624133 99.925849 
L 300.498826 107.133788 
L 305.698498 115.229334 
L 311.22315 124.268791 
L 316.747802 133.734116 
L 322.597433 144.19033 
L 328.772044 155.675474 
L 335.596614 168.856321 
L 342.746164 183.152255 
L 350.870652 199.917388 
L 359.970079 219.227597 
L 371.019383 243.224454 
L 384.668523 273.312 
L 384.668523 273.312 
" style="fill:none;stroke:#ff7f0e;stroke-linecap:square;stroke-width:1.5;"/>
   </g>
   <g id="patch_203">
    <path d="M 43.78125 273.312 
L 43.78125 7.2 
" style="fill:none;stroke:#000000;stroke-linecap:square;stroke-linejoin:miter;stroke-width:0.8;"/>
   </g>
   <g id="patch_204">
    <path d="M 400.90125 273.312 
L 400.90125 7.2 
" style="fill:none;stroke:#000000;stroke-linecap:square;stroke-linejoin:miter;stroke-width:0.8;"/>
   </g>
   <g id="patch_205">
    <path d="M 43.78125 273.312 
L 400.90125 273.312 
" style="fill:none;stroke:#000000;stroke-linecap:square;stroke-linejoin:miter;stroke-width:0.8;"/>
   </g>
   <g id="patch_206">
    <path d="M 43.78125 7.2 
L 400.90125 7.2 
" style="fill:none;stroke:#000000;stroke-linecap:square;stroke-linejoin:miter;stroke-width:0.8;"/>
   </g>
  </g>
 </g>
 <defs>
  <clipPath id="pe7ec0b71ea">
   <rect height="266.112" width="357.12" x="43.78125" y="7.2"/>
  </clipPath>
 </defs>
</svg>
