<?xml version="1.0" encoding="utf-8" standalone="no"?>
<!DOCTYPE svg PUBLIC "-//W3C//DTD SVG 1.1//EN"
  "http://www.w3.org/Graphics/SVG/1.1/DTD/svg11.dtd">
<svg height="310.86825pt" version="1.1" viewBox="0 0 414.46375 310.86825" width="414.46375pt" xmlns="http://www.w3.org/2000/svg" xmlns:xlink="http://www.w3.org/1999/xlink">
 <metadata>
  <rdf:RDF xmlns:cc="http://creativecommons.org/ns#" xmlns:dc="http://purl.org/dc/elements/1.1/" xmlns:rdf="http://www.w3.org/1999/02/22-rdf-syntax-ns#">
   <cc:Work>
    <dc:type rdf:resource="http://purl.org/dc/dcmitype/StillImage"/>
    <dc:date>2021-07-13T13:16:19.705150</dc:date>
    <dc:format>image/svg+xml</dc:format>
    <dc:creator>
     <cc:Agent>
      <dc:title>Matplotlib v3.4.2, https://matplotlib.org/</dc:title>
     </cc:Agent>
    </dc:creator>
   </cc:Work>
  </rdf:RDF>
 </metadata>
 <defs>
  <style type="text/css">*{stroke-linecap:butt;stroke-linejoin:round;}</style>
 </defs>
 <g id="figure_1">
  <g id="patch_1">
   <path d="M 0 310.86825 
L 414.46375 310.86825 
L 414.46375 0 
L 0 0 
z
" style="fill:#ffffff;"/>
  </g>
  <g id="axes_1">
   <g id="patch_2">
    <path d="M 50.14375 273.312 
L 407.26375 273.312 
L 407.26375 7.2 
L 50.14375 7.2 
z
" style="fill:#ffffff;"/>
   </g>
   <g id="patch_3">
    <path clip-path="url(#pd339e6b1c8)" d="M 67.719159 273.312 
L 69.335712 273.312 
L 69.335712 271.501714 
L 67.719159 271.501714 
z
" style="fill:#1f77b4;"/>
   </g>
   <g id="patch_4">
    <path clip-path="url(#pd339e6b1c8)" d="M 69.335712 273.312 
L 70.952266 273.312 
L 70.952266 269.691429 
L 69.335712 269.691429 
z
" style="fill:#1f77b4;"/>
   </g>
   <g id="patch_5">
    <path clip-path="url(#pd339e6b1c8)" d="M 70.952266 273.312 
L 72.56882 273.312 
L 72.56882 269.088 
L 70.952266 269.088 
z
" style="fill:#1f77b4;"/>
   </g>
   <g id="patch_6">
    <path clip-path="url(#pd339e6b1c8)" d="M 72.56882 273.312 
L 74.185373 273.312 
L 74.185373 268.484571 
L 72.56882 268.484571 
z
" style="fill:#1f77b4;"/>
   </g>
   <g id="patch_7">
    <path clip-path="url(#pd339e6b1c8)" d="M 74.185373 273.312 
L 75.801927 273.312 
L 75.801927 269.691429 
L 74.185373 269.691429 
z
" style="fill:#1f77b4;"/>
   </g>
   <g id="patch_8">
    <path clip-path="url(#pd339e6b1c8)" d="M 75.801927 273.312 
L 77.418481 273.312 
L 77.418481 268.484571 
L 75.801927 268.484571 
z
" style="fill:#1f77b4;"/>
   </g>
   <g id="patch_9">
    <path clip-path="url(#pd339e6b1c8)" d="M 77.418481 273.312 
L 79.035034 273.312 
L 79.035034 267.277714 
L 77.418481 267.277714 
z
" style="fill:#1f77b4;"/>
   </g>
   <g id="patch_10">
    <path clip-path="url(#pd339e6b1c8)" d="M 79.035034 273.312 
L 80.651588 273.312 
L 80.651588 263.657143 
L 79.035034 263.657143 
z
" style="fill:#1f77b4;"/>
   </g>
   <g id="patch_11">
    <path clip-path="url(#pd339e6b1c8)" d="M 80.651588 273.312 
L 82.268142 273.312 
L 82.268142 260.64 
L 80.651588 260.64 
z
" style="fill:#1f77b4;"/>
   </g>
   <g id="patch_12">
    <path clip-path="url(#pd339e6b1c8)" d="M 82.268142 273.312 
L 83.884695 273.312 
L 83.884695 261.243429 
L 82.268142 261.243429 
z
" style="fill:#1f77b4;"/>
   </g>
   <g id="patch_13">
    <path clip-path="url(#pd339e6b1c8)" d="M 83.884695 273.312 
L 85.501249 273.312 
L 85.501249 252.795429 
L 83.884695 252.795429 
z
" style="fill:#1f77b4;"/>
   </g>
   <g id="patch_14">
    <path clip-path="url(#pd339e6b1c8)" d="M 85.501249 273.312 
L 87.117802 273.312 
L 87.117802 255.812571 
L 85.501249 255.812571 
z
" style="fill:#1f77b4;"/>
   </g>
   <g id="patch_15">
    <path clip-path="url(#pd339e6b1c8)" d="M 87.117802 273.312 
L 88.734356 273.312 
L 88.734356 257.019429 
L 87.117802 257.019429 
z
" style="fill:#1f77b4;"/>
   </g>
   <g id="patch_16">
    <path clip-path="url(#pd339e6b1c8)" d="M 88.734356 273.312 
L 90.35091 273.312 
L 90.35091 256.416 
L 88.734356 256.416 
z
" style="fill:#1f77b4;"/>
   </g>
   <g id="patch_17">
    <path clip-path="url(#pd339e6b1c8)" d="M 90.35091 273.312 
L 91.967463 273.312 
L 91.967463 253.398857 
L 90.35091 253.398857 
z
" style="fill:#1f77b4;"/>
   </g>
   <g id="patch_18">
    <path clip-path="url(#pd339e6b1c8)" d="M 91.967463 273.312 
L 93.584017 273.312 
L 93.584017 249.778286 
L 91.967463 249.778286 
z
" style="fill:#1f77b4;"/>
   </g>
   <g id="patch_19">
    <path clip-path="url(#pd339e6b1c8)" d="M 93.584017 273.312 
L 95.200571 273.312 
L 95.200571 257.019429 
L 93.584017 257.019429 
z
" style="fill:#1f77b4;"/>
   </g>
   <g id="patch_20">
    <path clip-path="url(#pd339e6b1c8)" d="M 95.200571 273.312 
L 96.817124 273.312 
L 96.817124 248.571429 
L 95.200571 248.571429 
z
" style="fill:#1f77b4;"/>
   </g>
   <g id="patch_21">
    <path clip-path="url(#pd339e6b1c8)" d="M 96.817124 273.312 
L 98.433678 273.312 
L 98.433678 249.778286 
L 96.817124 249.778286 
z
" style="fill:#1f77b4;"/>
   </g>
   <g id="patch_22">
    <path clip-path="url(#pd339e6b1c8)" d="M 98.433678 273.312 
L 100.050232 273.312 
L 100.050232 247.968 
L 98.433678 247.968 
z
" style="fill:#1f77b4;"/>
   </g>
   <g id="patch_23">
    <path clip-path="url(#pd339e6b1c8)" d="M 100.050232 273.312 
L 101.666785 273.312 
L 101.666785 247.364571 
L 100.050232 247.364571 
z
" style="fill:#1f77b4;"/>
   </g>
   <g id="patch_24">
    <path clip-path="url(#pd339e6b1c8)" d="M 101.666785 273.312 
L 103.283339 273.312 
L 103.283339 243.744 
L 101.666785 243.744 
z
" style="fill:#1f77b4;"/>
   </g>
   <g id="patch_25">
    <path clip-path="url(#pd339e6b1c8)" d="M 103.283339 273.312 
L 104.899892 273.312 
L 104.899892 245.554286 
L 103.283339 245.554286 
z
" style="fill:#1f77b4;"/>
   </g>
   <g id="patch_26">
    <path clip-path="url(#pd339e6b1c8)" d="M 104.899892 273.312 
L 106.516446 273.312 
L 106.516446 243.140571 
L 104.899892 243.140571 
z
" style="fill:#1f77b4;"/>
   </g>
   <g id="patch_27">
    <path clip-path="url(#pd339e6b1c8)" d="M 106.516446 273.312 
L 108.133 273.312 
L 108.133 240.123429 
L 106.516446 240.123429 
z
" style="fill:#1f77b4;"/>
   </g>
   <g id="patch_28">
    <path clip-path="url(#pd339e6b1c8)" d="M 108.133 273.312 
L 109.749553 273.312 
L 109.749553 234.089143 
L 108.133 234.089143 
z
" style="fill:#1f77b4;"/>
   </g>
   <g id="patch_29">
    <path clip-path="url(#pd339e6b1c8)" d="M 109.749553 273.312 
L 111.366107 273.312 
L 111.366107 244.950857 
L 109.749553 244.950857 
z
" style="fill:#1f77b4;"/>
   </g>
   <g id="patch_30">
    <path clip-path="url(#pd339e6b1c8)" d="M 111.366107 273.312 
L 112.982661 273.312 
L 112.982661 242.537143 
L 111.366107 242.537143 
z
" style="fill:#1f77b4;"/>
   </g>
   <g id="patch_31">
    <path clip-path="url(#pd339e6b1c8)" d="M 112.982661 273.312 
L 114.599214 273.312 
L 114.599214 242.537143 
L 112.982661 242.537143 
z
" style="fill:#1f77b4;"/>
   </g>
   <g id="patch_32">
    <path clip-path="url(#pd339e6b1c8)" d="M 114.599214 273.312 
L 116.215768 273.312 
L 116.215768 226.244571 
L 114.599214 226.244571 
z
" style="fill:#1f77b4;"/>
   </g>
   <g id="patch_33">
    <path clip-path="url(#pd339e6b1c8)" d="M 116.215768 273.312 
L 117.832322 273.312 
L 117.832322 234.089143 
L 116.215768 234.089143 
z
" style="fill:#1f77b4;"/>
   </g>
   <g id="patch_34">
    <path clip-path="url(#pd339e6b1c8)" d="M 117.832322 273.312 
L 119.448875 273.312 
L 119.448875 239.52 
L 117.832322 239.52 
z
" style="fill:#1f77b4;"/>
   </g>
   <g id="patch_35">
    <path clip-path="url(#pd339e6b1c8)" d="M 119.448875 273.312 
L 121.065429 273.312 
L 121.065429 234.089143 
L 119.448875 234.089143 
z
" style="fill:#1f77b4;"/>
   </g>
   <g id="patch_36">
    <path clip-path="url(#pd339e6b1c8)" d="M 121.065429 273.312 
L 122.681982 273.312 
L 122.681982 225.641143 
L 121.065429 225.641143 
z
" style="fill:#1f77b4;"/>
   </g>
   <g id="patch_37">
    <path clip-path="url(#pd339e6b1c8)" d="M 122.681982 273.312 
L 124.298536 273.312 
L 124.298536 237.106286 
L 122.681982 237.106286 
z
" style="fill:#1f77b4;"/>
   </g>
   <g id="patch_38">
    <path clip-path="url(#pd339e6b1c8)" d="M 124.298536 273.312 
L 125.91509 273.312 
L 125.91509 227.451429 
L 124.298536 227.451429 
z
" style="fill:#1f77b4;"/>
   </g>
   <g id="patch_39">
    <path clip-path="url(#pd339e6b1c8)" d="M 125.91509 273.312 
L 127.531643 273.312 
L 127.531643 230.468571 
L 125.91509 230.468571 
z
" style="fill:#1f77b4;"/>
   </g>
   <g id="patch_40">
    <path clip-path="url(#pd339e6b1c8)" d="M 127.531643 273.312 
L 129.148197 273.312 
L 129.148197 229.261714 
L 127.531643 229.261714 
z
" style="fill:#1f77b4;"/>
   </g>
   <g id="patch_41">
    <path clip-path="url(#pd339e6b1c8)" d="M 129.148197 273.312 
L 130.764751 273.312 
L 130.764751 234.692571 
L 129.148197 234.692571 
z
" style="fill:#1f77b4;"/>
   </g>
   <g id="patch_42">
    <path clip-path="url(#pd339e6b1c8)" d="M 130.764751 273.312 
L 132.381304 273.312 
L 132.381304 229.865143 
L 130.764751 229.865143 
z
" style="fill:#1f77b4;"/>
   </g>
   <g id="patch_43">
    <path clip-path="url(#pd339e6b1c8)" d="M 132.381304 273.312 
L 133.997858 273.312 
L 133.997858 223.227429 
L 132.381304 223.227429 
z
" style="fill:#1f77b4;"/>
   </g>
   <g id="patch_44">
    <path clip-path="url(#pd339e6b1c8)" d="M 133.997858 273.312 
L 135.614412 273.312 
L 135.614412 229.261714 
L 133.997858 229.261714 
z
" style="fill:#1f77b4;"/>
   </g>
   <g id="patch_45">
    <path clip-path="url(#pd339e6b1c8)" d="M 135.614412 273.312 
L 137.230965 273.312 
L 137.230965 215.382857 
L 135.614412 215.382857 
z
" style="fill:#1f77b4;"/>
   </g>
   <g id="patch_46">
    <path clip-path="url(#pd339e6b1c8)" d="M 137.230965 273.312 
L 138.847519 273.312 
L 138.847519 234.089143 
L 137.230965 234.089143 
z
" style="fill:#1f77b4;"/>
   </g>
   <g id="patch_47">
    <path clip-path="url(#pd339e6b1c8)" d="M 138.847519 273.312 
L 140.464072 273.312 
L 140.464072 219.606857 
L 138.847519 219.606857 
z
" style="fill:#1f77b4;"/>
   </g>
   <g id="patch_48">
    <path clip-path="url(#pd339e6b1c8)" d="M 140.464072 273.312 
L 142.080626 273.312 
L 142.080626 219.606857 
L 140.464072 219.606857 
z
" style="fill:#1f77b4;"/>
   </g>
   <g id="patch_49">
    <path clip-path="url(#pd339e6b1c8)" d="M 142.080626 273.312 
L 143.69718 273.312 
L 143.69718 214.176 
L 142.080626 214.176 
z
" style="fill:#1f77b4;"/>
   </g>
   <g id="patch_50">
    <path clip-path="url(#pd339e6b1c8)" d="M 143.69718 273.312 
L 145.313733 273.312 
L 145.313733 231.072 
L 143.69718 231.072 
z
" style="fill:#1f77b4;"/>
   </g>
   <g id="patch_51">
    <path clip-path="url(#pd339e6b1c8)" d="M 145.313733 273.312 
L 146.930287 273.312 
L 146.930287 223.830857 
L 145.313733 223.830857 
z
" style="fill:#1f77b4;"/>
   </g>
   <g id="patch_52">
    <path clip-path="url(#pd339e6b1c8)" d="M 146.930287 273.312 
L 148.546841 273.312 
L 148.546841 205.728 
L 146.930287 205.728 
z
" style="fill:#1f77b4;"/>
   </g>
   <g id="patch_53">
    <path clip-path="url(#pd339e6b1c8)" d="M 148.546841 273.312 
L 150.163394 273.312 
L 150.163394 207.538286 
L 148.546841 207.538286 
z
" style="fill:#1f77b4;"/>
   </g>
   <g id="patch_54">
    <path clip-path="url(#pd339e6b1c8)" d="M 150.163394 273.312 
L 151.779948 273.312 
L 151.779948 212.969143 
L 150.163394 212.969143 
z
" style="fill:#1f77b4;"/>
   </g>
   <g id="patch_55">
    <path clip-path="url(#pd339e6b1c8)" d="M 151.779948 273.312 
L 153.396502 273.312 
L 153.396502 206.331429 
L 151.779948 206.331429 
z
" style="fill:#1f77b4;"/>
   </g>
   <g id="patch_56">
    <path clip-path="url(#pd339e6b1c8)" d="M 153.396502 273.312 
L 155.013055 273.312 
L 155.013055 208.141714 
L 153.396502 208.141714 
z
" style="fill:#1f77b4;"/>
   </g>
   <g id="patch_57">
    <path clip-path="url(#pd339e6b1c8)" d="M 155.013055 273.312 
L 156.629609 273.312 
L 156.629609 210.555429 
L 155.013055 210.555429 
z
" style="fill:#1f77b4;"/>
   </g>
   <g id="patch_58">
    <path clip-path="url(#pd339e6b1c8)" d="M 156.629609 273.312 
L 158.246163 273.312 
L 158.246163 199.693714 
L 156.629609 199.693714 
z
" style="fill:#1f77b4;"/>
   </g>
   <g id="patch_59">
    <path clip-path="url(#pd339e6b1c8)" d="M 158.246163 273.312 
L 159.862716 273.312 
L 159.862716 212.969143 
L 158.246163 212.969143 
z
" style="fill:#1f77b4;"/>
   </g>
   <g id="patch_60">
    <path clip-path="url(#pd339e6b1c8)" d="M 159.862716 273.312 
L 161.47927 273.312 
L 161.47927 200.297143 
L 159.862716 200.297143 
z
" style="fill:#1f77b4;"/>
   </g>
   <g id="patch_61">
    <path clip-path="url(#pd339e6b1c8)" d="M 161.47927 273.312 
L 163.095823 273.312 
L 163.095823 191.849143 
L 161.47927 191.849143 
z
" style="fill:#1f77b4;"/>
   </g>
   <g id="patch_62">
    <path clip-path="url(#pd339e6b1c8)" d="M 163.095823 273.312 
L 164.712377 273.312 
L 164.712377 208.141714 
L 163.095823 208.141714 
z
" style="fill:#1f77b4;"/>
   </g>
   <g id="patch_63">
    <path clip-path="url(#pd339e6b1c8)" d="M 164.712377 273.312 
L 166.328931 273.312 
L 166.328931 208.745143 
L 164.712377 208.745143 
z
" style="fill:#1f77b4;"/>
   </g>
   <g id="patch_64">
    <path clip-path="url(#pd339e6b1c8)" d="M 166.328931 273.312 
L 167.945484 273.312 
L 167.945484 204.521143 
L 166.328931 204.521143 
z
" style="fill:#1f77b4;"/>
   </g>
   <g id="patch_65">
    <path clip-path="url(#pd339e6b1c8)" d="M 167.945484 273.312 
L 169.562038 273.312 
L 169.562038 205.728 
L 167.945484 205.728 
z
" style="fill:#1f77b4;"/>
   </g>
   <g id="patch_66">
    <path clip-path="url(#pd339e6b1c8)" d="M 169.562038 273.312 
L 171.178592 273.312 
L 171.178592 200.900571 
L 169.562038 200.900571 
z
" style="fill:#1f77b4;"/>
   </g>
   <g id="patch_67">
    <path clip-path="url(#pd339e6b1c8)" d="M 171.178592 273.312 
L 172.795145 273.312 
L 172.795145 199.693714 
L 171.178592 199.693714 
z
" style="fill:#1f77b4;"/>
   </g>
   <g id="patch_68">
    <path clip-path="url(#pd339e6b1c8)" d="M 172.795145 273.312 
L 174.411699 273.312 
L 174.411699 188.832 
L 172.795145 188.832 
z
" style="fill:#1f77b4;"/>
   </g>
   <g id="patch_69">
    <path clip-path="url(#pd339e6b1c8)" d="M 174.411699 273.312 
L 176.028253 273.312 
L 176.028253 196.676571 
L 174.411699 196.676571 
z
" style="fill:#1f77b4;"/>
   </g>
   <g id="patch_70">
    <path clip-path="url(#pd339e6b1c8)" d="M 176.028253 273.312 
L 177.644806 273.312 
L 177.644806 202.710857 
L 176.028253 202.710857 
z
" style="fill:#1f77b4;"/>
   </g>
   <g id="patch_71">
    <path clip-path="url(#pd339e6b1c8)" d="M 177.644806 273.312 
L 179.26136 273.312 
L 179.26136 189.435429 
L 177.644806 189.435429 
z
" style="fill:#1f77b4;"/>
   </g>
   <g id="patch_72">
    <path clip-path="url(#pd339e6b1c8)" d="M 179.26136 273.312 
L 180.877913 273.312 
L 180.877913 190.642286 
L 179.26136 190.642286 
z
" style="fill:#1f77b4;"/>
   </g>
   <g id="patch_73">
    <path clip-path="url(#pd339e6b1c8)" d="M 180.877913 273.312 
L 182.494467 273.312 
L 182.494467 180.987429 
L 180.877913 180.987429 
z
" style="fill:#1f77b4;"/>
   </g>
   <g id="patch_74">
    <path clip-path="url(#pd339e6b1c8)" d="M 182.494467 273.312 
L 184.111021 273.312 
L 184.111021 178.573714 
L 182.494467 178.573714 
z
" style="fill:#1f77b4;"/>
   </g>
   <g id="patch_75">
    <path clip-path="url(#pd339e6b1c8)" d="M 184.111021 273.312 
L 185.727574 273.312 
L 185.727574 180.987429 
L 184.111021 180.987429 
z
" style="fill:#1f77b4;"/>
   </g>
   <g id="patch_76">
    <path clip-path="url(#pd339e6b1c8)" d="M 185.727574 273.312 
L 187.344128 273.312 
L 187.344128 188.228571 
L 185.727574 188.228571 
z
" style="fill:#1f77b4;"/>
   </g>
   <g id="patch_77">
    <path clip-path="url(#pd339e6b1c8)" d="M 187.344128 273.312 
L 188.960682 273.312 
L 188.960682 178.573714 
L 187.344128 178.573714 
z
" style="fill:#1f77b4;"/>
   </g>
   <g id="patch_78">
    <path clip-path="url(#pd339e6b1c8)" d="M 188.960682 273.312 
L 190.577235 273.312 
L 190.577235 180.987429 
L 188.960682 180.987429 
z
" style="fill:#1f77b4;"/>
   </g>
   <g id="patch_79">
    <path clip-path="url(#pd339e6b1c8)" d="M 190.577235 273.312 
L 192.193789 273.312 
L 192.193789 176.16 
L 190.577235 176.16 
z
" style="fill:#1f77b4;"/>
   </g>
   <g id="patch_80">
    <path clip-path="url(#pd339e6b1c8)" d="M 192.193789 273.312 
L 193.810343 273.312 
L 193.810343 174.349714 
L 192.193789 174.349714 
z
" style="fill:#1f77b4;"/>
   </g>
   <g id="patch_81">
    <path clip-path="url(#pd339e6b1c8)" d="M 193.810343 273.312 
L 195.426896 273.312 
L 195.426896 187.625143 
L 193.810343 187.625143 
z
" style="fill:#1f77b4;"/>
   </g>
   <g id="patch_82">
    <path clip-path="url(#pd339e6b1c8)" d="M 195.426896 273.312 
L 197.04345 273.312 
L 197.04345 171.332571 
L 195.426896 171.332571 
z
" style="fill:#1f77b4;"/>
   </g>
   <g id="patch_83">
    <path clip-path="url(#pd339e6b1c8)" d="M 197.04345 273.312 
L 198.660003 273.312 
L 198.660003 173.746286 
L 197.04345 173.746286 
z
" style="fill:#1f77b4;"/>
   </g>
   <g id="patch_84">
    <path clip-path="url(#pd339e6b1c8)" d="M 198.660003 273.312 
L 200.276557 273.312 
L 200.276557 173.142857 
L 198.660003 173.142857 
z
" style="fill:#1f77b4;"/>
   </g>
   <g id="patch_85">
    <path clip-path="url(#pd339e6b1c8)" d="M 200.276557 273.312 
L 201.893111 273.312 
L 201.893111 169.522286 
L 200.276557 169.522286 
z
" style="fill:#1f77b4;"/>
   </g>
   <g id="patch_86">
    <path clip-path="url(#pd339e6b1c8)" d="M 201.893111 273.312 
L 203.509664 273.312 
L 203.509664 168.918857 
L 201.893111 168.918857 
z
" style="fill:#1f77b4;"/>
   </g>
   <g id="patch_87">
    <path clip-path="url(#pd339e6b1c8)" d="M 203.509664 273.312 
L 205.126218 273.312 
L 205.126218 174.349714 
L 203.509664 174.349714 
z
" style="fill:#1f77b4;"/>
   </g>
   <g id="patch_88">
    <path clip-path="url(#pd339e6b1c8)" d="M 205.126218 273.312 
L 206.742772 273.312 
L 206.742772 180.987429 
L 205.126218 180.987429 
z
" style="fill:#1f77b4;"/>
   </g>
   <g id="patch_89">
    <path clip-path="url(#pd339e6b1c8)" d="M 206.742772 273.312 
L 208.359325 273.312 
L 208.359325 170.125714 
L 206.742772 170.125714 
z
" style="fill:#1f77b4;"/>
   </g>
   <g id="patch_90">
    <path clip-path="url(#pd339e6b1c8)" d="M 208.359325 273.312 
L 209.975879 273.312 
L 209.975879 182.194286 
L 208.359325 182.194286 
z
" style="fill:#1f77b4;"/>
   </g>
   <g id="patch_91">
    <path clip-path="url(#pd339e6b1c8)" d="M 209.975879 273.312 
L 211.592433 273.312 
L 211.592433 167.108571 
L 209.975879 167.108571 
z
" style="fill:#1f77b4;"/>
   </g>
   <g id="patch_92">
    <path clip-path="url(#pd339e6b1c8)" d="M 211.592433 273.312 
L 213.208986 273.312 
L 213.208986 174.953143 
L 211.592433 174.953143 
z
" style="fill:#1f77b4;"/>
   </g>
   <g id="patch_93">
    <path clip-path="url(#pd339e6b1c8)" d="M 213.208986 273.312 
L 214.82554 273.312 
L 214.82554 173.746286 
L 213.208986 173.746286 
z
" style="fill:#1f77b4;"/>
   </g>
   <g id="patch_94">
    <path clip-path="url(#pd339e6b1c8)" d="M 214.82554 273.312 
L 216.442093 273.312 
L 216.442093 161.677714 
L 214.82554 161.677714 
z
" style="fill:#1f77b4;"/>
   </g>
   <g id="patch_95">
    <path clip-path="url(#pd339e6b1c8)" d="M 216.442093 273.312 
L 218.058647 273.312 
L 218.058647 159.867429 
L 216.442093 159.867429 
z
" style="fill:#1f77b4;"/>
   </g>
   <g id="patch_96">
    <path clip-path="url(#pd339e6b1c8)" d="M 218.058647 273.312 
L 219.675201 273.312 
L 219.675201 154.436571 
L 218.058647 154.436571 
z
" style="fill:#1f77b4;"/>
   </g>
   <g id="patch_97">
    <path clip-path="url(#pd339e6b1c8)" d="M 219.675201 273.312 
L 221.291754 273.312 
L 221.291754 157.453714 
L 219.675201 157.453714 
z
" style="fill:#1f77b4;"/>
   </g>
   <g id="patch_98">
    <path clip-path="url(#pd339e6b1c8)" d="M 221.291754 273.312 
L 222.908308 273.312 
L 222.908308 153.229714 
L 221.291754 153.229714 
z
" style="fill:#1f77b4;"/>
   </g>
   <g id="patch_99">
    <path clip-path="url(#pd339e6b1c8)" d="M 222.908308 273.312 
L 224.524862 273.312 
L 224.524862 158.660571 
L 222.908308 158.660571 
z
" style="fill:#1f77b4;"/>
   </g>
   <g id="patch_100">
    <path clip-path="url(#pd339e6b1c8)" d="M 224.524862 273.312 
L 226.141415 273.312 
L 226.141415 152.626286 
L 224.524862 152.626286 
z
" style="fill:#1f77b4;"/>
   </g>
   <g id="patch_101">
    <path clip-path="url(#pd339e6b1c8)" d="M 226.141415 273.312 
L 227.757969 273.312 
L 227.757969 153.229714 
L 226.141415 153.229714 
z
" style="fill:#1f77b4;"/>
   </g>
   <g id="patch_102">
    <path clip-path="url(#pd339e6b1c8)" d="M 227.757969 273.312 
L 229.374523 273.312 
L 229.374523 156.850286 
L 227.757969 156.850286 
z
" style="fill:#1f77b4;"/>
   </g>
   <g id="patch_103">
    <path clip-path="url(#pd339e6b1c8)" d="M 229.374523 273.312 
L 230.991076 273.312 
L 230.991076 164.091429 
L 229.374523 164.091429 
z
" style="fill:#1f77b4;"/>
   </g>
   <g id="patch_104">
    <path clip-path="url(#pd339e6b1c8)" d="M 230.991076 273.312 
L 232.60763 273.312 
L 232.60763 163.488 
L 230.991076 163.488 
z
" style="fill:#1f77b4;"/>
   </g>
   <g id="patch_105">
    <path clip-path="url(#pd339e6b1c8)" d="M 232.60763 273.312 
L 234.224183 273.312 
L 234.224183 146.592 
L 232.60763 146.592 
z
" style="fill:#1f77b4;"/>
   </g>
   <g id="patch_106">
    <path clip-path="url(#pd339e6b1c8)" d="M 234.224183 273.312 
L 235.840737 273.312 
L 235.840737 151.419429 
L 234.224183 151.419429 
z
" style="fill:#1f77b4;"/>
   </g>
   <g id="patch_107">
    <path clip-path="url(#pd339e6b1c8)" d="M 235.840737 273.312 
L 237.457291 273.312 
L 237.457291 132.109714 
L 235.840737 132.109714 
z
" style="fill:#1f77b4;"/>
   </g>
   <g id="patch_108">
    <path clip-path="url(#pd339e6b1c8)" d="M 237.457291 273.312 
L 239.073844 273.312 
L 239.073844 129.092571 
L 237.457291 129.092571 
z
" style="fill:#1f77b4;"/>
   </g>
   <g id="patch_109">
    <path clip-path="url(#pd339e6b1c8)" d="M 239.073844 273.312 
L 240.690398 273.312 
L 240.690398 140.557714 
L 239.073844 140.557714 
z
" style="fill:#1f77b4;"/>
   </g>
   <g id="patch_110">
    <path clip-path="url(#pd339e6b1c8)" d="M 240.690398 273.312 
L 242.306952 273.312 
L 242.306952 116.420571 
L 240.690398 116.420571 
z
" style="fill:#1f77b4;"/>
   </g>
   <g id="patch_111">
    <path clip-path="url(#pd339e6b1c8)" d="M 242.306952 273.312 
L 243.923505 273.312 
L 243.923505 152.022857 
L 242.306952 152.022857 
z
" style="fill:#1f77b4;"/>
   </g>
   <g id="patch_112">
    <path clip-path="url(#pd339e6b1c8)" d="M 243.923505 273.312 
L 245.540059 273.312 
L 245.540059 136.333714 
L 243.923505 136.333714 
z
" style="fill:#1f77b4;"/>
   </g>
   <g id="patch_113">
    <path clip-path="url(#pd339e6b1c8)" d="M 245.540059 273.312 
L 247.156613 273.312 
L 247.156613 140.557714 
L 245.540059 140.557714 
z
" style="fill:#1f77b4;"/>
   </g>
   <g id="patch_114">
    <path clip-path="url(#pd339e6b1c8)" d="M 247.156613 273.312 
L 248.773166 273.312 
L 248.773166 142.368 
L 247.156613 142.368 
z
" style="fill:#1f77b4;"/>
   </g>
   <g id="patch_115">
    <path clip-path="url(#pd339e6b1c8)" d="M 248.773166 273.312 
L 250.38972 273.312 
L 250.38972 139.350857 
L 248.773166 139.350857 
z
" style="fill:#1f77b4;"/>
   </g>
   <g id="patch_116">
    <path clip-path="url(#pd339e6b1c8)" d="M 250.38972 273.312 
L 252.006274 273.312 
L 252.006274 132.713143 
L 250.38972 132.713143 
z
" style="fill:#1f77b4;"/>
   </g>
   <g id="patch_117">
    <path clip-path="url(#pd339e6b1c8)" d="M 252.006274 273.312 
L 253.622827 273.312 
L 253.622827 127.282286 
L 252.006274 127.282286 
z
" style="fill:#1f77b4;"/>
   </g>
   <g id="patch_118">
    <path clip-path="url(#pd339e6b1c8)" d="M 253.622827 273.312 
L 255.239381 273.312 
L 255.239381 139.350857 
L 253.622827 139.350857 
z
" style="fill:#1f77b4;"/>
   </g>
   <g id="patch_119">
    <path clip-path="url(#pd339e6b1c8)" d="M 255.239381 273.312 
L 256.855934 273.312 
L 256.855934 139.350857 
L 255.239381 139.350857 
z
" style="fill:#1f77b4;"/>
   </g>
   <g id="patch_120">
    <path clip-path="url(#pd339e6b1c8)" d="M 256.855934 273.312 
L 258.472488 273.312 
L 258.472488 141.764571 
L 256.855934 141.764571 
z
" style="fill:#1f77b4;"/>
   </g>
   <g id="patch_121">
    <path clip-path="url(#pd339e6b1c8)" d="M 258.472488 273.312 
L 260.089042 273.312 
L 260.089042 132.713143 
L 258.472488 132.713143 
z
" style="fill:#1f77b4;"/>
   </g>
   <g id="patch_122">
    <path clip-path="url(#pd339e6b1c8)" d="M 260.089042 273.312 
L 261.705595 273.312 
L 261.705595 125.472 
L 260.089042 125.472 
z
" style="fill:#1f77b4;"/>
   </g>
   <g id="patch_123">
    <path clip-path="url(#pd339e6b1c8)" d="M 261.705595 273.312 
L 263.322149 273.312 
L 263.322149 135.126857 
L 261.705595 135.126857 
z
" style="fill:#1f77b4;"/>
   </g>
   <g id="patch_124">
    <path clip-path="url(#pd339e6b1c8)" d="M 263.322149 273.312 
L 264.938703 273.312 
L 264.938703 145.385143 
L 263.322149 145.385143 
z
" style="fill:#1f77b4;"/>
   </g>
   <g id="patch_125">
    <path clip-path="url(#pd339e6b1c8)" d="M 264.938703 273.312 
L 266.555256 273.312 
L 266.555256 118.834286 
L 264.938703 118.834286 
z
" style="fill:#1f77b4;"/>
   </g>
   <g id="patch_126">
    <path clip-path="url(#pd339e6b1c8)" d="M 266.555256 273.312 
L 268.17181 273.312 
L 268.17181 129.696 
L 266.555256 129.696 
z
" style="fill:#1f77b4;"/>
   </g>
   <g id="patch_127">
    <path clip-path="url(#pd339e6b1c8)" d="M 268.17181 273.312 
L 269.788364 273.312 
L 269.788364 129.092571 
L 268.17181 129.092571 
z
" style="fill:#1f77b4;"/>
   </g>
   <g id="patch_128">
    <path clip-path="url(#pd339e6b1c8)" d="M 269.788364 273.312 
L 271.404917 273.312 
L 271.404917 115.213714 
L 269.788364 115.213714 
z
" style="fill:#1f77b4;"/>
   </g>
   <g id="patch_129">
    <path clip-path="url(#pd339e6b1c8)" d="M 271.404917 273.312 
L 273.021471 273.312 
L 273.021471 112.196571 
L 271.404917 112.196571 
z
" style="fill:#1f77b4;"/>
   </g>
   <g id="patch_130">
    <path clip-path="url(#pd339e6b1c8)" d="M 273.021471 273.312 
L 274.638024 273.312 
L 274.638024 126.075429 
L 273.021471 126.075429 
z
" style="fill:#1f77b4;"/>
   </g>
   <g id="patch_131">
    <path clip-path="url(#pd339e6b1c8)" d="M 274.638024 273.312 
L 276.254578 273.312 
L 276.254578 127.885714 
L 274.638024 127.885714 
z
" style="fill:#1f77b4;"/>
   </g>
   <g id="patch_132">
    <path clip-path="url(#pd339e6b1c8)" d="M 276.254578 273.312 
L 277.871132 273.312 
L 277.871132 98.921143 
L 276.254578 98.921143 
z
" style="fill:#1f77b4;"/>
   </g>
   <g id="patch_133">
    <path clip-path="url(#pd339e6b1c8)" d="M 277.871132 273.312 
L 279.487685 273.312 
L 279.487685 129.092571 
L 277.871132 129.092571 
z
" style="fill:#1f77b4;"/>
   </g>
   <g id="patch_134">
    <path clip-path="url(#pd339e6b1c8)" d="M 279.487685 273.312 
L 281.104239 273.312 
L 281.104239 124.868571 
L 279.487685 124.868571 
z
" style="fill:#1f77b4;"/>
   </g>
   <g id="patch_135">
    <path clip-path="url(#pd339e6b1c8)" d="M 281.104239 273.312 
L 282.720793 273.312 
L 282.720793 119.437714 
L 281.104239 119.437714 
z
" style="fill:#1f77b4;"/>
   </g>
   <g id="patch_136">
    <path clip-path="url(#pd339e6b1c8)" d="M 282.720793 273.312 
L 284.337346 273.312 
L 284.337346 124.868571 
L 282.720793 124.868571 
z
" style="fill:#1f77b4;"/>
   </g>
   <g id="patch_137">
    <path clip-path="url(#pd339e6b1c8)" d="M 284.337346 273.312 
L 285.9539 273.312 
L 285.9539 122.454857 
L 284.337346 122.454857 
z
" style="fill:#1f77b4;"/>
   </g>
   <g id="patch_138">
    <path clip-path="url(#pd339e6b1c8)" d="M 285.9539 273.312 
L 287.570454 273.312 
L 287.570454 90.473143 
L 285.9539 90.473143 
z
" style="fill:#1f77b4;"/>
   </g>
   <g id="patch_139">
    <path clip-path="url(#pd339e6b1c8)" d="M 287.570454 273.312 
L 289.187007 273.312 
L 289.187007 107.369143 
L 287.570454 107.369143 
z
" style="fill:#1f77b4;"/>
   </g>
   <g id="patch_140">
    <path clip-path="url(#pd339e6b1c8)" d="M 289.187007 273.312 
L 290.803561 273.312 
L 290.803561 123.661714 
L 289.187007 123.661714 
z
" style="fill:#1f77b4;"/>
   </g>
   <g id="patch_141">
    <path clip-path="url(#pd339e6b1c8)" d="M 290.803561 273.312 
L 292.420114 273.312 
L 292.420114 110.386286 
L 290.803561 110.386286 
z
" style="fill:#1f77b4;"/>
   </g>
   <g id="patch_142">
    <path clip-path="url(#pd339e6b1c8)" d="M 292.420114 273.312 
L 294.036668 273.312 
L 294.036668 86.249143 
L 292.420114 86.249143 
z
" style="fill:#1f77b4;"/>
   </g>
   <g id="patch_143">
    <path clip-path="url(#pd339e6b1c8)" d="M 294.036668 273.312 
L 295.653222 273.312 
L 295.653222 103.145143 
L 294.036668 103.145143 
z
" style="fill:#1f77b4;"/>
   </g>
   <g id="patch_144">
    <path clip-path="url(#pd339e6b1c8)" d="M 295.653222 273.312 
L 297.269775 273.312 
L 297.269775 91.076571 
L 295.653222 91.076571 
z
" style="fill:#1f77b4;"/>
   </g>
   <g id="patch_145">
    <path clip-path="url(#pd339e6b1c8)" d="M 297.269775 273.312 
L 298.886329 273.312 
L 298.886329 98.317714 
L 297.269775 98.317714 
z
" style="fill:#1f77b4;"/>
   </g>
   <g id="patch_146">
    <path clip-path="url(#pd339e6b1c8)" d="M 298.886329 273.312 
L 300.502883 273.312 
L 300.502883 84.438857 
L 298.886329 84.438857 
z
" style="fill:#1f77b4;"/>
   </g>
   <g id="patch_147">
    <path clip-path="url(#pd339e6b1c8)" d="M 300.502883 273.312 
L 302.119436 273.312 
L 302.119436 107.369143 
L 300.502883 107.369143 
z
" style="fill:#1f77b4;"/>
   </g>
   <g id="patch_148">
    <path clip-path="url(#pd339e6b1c8)" d="M 302.119436 273.312 
L 303.73599 273.312 
L 303.73599 106.765714 
L 302.119436 106.765714 
z
" style="fill:#1f77b4;"/>
   </g>
   <g id="patch_149">
    <path clip-path="url(#pd339e6b1c8)" d="M 303.73599 273.312 
L 305.352544 273.312 
L 305.352544 92.886857 
L 303.73599 92.886857 
z
" style="fill:#1f77b4;"/>
   </g>
   <g id="patch_150">
    <path clip-path="url(#pd339e6b1c8)" d="M 305.352544 273.312 
L 306.969097 273.312 
L 306.969097 87.456 
L 305.352544 87.456 
z
" style="fill:#1f77b4;"/>
   </g>
   <g id="patch_151">
    <path clip-path="url(#pd339e6b1c8)" d="M 306.969097 273.312 
L 308.585651 273.312 
L 308.585651 86.249143 
L 306.969097 86.249143 
z
" style="fill:#1f77b4;"/>
   </g>
   <g id="patch_152">
    <path clip-path="url(#pd339e6b1c8)" d="M 308.585651 273.312 
L 310.202204 273.312 
L 310.202204 109.782857 
L 308.585651 109.782857 
z
" style="fill:#1f77b4;"/>
   </g>
   <g id="patch_153">
    <path clip-path="url(#pd339e6b1c8)" d="M 310.202204 273.312 
L 311.818758 273.312 
L 311.818758 77.801143 
L 310.202204 77.801143 
z
" style="fill:#1f77b4;"/>
   </g>
   <g id="patch_154">
    <path clip-path="url(#pd339e6b1c8)" d="M 311.818758 273.312 
L 313.435312 273.312 
L 313.435312 98.317714 
L 311.818758 98.317714 
z
" style="fill:#1f77b4;"/>
   </g>
   <g id="patch_155">
    <path clip-path="url(#pd339e6b1c8)" d="M 313.435312 273.312 
L 315.051865 273.312 
L 315.051865 88.059429 
L 313.435312 88.059429 
z
" style="fill:#1f77b4;"/>
   </g>
   <g id="patch_156">
    <path clip-path="url(#pd339e6b1c8)" d="M 315.051865 273.312 
L 316.668419 273.312 
L 316.668419 99.524571 
L 315.051865 99.524571 
z
" style="fill:#1f77b4;"/>
   </g>
   <g id="patch_157">
    <path clip-path="url(#pd339e6b1c8)" d="M 316.668419 273.312 
L 318.284973 273.312 
L 318.284973 110.386286 
L 316.668419 110.386286 
z
" style="fill:#1f77b4;"/>
   </g>
   <g id="patch_158">
    <path clip-path="url(#pd339e6b1c8)" d="M 318.284973 273.312 
L 319.901526 273.312 
L 319.901526 67.542857 
L 318.284973 67.542857 
z
" style="fill:#1f77b4;"/>
   </g>
   <g id="patch_159">
    <path clip-path="url(#pd339e6b1c8)" d="M 319.901526 273.312 
L 321.51808 273.312 
L 321.51808 97.110857 
L 319.901526 97.110857 
z
" style="fill:#1f77b4;"/>
   </g>
   <g id="patch_160">
    <path clip-path="url(#pd339e6b1c8)" d="M 321.51808 273.312 
L 323.134634 273.312 
L 323.134634 92.886857 
L 321.51808 92.886857 
z
" style="fill:#1f77b4;"/>
   </g>
   <g id="patch_161">
    <path clip-path="url(#pd339e6b1c8)" d="M 323.134634 273.312 
L 324.751187 273.312 
L 324.751187 82.628571 
L 323.134634 82.628571 
z
" style="fill:#1f77b4;"/>
   </g>
   <g id="patch_162">
    <path clip-path="url(#pd339e6b1c8)" d="M 324.751187 273.312 
L 326.367741 273.312 
L 326.367741 94.093714 
L 324.751187 94.093714 
z
" style="fill:#1f77b4;"/>
   </g>
   <g id="patch_163">
    <path clip-path="url(#pd339e6b1c8)" d="M 326.367741 273.312 
L 327.984294 273.312 
L 327.984294 60.301714 
L 326.367741 60.301714 
z
" style="fill:#1f77b4;"/>
   </g>
   <g id="patch_164">
    <path clip-path="url(#pd339e6b1c8)" d="M 327.984294 273.312 
L 329.600848 273.312 
L 329.600848 63.922286 
L 327.984294 63.922286 
z
" style="fill:#1f77b4;"/>
   </g>
   <g id="patch_165">
    <path clip-path="url(#pd339e6b1c8)" d="M 329.600848 273.312 
L 331.217402 273.312 
L 331.217402 63.318857 
L 329.600848 63.318857 
z
" style="fill:#1f77b4;"/>
   </g>
   <g id="patch_166">
    <path clip-path="url(#pd339e6b1c8)" d="M 331.217402 273.312 
L 332.833955 273.312 
L 332.833955 71.163429 
L 331.217402 71.163429 
z
" style="fill:#1f77b4;"/>
   </g>
   <g id="patch_167">
    <path clip-path="url(#pd339e6b1c8)" d="M 332.833955 273.312 
L 334.450509 273.312 
L 334.450509 99.524571 
L 332.833955 99.524571 
z
" style="fill:#1f77b4;"/>
   </g>
   <g id="patch_168">
    <path clip-path="url(#pd339e6b1c8)" d="M 334.450509 273.312 
L 336.067063 273.312 
L 336.067063 60.301714 
L 334.450509 60.301714 
z
" style="fill:#1f77b4;"/>
   </g>
   <g id="patch_169">
    <path clip-path="url(#pd339e6b1c8)" d="M 336.067063 273.312 
L 337.683616 273.312 
L 337.683616 59.094857 
L 336.067063 59.094857 
z
" style="fill:#1f77b4;"/>
   </g>
   <g id="patch_170">
    <path clip-path="url(#pd339e6b1c8)" d="M 337.683616 273.312 
L 339.30017 273.312 
L 339.30017 76.594286 
L 337.683616 76.594286 
z
" style="fill:#1f77b4;"/>
   </g>
   <g id="patch_171">
    <path clip-path="url(#pd339e6b1c8)" d="M 339.30017 273.312 
L 340.916724 273.312 
L 340.916724 79.008 
L 339.30017 79.008 
z
" style="fill:#1f77b4;"/>
   </g>
   <g id="patch_172">
    <path clip-path="url(#pd339e6b1c8)" d="M 340.916724 273.312 
L 342.533277 273.312 
L 342.533277 47.629714 
L 340.916724 47.629714 
z
" style="fill:#1f77b4;"/>
   </g>
   <g id="patch_173">
    <path clip-path="url(#pd339e6b1c8)" d="M 342.533277 273.312 
L 344.149831 273.312 
L 344.149831 67.542857 
L 342.533277 67.542857 
z
" style="fill:#1f77b4;"/>
   </g>
   <g id="patch_174">
    <path clip-path="url(#pd339e6b1c8)" d="M 344.149831 273.312 
L 345.766384 273.312 
L 345.766384 71.766857 
L 344.149831 71.766857 
z
" style="fill:#1f77b4;"/>
   </g>
   <g id="patch_175">
    <path clip-path="url(#pd339e6b1c8)" d="M 345.766384 273.312 
L 347.382938 273.312 
L 347.382938 67.542857 
L 345.766384 67.542857 
z
" style="fill:#1f77b4;"/>
   </g>
   <g id="patch_176">
    <path clip-path="url(#pd339e6b1c8)" d="M 347.382938 273.312 
L 348.999492 273.312 
L 348.999492 76.594286 
L 347.382938 76.594286 
z
" style="fill:#1f77b4;"/>
   </g>
   <g id="patch_177">
    <path clip-path="url(#pd339e6b1c8)" d="M 348.999492 273.312 
L 350.616045 273.312 
L 350.616045 54.870857 
L 348.999492 54.870857 
z
" style="fill:#1f77b4;"/>
   </g>
   <g id="patch_178">
    <path clip-path="url(#pd339e6b1c8)" d="M 350.616045 273.312 
L 352.232599 273.312 
L 352.232599 39.181714 
L 350.616045 39.181714 
z
" style="fill:#1f77b4;"/>
   </g>
   <g id="patch_179">
    <path clip-path="url(#pd339e6b1c8)" d="M 352.232599 273.312 
L 353.849153 273.312 
L 353.849153 58.491429 
L 352.232599 58.491429 
z
" style="fill:#1f77b4;"/>
   </g>
   <g id="patch_180">
    <path clip-path="url(#pd339e6b1c8)" d="M 353.849153 273.312 
L 355.465706 273.312 
L 355.465706 75.387429 
L 353.849153 75.387429 
z
" style="fill:#1f77b4;"/>
   </g>
   <g id="patch_181">
    <path clip-path="url(#pd339e6b1c8)" d="M 355.465706 273.312 
L 357.08226 273.312 
L 357.08226 69.956571 
L 355.465706 69.956571 
z
" style="fill:#1f77b4;"/>
   </g>
   <g id="patch_182">
    <path clip-path="url(#pd339e6b1c8)" d="M 357.08226 273.312 
L 358.698814 273.312 
L 358.698814 71.163429 
L 357.08226 71.163429 
z
" style="fill:#1f77b4;"/>
   </g>
   <g id="patch_183">
    <path clip-path="url(#pd339e6b1c8)" d="M 358.698814 273.312 
L 360.315367 273.312 
L 360.315367 37.371429 
L 358.698814 37.371429 
z
" style="fill:#1f77b4;"/>
   </g>
   <g id="patch_184">
    <path clip-path="url(#pd339e6b1c8)" d="M 360.315367 273.312 
L 361.931921 273.312 
L 361.931921 68.146286 
L 360.315367 68.146286 
z
" style="fill:#1f77b4;"/>
   </g>
   <g id="patch_185">
    <path clip-path="url(#pd339e6b1c8)" d="M 361.931921 273.312 
L 363.548475 273.312 
L 363.548475 54.870857 
L 361.931921 54.870857 
z
" style="fill:#1f77b4;"/>
   </g>
   <g id="patch_186">
    <path clip-path="url(#pd339e6b1c8)" d="M 363.548475 273.312 
L 365.165028 273.312 
L 365.165028 36.164571 
L 363.548475 36.164571 
z
" style="fill:#1f77b4;"/>
   </g>
   <g id="patch_187">
    <path clip-path="url(#pd339e6b1c8)" d="M 365.165028 273.312 
L 366.781582 273.312 
L 366.781582 34.354286 
L 365.165028 34.354286 
z
" style="fill:#1f77b4;"/>
   </g>
   <g id="patch_188">
    <path clip-path="url(#pd339e6b1c8)" d="M 366.781582 273.312 
L 368.398135 273.312 
L 368.398135 36.164571 
L 366.781582 36.164571 
z
" style="fill:#1f77b4;"/>
   </g>
   <g id="patch_189">
    <path clip-path="url(#pd339e6b1c8)" d="M 368.398135 273.312 
L 370.014689 273.312 
L 370.014689 51.250286 
L 368.398135 51.250286 
z
" style="fill:#1f77b4;"/>
   </g>
   <g id="patch_190">
    <path clip-path="url(#pd339e6b1c8)" d="M 370.014689 273.312 
L 371.631243 273.312 
L 371.631243 47.026286 
L 370.014689 47.026286 
z
" style="fill:#1f77b4;"/>
   </g>
   <g id="patch_191">
    <path clip-path="url(#pd339e6b1c8)" d="M 371.631243 273.312 
L 373.247796 273.312 
L 373.247796 43.405714 
L 371.631243 43.405714 
z
" style="fill:#1f77b4;"/>
   </g>
   <g id="patch_192">
    <path clip-path="url(#pd339e6b1c8)" d="M 373.247796 273.312 
L 374.86435 273.312 
L 374.86435 48.836571 
L 373.247796 48.836571 
z
" style="fill:#1f77b4;"/>
   </g>
   <g id="patch_193">
    <path clip-path="url(#pd339e6b1c8)" d="M 374.86435 273.312 
L 376.480904 273.312 
L 376.480904 25.302857 
L 374.86435 25.302857 
z
" style="fill:#1f77b4;"/>
   </g>
   <g id="patch_194">
    <path clip-path="url(#pd339e6b1c8)" d="M 376.480904 273.312 
L 378.097457 273.312 
L 378.097457 33.147429 
L 376.480904 33.147429 
z
" style="fill:#1f77b4;"/>
   </g>
   <g id="patch_195">
    <path clip-path="url(#pd339e6b1c8)" d="M 378.097457 273.312 
L 379.714011 273.312 
L 379.714011 37.371429 
L 378.097457 37.371429 
z
" style="fill:#1f77b4;"/>
   </g>
   <g id="patch_196">
    <path clip-path="url(#pd339e6b1c8)" d="M 379.714011 273.312 
L 381.330565 273.312 
L 381.330565 52.457143 
L 379.714011 52.457143 
z
" style="fill:#1f77b4;"/>
   </g>
   <g id="patch_197">
    <path clip-path="url(#pd339e6b1c8)" d="M 381.330565 273.312 
L 382.947118 273.312 
L 382.947118 33.147429 
L 381.330565 33.147429 
z
" style="fill:#1f77b4;"/>
   </g>
   <g id="patch_198">
    <path clip-path="url(#pd339e6b1c8)" d="M 382.947118 273.312 
L 384.563672 273.312 
L 384.563672 37.371429 
L 382.947118 37.371429 
z
" style="fill:#1f77b4;"/>
   </g>
   <g id="patch_199">
    <path clip-path="url(#pd339e6b1c8)" d="M 384.563672 273.312 
L 386.180225 273.312 
L 386.180225 57.888 
L 384.563672 57.888 
z
" style="fill:#1f77b4;"/>
   </g>
   <g id="patch_200">
    <path clip-path="url(#pd339e6b1c8)" d="M 386.180225 273.312 
L 387.796779 273.312 
L 387.796779 48.836571 
L 386.180225 48.836571 
z
" style="fill:#1f77b4;"/>
   </g>
   <g id="patch_201">
    <path clip-path="url(#pd339e6b1c8)" d="M 387.796779 273.312 
L 389.413333 273.312 
L 389.413333 34.957714 
L 387.796779 34.957714 
z
" style="fill:#1f77b4;"/>
   </g>
   <g id="patch_202">
    <path clip-path="url(#pd339e6b1c8)" d="M 389.413333 273.312 
L 391.029886 273.312 
L 391.029886 19.872 
L 389.413333 19.872 
z
" style="fill:#1f77b4;"/>
   </g>
   <g id="matplotlib.axis_1">
    <g id="xtick_1">
     <g id="line2d_1">
      <defs>
       <path d="M 0 0 
L 0 3.5 
" id="m07de398042" style="stroke:#000000;stroke-width:0.8;"/>
      </defs>
      <g>
       <use style="stroke:#000000;stroke-width:0.8;" x="66.376477" xlink:href="#m07de398042" y="273.312"/>
      </g>
     </g>
     <g id="text_1">
      <!-- 0.0 -->
      <g transform="translate(58.424915 287.910437)scale(0.1 -0.1)">
       <defs>
        <path d="M 2034 4250 
Q 1547 4250 1301 3770 
Q 1056 3291 1056 2328 
Q 1056 1369 1301 889 
Q 1547 409 2034 409 
Q 2525 409 2770 889 
Q 3016 1369 3016 2328 
Q 3016 3291 2770 3770 
Q 2525 4250 2034 4250 
z
M 2034 4750 
Q 2819 4750 3233 4129 
Q 3647 3509 3647 2328 
Q 3647 1150 3233 529 
Q 2819 -91 2034 -91 
Q 1250 -91 836 529 
Q 422 1150 422 2328 
Q 422 3509 836 4129 
Q 1250 4750 2034 4750 
z
" id="DejaVuSans-30" transform="scale(0.015625)"/>
        <path d="M 684 794 
L 1344 794 
L 1344 0 
L 684 0 
L 684 794 
z
" id="DejaVuSans-2e" transform="scale(0.015625)"/>
       </defs>
       <use xlink:href="#DejaVuSans-30"/>
       <use x="63.623047" xlink:href="#DejaVuSans-2e"/>
       <use x="95.410156" xlink:href="#DejaVuSans-30"/>
      </g>
     </g>
    </g>
    <g id="xtick_2">
     <g id="line2d_2">
      <g>
       <use style="stroke:#000000;stroke-width:0.8;" x="131.307386" xlink:href="#m07de398042" y="273.312"/>
      </g>
     </g>
     <g id="text_2">
      <!-- 0.2 -->
      <g transform="translate(123.355824 287.910437)scale(0.1 -0.1)">
       <defs>
        <path d="M 1228 531 
L 3431 531 
L 3431 0 
L 469 0 
L 469 531 
Q 828 903 1448 1529 
Q 2069 2156 2228 2338 
Q 2531 2678 2651 2914 
Q 2772 3150 2772 3378 
Q 2772 3750 2511 3984 
Q 2250 4219 1831 4219 
Q 1534 4219 1204 4116 
Q 875 4013 500 3803 
L 500 4441 
Q 881 4594 1212 4672 
Q 1544 4750 1819 4750 
Q 2544 4750 2975 4387 
Q 3406 4025 3406 3419 
Q 3406 3131 3298 2873 
Q 3191 2616 2906 2266 
Q 2828 2175 2409 1742 
Q 1991 1309 1228 531 
z
" id="DejaVuSans-32" transform="scale(0.015625)"/>
       </defs>
       <use xlink:href="#DejaVuSans-30"/>
       <use x="63.623047" xlink:href="#DejaVuSans-2e"/>
       <use x="95.410156" xlink:href="#DejaVuSans-32"/>
      </g>
     </g>
    </g>
    <g id="xtick_3">
     <g id="line2d_3">
      <g>
       <use style="stroke:#000000;stroke-width:0.8;" x="196.238295" xlink:href="#m07de398042" y="273.312"/>
      </g>
     </g>
     <g id="text_3">
      <!-- 0.4 -->
      <g transform="translate(188.286733 287.910437)scale(0.1 -0.1)">
       <defs>
        <path d="M 2419 4116 
L 825 1625 
L 2419 1625 
L 2419 4116 
z
M 2253 4666 
L 3047 4666 
L 3047 1625 
L 3713 1625 
L 3713 1100 
L 3047 1100 
L 3047 0 
L 2419 0 
L 2419 1100 
L 313 1100 
L 313 1709 
L 2253 4666 
z
" id="DejaVuSans-34" transform="scale(0.015625)"/>
       </defs>
       <use xlink:href="#DejaVuSans-30"/>
       <use x="63.623047" xlink:href="#DejaVuSans-2e"/>
       <use x="95.410156" xlink:href="#DejaVuSans-34"/>
      </g>
     </g>
    </g>
    <g id="xtick_4">
     <g id="line2d_4">
      <g>
       <use style="stroke:#000000;stroke-width:0.8;" x="261.169205" xlink:href="#m07de398042" y="273.312"/>
      </g>
     </g>
     <g id="text_4">
      <!-- 0.6 -->
      <g transform="translate(253.217642 287.910437)scale(0.1 -0.1)">
       <defs>
        <path d="M 2113 2584 
Q 1688 2584 1439 2293 
Q 1191 2003 1191 1497 
Q 1191 994 1439 701 
Q 1688 409 2113 409 
Q 2538 409 2786 701 
Q 3034 994 3034 1497 
Q 3034 2003 2786 2293 
Q 2538 2584 2113 2584 
z
M 3366 4563 
L 3366 3988 
Q 3128 4100 2886 4159 
Q 2644 4219 2406 4219 
Q 1781 4219 1451 3797 
Q 1122 3375 1075 2522 
Q 1259 2794 1537 2939 
Q 1816 3084 2150 3084 
Q 2853 3084 3261 2657 
Q 3669 2231 3669 1497 
Q 3669 778 3244 343 
Q 2819 -91 2113 -91 
Q 1303 -91 875 529 
Q 447 1150 447 2328 
Q 447 3434 972 4092 
Q 1497 4750 2381 4750 
Q 2619 4750 2861 4703 
Q 3103 4656 3366 4563 
z
" id="DejaVuSans-36" transform="scale(0.015625)"/>
       </defs>
       <use xlink:href="#DejaVuSans-30"/>
       <use x="63.623047" xlink:href="#DejaVuSans-2e"/>
       <use x="95.410156" xlink:href="#DejaVuSans-36"/>
      </g>
     </g>
    </g>
    <g id="xtick_5">
     <g id="line2d_5">
      <g>
       <use style="stroke:#000000;stroke-width:0.8;" x="326.100114" xlink:href="#m07de398042" y="273.312"/>
      </g>
     </g>
     <g id="text_5">
      <!-- 0.8 -->
      <g transform="translate(318.148551 287.910437)scale(0.1 -0.1)">
       <defs>
        <path d="M 2034 2216 
Q 1584 2216 1326 1975 
Q 1069 1734 1069 1313 
Q 1069 891 1326 650 
Q 1584 409 2034 409 
Q 2484 409 2743 651 
Q 3003 894 3003 1313 
Q 3003 1734 2745 1975 
Q 2488 2216 2034 2216 
z
M 1403 2484 
Q 997 2584 770 2862 
Q 544 3141 544 3541 
Q 544 4100 942 4425 
Q 1341 4750 2034 4750 
Q 2731 4750 3128 4425 
Q 3525 4100 3525 3541 
Q 3525 3141 3298 2862 
Q 3072 2584 2669 2484 
Q 3125 2378 3379 2068 
Q 3634 1759 3634 1313 
Q 3634 634 3220 271 
Q 2806 -91 2034 -91 
Q 1263 -91 848 271 
Q 434 634 434 1313 
Q 434 1759 690 2068 
Q 947 2378 1403 2484 
z
M 1172 3481 
Q 1172 3119 1398 2916 
Q 1625 2713 2034 2713 
Q 2441 2713 2670 2916 
Q 2900 3119 2900 3481 
Q 2900 3844 2670 4047 
Q 2441 4250 2034 4250 
Q 1625 4250 1398 4047 
Q 1172 3844 1172 3481 
z
" id="DejaVuSans-38" transform="scale(0.015625)"/>
       </defs>
       <use xlink:href="#DejaVuSans-30"/>
       <use x="63.623047" xlink:href="#DejaVuSans-2e"/>
       <use x="95.410156" xlink:href="#DejaVuSans-38"/>
      </g>
     </g>
    </g>
    <g id="xtick_6">
     <g id="line2d_6">
      <g>
       <use style="stroke:#000000;stroke-width:0.8;" x="391.031023" xlink:href="#m07de398042" y="273.312"/>
      </g>
     </g>
     <g id="text_6">
      <!-- 1.0 -->
      <g transform="translate(383.07946 287.910437)scale(0.1 -0.1)">
       <defs>
        <path d="M 794 531 
L 1825 531 
L 1825 4091 
L 703 3866 
L 703 4441 
L 1819 4666 
L 2450 4666 
L 2450 531 
L 3481 531 
L 3481 0 
L 794 0 
L 794 531 
z
" id="DejaVuSans-31" transform="scale(0.015625)"/>
       </defs>
       <use xlink:href="#DejaVuSans-31"/>
       <use x="63.623047" xlink:href="#DejaVuSans-2e"/>
       <use x="95.410156" xlink:href="#DejaVuSans-30"/>
      </g>
     </g>
    </g>
    <g id="text_7">
     <!-- Propagation direction -->
     <g transform="translate(175.221719 301.588562)scale(0.1 -0.1)">
      <defs>
       <path d="M 1259 4147 
L 1259 2394 
L 2053 2394 
Q 2494 2394 2734 2622 
Q 2975 2850 2975 3272 
Q 2975 3691 2734 3919 
Q 2494 4147 2053 4147 
L 1259 4147 
z
M 628 4666 
L 2053 4666 
Q 2838 4666 3239 4311 
Q 3641 3956 3641 3272 
Q 3641 2581 3239 2228 
Q 2838 1875 2053 1875 
L 1259 1875 
L 1259 0 
L 628 0 
L 628 4666 
z
" id="DejaVuSans-50" transform="scale(0.015625)"/>
       <path d="M 2631 2963 
Q 2534 3019 2420 3045 
Q 2306 3072 2169 3072 
Q 1681 3072 1420 2755 
Q 1159 2438 1159 1844 
L 1159 0 
L 581 0 
L 581 3500 
L 1159 3500 
L 1159 2956 
Q 1341 3275 1631 3429 
Q 1922 3584 2338 3584 
Q 2397 3584 2469 3576 
Q 2541 3569 2628 3553 
L 2631 2963 
z
" id="DejaVuSans-72" transform="scale(0.015625)"/>
       <path d="M 1959 3097 
Q 1497 3097 1228 2736 
Q 959 2375 959 1747 
Q 959 1119 1226 758 
Q 1494 397 1959 397 
Q 2419 397 2687 759 
Q 2956 1122 2956 1747 
Q 2956 2369 2687 2733 
Q 2419 3097 1959 3097 
z
M 1959 3584 
Q 2709 3584 3137 3096 
Q 3566 2609 3566 1747 
Q 3566 888 3137 398 
Q 2709 -91 1959 -91 
Q 1206 -91 779 398 
Q 353 888 353 1747 
Q 353 2609 779 3096 
Q 1206 3584 1959 3584 
z
" id="DejaVuSans-6f" transform="scale(0.015625)"/>
       <path d="M 1159 525 
L 1159 -1331 
L 581 -1331 
L 581 3500 
L 1159 3500 
L 1159 2969 
Q 1341 3281 1617 3432 
Q 1894 3584 2278 3584 
Q 2916 3584 3314 3078 
Q 3713 2572 3713 1747 
Q 3713 922 3314 415 
Q 2916 -91 2278 -91 
Q 1894 -91 1617 61 
Q 1341 213 1159 525 
z
M 3116 1747 
Q 3116 2381 2855 2742 
Q 2594 3103 2138 3103 
Q 1681 3103 1420 2742 
Q 1159 2381 1159 1747 
Q 1159 1113 1420 752 
Q 1681 391 2138 391 
Q 2594 391 2855 752 
Q 3116 1113 3116 1747 
z
" id="DejaVuSans-70" transform="scale(0.015625)"/>
       <path d="M 2194 1759 
Q 1497 1759 1228 1600 
Q 959 1441 959 1056 
Q 959 750 1161 570 
Q 1363 391 1709 391 
Q 2188 391 2477 730 
Q 2766 1069 2766 1631 
L 2766 1759 
L 2194 1759 
z
M 3341 1997 
L 3341 0 
L 2766 0 
L 2766 531 
Q 2569 213 2275 61 
Q 1981 -91 1556 -91 
Q 1019 -91 701 211 
Q 384 513 384 1019 
Q 384 1609 779 1909 
Q 1175 2209 1959 2209 
L 2766 2209 
L 2766 2266 
Q 2766 2663 2505 2880 
Q 2244 3097 1772 3097 
Q 1472 3097 1187 3025 
Q 903 2953 641 2809 
L 641 3341 
Q 956 3463 1253 3523 
Q 1550 3584 1831 3584 
Q 2591 3584 2966 3190 
Q 3341 2797 3341 1997 
z
" id="DejaVuSans-61" transform="scale(0.015625)"/>
       <path d="M 2906 1791 
Q 2906 2416 2648 2759 
Q 2391 3103 1925 3103 
Q 1463 3103 1205 2759 
Q 947 2416 947 1791 
Q 947 1169 1205 825 
Q 1463 481 1925 481 
Q 2391 481 2648 825 
Q 2906 1169 2906 1791 
z
M 3481 434 
Q 3481 -459 3084 -895 
Q 2688 -1331 1869 -1331 
Q 1566 -1331 1297 -1286 
Q 1028 -1241 775 -1147 
L 775 -588 
Q 1028 -725 1275 -790 
Q 1522 -856 1778 -856 
Q 2344 -856 2625 -561 
Q 2906 -266 2906 331 
L 2906 616 
Q 2728 306 2450 153 
Q 2172 0 1784 0 
Q 1141 0 747 490 
Q 353 981 353 1791 
Q 353 2603 747 3093 
Q 1141 3584 1784 3584 
Q 2172 3584 2450 3431 
Q 2728 3278 2906 2969 
L 2906 3500 
L 3481 3500 
L 3481 434 
z
" id="DejaVuSans-67" transform="scale(0.015625)"/>
       <path d="M 1172 4494 
L 1172 3500 
L 2356 3500 
L 2356 3053 
L 1172 3053 
L 1172 1153 
Q 1172 725 1289 603 
Q 1406 481 1766 481 
L 2356 481 
L 2356 0 
L 1766 0 
Q 1100 0 847 248 
Q 594 497 594 1153 
L 594 3053 
L 172 3053 
L 172 3500 
L 594 3500 
L 594 4494 
L 1172 4494 
z
" id="DejaVuSans-74" transform="scale(0.015625)"/>
       <path d="M 603 3500 
L 1178 3500 
L 1178 0 
L 603 0 
L 603 3500 
z
M 603 4863 
L 1178 4863 
L 1178 4134 
L 603 4134 
L 603 4863 
z
" id="DejaVuSans-69" transform="scale(0.015625)"/>
       <path d="M 3513 2113 
L 3513 0 
L 2938 0 
L 2938 2094 
Q 2938 2591 2744 2837 
Q 2550 3084 2163 3084 
Q 1697 3084 1428 2787 
Q 1159 2491 1159 1978 
L 1159 0 
L 581 0 
L 581 3500 
L 1159 3500 
L 1159 2956 
Q 1366 3272 1645 3428 
Q 1925 3584 2291 3584 
Q 2894 3584 3203 3211 
Q 3513 2838 3513 2113 
z
" id="DejaVuSans-6e" transform="scale(0.015625)"/>
       <path id="DejaVuSans-20" transform="scale(0.015625)"/>
       <path d="M 2906 2969 
L 2906 4863 
L 3481 4863 
L 3481 0 
L 2906 0 
L 2906 525 
Q 2725 213 2448 61 
Q 2172 -91 1784 -91 
Q 1150 -91 751 415 
Q 353 922 353 1747 
Q 353 2572 751 3078 
Q 1150 3584 1784 3584 
Q 2172 3584 2448 3432 
Q 2725 3281 2906 2969 
z
M 947 1747 
Q 947 1113 1208 752 
Q 1469 391 1925 391 
Q 2381 391 2643 752 
Q 2906 1113 2906 1747 
Q 2906 2381 2643 2742 
Q 2381 3103 1925 3103 
Q 1469 3103 1208 2742 
Q 947 2381 947 1747 
z
" id="DejaVuSans-64" transform="scale(0.015625)"/>
       <path d="M 3597 1894 
L 3597 1613 
L 953 1613 
Q 991 1019 1311 708 
Q 1631 397 2203 397 
Q 2534 397 2845 478 
Q 3156 559 3463 722 
L 3463 178 
Q 3153 47 2828 -22 
Q 2503 -91 2169 -91 
Q 1331 -91 842 396 
Q 353 884 353 1716 
Q 353 2575 817 3079 
Q 1281 3584 2069 3584 
Q 2775 3584 3186 3129 
Q 3597 2675 3597 1894 
z
M 3022 2063 
Q 3016 2534 2758 2815 
Q 2500 3097 2075 3097 
Q 1594 3097 1305 2825 
Q 1016 2553 972 2059 
L 3022 2063 
z
" id="DejaVuSans-65" transform="scale(0.015625)"/>
       <path d="M 3122 3366 
L 3122 2828 
Q 2878 2963 2633 3030 
Q 2388 3097 2138 3097 
Q 1578 3097 1268 2742 
Q 959 2388 959 1747 
Q 959 1106 1268 751 
Q 1578 397 2138 397 
Q 2388 397 2633 464 
Q 2878 531 3122 666 
L 3122 134 
Q 2881 22 2623 -34 
Q 2366 -91 2075 -91 
Q 1284 -91 818 406 
Q 353 903 353 1747 
Q 353 2603 823 3093 
Q 1294 3584 2113 3584 
Q 2378 3584 2631 3529 
Q 2884 3475 3122 3366 
z
" id="DejaVuSans-63" transform="scale(0.015625)"/>
      </defs>
      <use xlink:href="#DejaVuSans-50"/>
      <use x="58.552734" xlink:href="#DejaVuSans-72"/>
      <use x="97.416016" xlink:href="#DejaVuSans-6f"/>
      <use x="158.597656" xlink:href="#DejaVuSans-70"/>
      <use x="222.074219" xlink:href="#DejaVuSans-61"/>
      <use x="283.353516" xlink:href="#DejaVuSans-67"/>
      <use x="346.830078" xlink:href="#DejaVuSans-61"/>
      <use x="408.109375" xlink:href="#DejaVuSans-74"/>
      <use x="447.318359" xlink:href="#DejaVuSans-69"/>
      <use x="475.101562" xlink:href="#DejaVuSans-6f"/>
      <use x="536.283203" xlink:href="#DejaVuSans-6e"/>
      <use x="599.662109" xlink:href="#DejaVuSans-20"/>
      <use x="631.449219" xlink:href="#DejaVuSans-64"/>
      <use x="694.925781" xlink:href="#DejaVuSans-69"/>
      <use x="722.708984" xlink:href="#DejaVuSans-72"/>
      <use x="761.572266" xlink:href="#DejaVuSans-65"/>
      <use x="823.095703" xlink:href="#DejaVuSans-63"/>
      <use x="878.076172" xlink:href="#DejaVuSans-74"/>
      <use x="917.285156" xlink:href="#DejaVuSans-69"/>
      <use x="945.068359" xlink:href="#DejaVuSans-6f"/>
      <use x="1006.25" xlink:href="#DejaVuSans-6e"/>
     </g>
    </g>
   </g>
   <g id="matplotlib.axis_2">
    <g id="ytick_1">
     <g id="line2d_7">
      <defs>
       <path d="M 0 0 
L -3.5 0 
" id="m22a8ea764f" style="stroke:#000000;stroke-width:0.8;"/>
      </defs>
      <g>
       <use style="stroke:#000000;stroke-width:0.8;" x="50.14375" xlink:href="#m22a8ea764f" y="273.312"/>
      </g>
     </g>
     <g id="text_8">
      <!-- 0.00 -->
      <g transform="translate(20.878125 277.111219)scale(0.1 -0.1)">
       <use xlink:href="#DejaVuSans-30"/>
       <use x="63.623047" xlink:href="#DejaVuSans-2e"/>
       <use x="95.410156" xlink:href="#DejaVuSans-30"/>
       <use x="159.033203" xlink:href="#DejaVuSans-30"/>
      </g>
     </g>
    </g>
    <g id="ytick_2">
     <g id="line2d_8">
      <g>
       <use style="stroke:#000000;stroke-width:0.8;" x="50.14375" xlink:href="#m22a8ea764f" y="243.265458"/>
      </g>
     </g>
     <g id="text_9">
      <!-- 0.25 -->
      <g transform="translate(20.878125 247.064676)scale(0.1 -0.1)">
       <defs>
        <path d="M 691 4666 
L 3169 4666 
L 3169 4134 
L 1269 4134 
L 1269 2991 
Q 1406 3038 1543 3061 
Q 1681 3084 1819 3084 
Q 2600 3084 3056 2656 
Q 3513 2228 3513 1497 
Q 3513 744 3044 326 
Q 2575 -91 1722 -91 
Q 1428 -91 1123 -41 
Q 819 9 494 109 
L 494 744 
Q 775 591 1075 516 
Q 1375 441 1709 441 
Q 2250 441 2565 725 
Q 2881 1009 2881 1497 
Q 2881 1984 2565 2268 
Q 2250 2553 1709 2553 
Q 1456 2553 1204 2497 
Q 953 2441 691 2322 
L 691 4666 
z
" id="DejaVuSans-35" transform="scale(0.015625)"/>
       </defs>
       <use xlink:href="#DejaVuSans-30"/>
       <use x="63.623047" xlink:href="#DejaVuSans-2e"/>
       <use x="95.410156" xlink:href="#DejaVuSans-32"/>
       <use x="159.033203" xlink:href="#DejaVuSans-35"/>
      </g>
     </g>
    </g>
    <g id="ytick_3">
     <g id="line2d_9">
      <g>
       <use style="stroke:#000000;stroke-width:0.8;" x="50.14375" xlink:href="#m22a8ea764f" y="213.218915"/>
      </g>
     </g>
     <g id="text_10">
      <!-- 0.50 -->
      <g transform="translate(20.878125 217.018134)scale(0.1 -0.1)">
       <use xlink:href="#DejaVuSans-30"/>
       <use x="63.623047" xlink:href="#DejaVuSans-2e"/>
       <use x="95.410156" xlink:href="#DejaVuSans-35"/>
       <use x="159.033203" xlink:href="#DejaVuSans-30"/>
      </g>
     </g>
    </g>
    <g id="ytick_4">
     <g id="line2d_10">
      <g>
       <use style="stroke:#000000;stroke-width:0.8;" x="50.14375" xlink:href="#m22a8ea764f" y="183.172373"/>
      </g>
     </g>
     <g id="text_11">
      <!-- 0.75 -->
      <g transform="translate(20.878125 186.971592)scale(0.1 -0.1)">
       <defs>
        <path d="M 525 4666 
L 3525 4666 
L 3525 4397 
L 1831 0 
L 1172 0 
L 2766 4134 
L 525 4134 
L 525 4666 
z
" id="DejaVuSans-37" transform="scale(0.015625)"/>
       </defs>
       <use xlink:href="#DejaVuSans-30"/>
       <use x="63.623047" xlink:href="#DejaVuSans-2e"/>
       <use x="95.410156" xlink:href="#DejaVuSans-37"/>
       <use x="159.033203" xlink:href="#DejaVuSans-35"/>
      </g>
     </g>
    </g>
    <g id="ytick_5">
     <g id="line2d_11">
      <g>
       <use style="stroke:#000000;stroke-width:0.8;" x="50.14375" xlink:href="#m22a8ea764f" y="153.125831"/>
      </g>
     </g>
     <g id="text_12">
      <!-- 1.00 -->
      <g transform="translate(20.878125 156.92505)scale(0.1 -0.1)">
       <use xlink:href="#DejaVuSans-31"/>
       <use x="63.623047" xlink:href="#DejaVuSans-2e"/>
       <use x="95.410156" xlink:href="#DejaVuSans-30"/>
       <use x="159.033203" xlink:href="#DejaVuSans-30"/>
      </g>
     </g>
    </g>
    <g id="ytick_6">
     <g id="line2d_12">
      <g>
       <use style="stroke:#000000;stroke-width:0.8;" x="50.14375" xlink:href="#m22a8ea764f" y="123.079289"/>
      </g>
     </g>
     <g id="text_13">
      <!-- 1.25 -->
      <g transform="translate(20.878125 126.878507)scale(0.1 -0.1)">
       <use xlink:href="#DejaVuSans-31"/>
       <use x="63.623047" xlink:href="#DejaVuSans-2e"/>
       <use x="95.410156" xlink:href="#DejaVuSans-32"/>
       <use x="159.033203" xlink:href="#DejaVuSans-35"/>
      </g>
     </g>
    </g>
    <g id="ytick_7">
     <g id="line2d_13">
      <g>
       <use style="stroke:#000000;stroke-width:0.8;" x="50.14375" xlink:href="#m22a8ea764f" y="93.032746"/>
      </g>
     </g>
     <g id="text_14">
      <!-- 1.50 -->
      <g transform="translate(20.878125 96.831965)scale(0.1 -0.1)">
       <use xlink:href="#DejaVuSans-31"/>
       <use x="63.623047" xlink:href="#DejaVuSans-2e"/>
       <use x="95.410156" xlink:href="#DejaVuSans-35"/>
       <use x="159.033203" xlink:href="#DejaVuSans-30"/>
      </g>
     </g>
    </g>
    <g id="ytick_8">
     <g id="line2d_14">
      <g>
       <use style="stroke:#000000;stroke-width:0.8;" x="50.14375" xlink:href="#m22a8ea764f" y="62.986204"/>
      </g>
     </g>
     <g id="text_15">
      <!-- 1.75 -->
      <g transform="translate(20.878125 66.785423)scale(0.1 -0.1)">
       <use xlink:href="#DejaVuSans-31"/>
       <use x="63.623047" xlink:href="#DejaVuSans-2e"/>
       <use x="95.410156" xlink:href="#DejaVuSans-37"/>
       <use x="159.033203" xlink:href="#DejaVuSans-35"/>
      </g>
     </g>
    </g>
    <g id="ytick_9">
     <g id="line2d_15">
      <g>
       <use style="stroke:#000000;stroke-width:0.8;" x="50.14375" xlink:href="#m22a8ea764f" y="32.939662"/>
      </g>
     </g>
     <g id="text_16">
      <!-- 2.00 -->
      <g transform="translate(20.878125 36.738881)scale(0.1 -0.1)">
       <use xlink:href="#DejaVuSans-32"/>
       <use x="63.623047" xlink:href="#DejaVuSans-2e"/>
       <use x="95.410156" xlink:href="#DejaVuSans-30"/>
       <use x="159.033203" xlink:href="#DejaVuSans-30"/>
      </g>
     </g>
    </g>
    <g id="text_17">
     <!-- Probability density -->
     <g transform="translate(14.798438 186.606781)rotate(-90)scale(0.1 -0.1)">
      <defs>
       <path d="M 3116 1747 
Q 3116 2381 2855 2742 
Q 2594 3103 2138 3103 
Q 1681 3103 1420 2742 
Q 1159 2381 1159 1747 
Q 1159 1113 1420 752 
Q 1681 391 2138 391 
Q 2594 391 2855 752 
Q 3116 1113 3116 1747 
z
M 1159 2969 
Q 1341 3281 1617 3432 
Q 1894 3584 2278 3584 
Q 2916 3584 3314 3078 
Q 3713 2572 3713 1747 
Q 3713 922 3314 415 
Q 2916 -91 2278 -91 
Q 1894 -91 1617 61 
Q 1341 213 1159 525 
L 1159 0 
L 581 0 
L 581 4863 
L 1159 4863 
L 1159 2969 
z
" id="DejaVuSans-62" transform="scale(0.015625)"/>
       <path d="M 603 4863 
L 1178 4863 
L 1178 0 
L 603 0 
L 603 4863 
z
" id="DejaVuSans-6c" transform="scale(0.015625)"/>
       <path d="M 2059 -325 
Q 1816 -950 1584 -1140 
Q 1353 -1331 966 -1331 
L 506 -1331 
L 506 -850 
L 844 -850 
Q 1081 -850 1212 -737 
Q 1344 -625 1503 -206 
L 1606 56 
L 191 3500 
L 800 3500 
L 1894 763 
L 2988 3500 
L 3597 3500 
L 2059 -325 
z
" id="DejaVuSans-79" transform="scale(0.015625)"/>
       <path d="M 2834 3397 
L 2834 2853 
Q 2591 2978 2328 3040 
Q 2066 3103 1784 3103 
Q 1356 3103 1142 2972 
Q 928 2841 928 2578 
Q 928 2378 1081 2264 
Q 1234 2150 1697 2047 
L 1894 2003 
Q 2506 1872 2764 1633 
Q 3022 1394 3022 966 
Q 3022 478 2636 193 
Q 2250 -91 1575 -91 
Q 1294 -91 989 -36 
Q 684 19 347 128 
L 347 722 
Q 666 556 975 473 
Q 1284 391 1588 391 
Q 1994 391 2212 530 
Q 2431 669 2431 922 
Q 2431 1156 2273 1281 
Q 2116 1406 1581 1522 
L 1381 1569 
Q 847 1681 609 1914 
Q 372 2147 372 2553 
Q 372 3047 722 3315 
Q 1072 3584 1716 3584 
Q 2034 3584 2315 3537 
Q 2597 3491 2834 3397 
z
" id="DejaVuSans-73" transform="scale(0.015625)"/>
      </defs>
      <use xlink:href="#DejaVuSans-50"/>
      <use x="58.552734" xlink:href="#DejaVuSans-72"/>
      <use x="97.416016" xlink:href="#DejaVuSans-6f"/>
      <use x="158.597656" xlink:href="#DejaVuSans-62"/>
      <use x="222.074219" xlink:href="#DejaVuSans-61"/>
      <use x="283.353516" xlink:href="#DejaVuSans-62"/>
      <use x="346.830078" xlink:href="#DejaVuSans-69"/>
      <use x="374.613281" xlink:href="#DejaVuSans-6c"/>
      <use x="402.396484" xlink:href="#DejaVuSans-69"/>
      <use x="430.179688" xlink:href="#DejaVuSans-74"/>
      <use x="469.388672" xlink:href="#DejaVuSans-79"/>
      <use x="528.568359" xlink:href="#DejaVuSans-20"/>
      <use x="560.355469" xlink:href="#DejaVuSans-64"/>
      <use x="623.832031" xlink:href="#DejaVuSans-65"/>
      <use x="685.355469" xlink:href="#DejaVuSans-6e"/>
      <use x="748.734375" xlink:href="#DejaVuSans-73"/>
      <use x="800.833984" xlink:href="#DejaVuSans-69"/>
      <use x="828.617188" xlink:href="#DejaVuSans-74"/>
      <use x="867.826172" xlink:href="#DejaVuSans-79"/>
     </g>
    </g>
   </g>
   <g id="line2d_16">
    <path clip-path="url(#pd339e6b1c8)" d="M 66.376477 273.312 
L 391.031023 32.939662 
L 391.031023 32.939662 
" style="fill:none;stroke:#ff7f0e;stroke-linecap:square;stroke-width:1.5;"/>
   </g>
   <g id="patch_203">
    <path d="M 50.14375 273.312 
L 50.14375 7.2 
" style="fill:none;stroke:#000000;stroke-linecap:square;stroke-linejoin:miter;stroke-width:0.8;"/>
   </g>
   <g id="patch_204">
    <path d="M 407.26375 273.312 
L 407.26375 7.2 
" style="fill:none;stroke:#000000;stroke-linecap:square;stroke-linejoin:miter;stroke-width:0.8;"/>
   </g>
   <g id="patch_205">
    <path d="M 50.14375 273.312 
L 407.26375 273.312 
" style="fill:none;stroke:#000000;stroke-linecap:square;stroke-linejoin:miter;stroke-width:0.8;"/>
   </g>
   <g id="patch_206">
    <path d="M 50.14375 7.2 
L 407.26375 7.2 
" style="fill:none;stroke:#000000;stroke-linecap:square;stroke-linejoin:miter;stroke-width:0.8;"/>
   </g>
  </g>
 </g>
 <defs>
  <clipPath id="pd339e6b1c8">
   <rect height="266.112" width="357.12" x="50.14375" y="7.2"/>
  </clipPath>
 </defs>
</svg>
